<svg width="120" height="120" xmlns="http://www.w3.org/2000/svg" xmlns:xlink="http://www.w3.org/1999/xlink"
    overflow="hidden">
    <defs>
        <clipPath id="clip0">
            <path d="M135 146 256 146 256 267 135 267Z" fill-rule="evenodd" clip-rule="evenodd" />
        </clipPath>
    </defs>
    <g clip-path="url(#clip0)" transform="translate(-135 -146)">
        <path d="M136 147 188.876 147 255 147 225.26 266 188.876 266 136 266Z" fill="#FFA07A" fill-rule="evenodd" />
<path d="M209.724 187.188 210.086 187.759 210.051 188.279 210.835 189.374 211.474 189.365 212.382 188.628 212.766 189.059 212.165 190.321 211.05 190.481 210.085 191.448 209.163 191.699 209.628 192.06 210.074 193.018 209.561 193.764 209.837 194.228 210.896 193.685 212.17 192.368 213.323 192.289 214.48 191.674 213.861 192.931 213.993 193.354 214.397 193.271 214.638 194.549 215.655 196.102 215.266 196.939 213.801 197.43 214.077 198.165 213.223 198.914 212.872 198.809 212.945 199.253 212.272 199.304 211.897 199.693 212.51 200.382 211.096 201.462 211.822 201.861 212.483 201.742 212.852 202.471 213.155 202.376 213.614 201.376 214.286 201.39 215.184 200.734 216.284 200.694 217.404 201.339 217.705 202.038 218.713 202.122 219.314 201.864 219.667 202.463 220.581 202.885 221.824 202.102 222.877 203.136 224.277 203.469 225.811 204.578 225.332 204.636 224.907 205.126 225.014 205.761 224.61 206.381 225.461 206.481 225.507 206.936 226 207.155 225.52 207.709 225.662 209.018 224.783 209.119 224.622 208.529 223.946 208.826 221.953 210.519 221.874 211.152 220.996 211.163 220.344 212.288 219.879 212.352 219.301 213.03 219.819 214.35 219.485 215.329 222.849 220.054 222.521 220.546 222.031 220.279 221.552 220.454 220.427 219.621 219.016 219.232 218.857 218.86 219.202 218.605 219.139 218.154 218.836 218.088 218.068 216.9 216.905 216.518 216.731 216.739 215.61 216.683 214.443 217.777 213.775 217.508 210.715 217.909 208.153 219.196 206.856 221.267 206.092 221.736 205.195 221.737 204.197 223.659 203.453 223.332 202.653 224.616 201.633 224.473 200.288 226.366 198.654 227 197.813 226.563 197.813 226.563 197.536 225.856 197.907 225.105 197.522 224.946 197.438 224.191 197.125 223.987 197.764 223.611 197.268 221.412 197.268 221.412 197.95 221.596 199.25 220.518 200.663 220.07 200.688 218.944 201.419 218.144 202.375 218.711 205.174 217.809 205.875 217.773 206.309 218.225 206.47 217.808 207.92 216.705 207.394 215.724 207.268 215.889 207.033 215.585 206.605 215.612 206.297 216.151 206.24 215.599 205.965 215.99 205.732 215.799 206.253 214.697 206.146 214.013 205.609 213.819 205.406 213.29 204.926 212.993 205.112 212.621 204.814 212.281 205.047 212.052 204.551 211.426 204.935 211.267 204.84 211.031 205.392 210.288 206.74 209.151 207.39 207.966 205.428 207.837 202.591 208.123 201.416 209.231 199.712 209.811 198.834 209.386 195.142 210.79 192.935 211.304 192.658 211.827 192.088 211.906 191.578 212.366 190.716 212.357 190.627 212.612 187.744 213.948 187.371 213.288 186.55 213.672 185.65 213.271 185.365 213.43 185.057 212.738 184.526 213.176 185.113 213.952 185.146 214.458 183.828 215.105 182.581 216.767 181.23 217.765 179.181 220.049 179.533 220.307 179.657 220.948 178.847 221.132 177.596 222.451 175.182 222.922 173.352 222.565 169.098 223.236 167.784 222.55 167.769 222.255 167.197 221.923 164.433 221.476 164.176 221.765 164.258 222.214 163.479 222.585 161.853 222.564 161.078 223.099 160.474 222.965 159.481 223.443 157.3 223.568 157.3 223.568 157.241 221.922 156.341 221.096 156.206 219.684 156.806 218.796 156.416 218.172 157.219 218.137 157.465 217.87 156.665 217.295 156.608 216.237 156.146 215.081 155.119 215.359 154.13 215.047 152.279 215.217 151.892 214.747 151.339 215.009 150.296 213.696 150.417 213.212 150.179 212.847 151.033 211.792 151.239 210.93 151.09 210.41 150.71 210.119 150.279 210.2 150 209.614 151.527 209.574 152.144 210.229 153.628 210.272 154.099 211.341 154.852 211.659 155.695 210.86 156.621 211.018 158.627 209.563 159.321 209.579 159.994 210.739 160.82 210.495 161.17 210.101 161.792 210.375 162.393 209.818 163.162 210.117 163.736 209.293 164.566 208.964 165.476 207.661 164.485 206.59 164.796 205.67 166.254 204.552 166.601 204.994 167.492 204.518 168.389 203.681 168.853 204.134 169.285 203.662 169.154 203.075 171.682 202.628 171.845 201.648 171.212 201.072 172.42 200.122 172.8 199.221 172.73 198.732 173.09 198.603 173.209 198.136 174.616 197.609 174.986 197.938 175.205 197.493 175.759 197.861 176.875 197.878 178.318 197.415 178.883 197.719 179.774 197.148 180.837 197.671 181.811 196.146 181.602 195.812 181.727 195.179 183.801 193.509 184.572 191.603 185.517 190.659 186.412 190.593 186.611 190.038 187.374 189.497 189.014 189.466 189.924 187.698 190.997 188.352 191.855 189.286 192.122 190.415 193.078 190.125 195.032 190.917 194.705 190.291 196.011 190.723 196.313 191.129 197.983 191.224 198.187 191.993 200.046 192.34 200.618 192.298 200.989 191.795 201.162 190.774 201.815 190.946 201.697 189.686 202.32 189.627 202.487 188.98 202.996 189.158 204.803 187.583 205.047 187.879 206.139 187.064 207.126 187.194 208.724 186Z" fill="#ffffff" fill-rule="evenodd"/></g></svg>