<svg width="120" height="120" xmlns="http://www.w3.org/2000/svg" xmlns:xlink="http://www.w3.org/1999/xlink"
    overflow="hidden">
    <defs>
        <clipPath id="clip0">
            <path d="M135 146 256 146 256 267 135 267Z" fill-rule="evenodd" clip-rule="evenodd" />
        </clipPath>
    </defs>
    <g clip-path="url(#clip0)" transform="translate(-135 -146)">
        <path d="M136 147 188.876 147 255 147 225.26 266 188.876 266 136 266Z" fill="#FFA07A"  fill-rule="evenodd" />
<path d="M146.499 214.922 146.639 215.801 146.284 216 146.284 216 146.499 214.922ZM178.346 193.437 180.744 193.298 181.835 192.768 182.499 192.917 183.351 192.324 185.139 192.347 185.996 191.937 185.906 191.439 186.188 191.118 189.227 191.613 189.857 191.982 189.872 192.309 191.318 193.069 195.995 192.325 198.007 192.721 200.66 192.2 202.035 190.737 202.926 190.534 202.791 189.822 202.404 189.536 204.656 187.005 206.142 185.899 207.513 184.057 208.962 183.34 208.926 182.779 208.28 181.918 208.865 181.433 209.204 182.2 209.516 182.024 210.506 182.468 211.409 182.043 211.819 182.774 214.989 181.293 215.087 181.009 216.034 181.02 216.595 180.511 217.222 180.423 217.527 179.844 219.953 179.274 224.013 177.718 224.978 178.188 226.851 177.545 228.143 176.317 231.262 176 233.419 176.144 232.706 177.457 231.223 178.717 230.616 179.542 230.719 179.802 230.298 179.979 230.843 180.672 230.586 180.926 230.913 181.303 230.71 181.716 231.237 182.044 231.46 182.631 232.049 182.846 232.168 183.604 231.595 184.825 231.851 185.037 232.153 184.603 232.216 185.215 232.555 184.617 233.025 184.588 233.283 184.925 233.422 184.741 234 185.829 232.406 187.051 232.229 187.515 231.752 187.015 230.981 187.054 227.904 188.054 226.853 187.426 226.049 188.313 226.021 189.561 224.468 190.057 223.038 191.252 222.288 191.048 222.288 191.048 221.072 192.267 219.81 192.932 219.302 193.046 218.483 192.505 217.886 192.819 216.691 194.842 215.045 196.017 214.216 196.241 213.872 195.911 213.452 196.683 213.031 196.365 211.933 197.022 211.856 197.572 211.079 197.909 210.959 199.219 210.27 199.597 209.778 200.326 209.455 200.042 209.397 198.711 209.211 198.795 207.928 200.364 207.771 202.219 206.811 202.503 205.342 204.941 205.147 206.541 204.631 207.579 204.98 208.971 204.076 209.48 203.604 210.142 203.029 209.876 202.367 210.643 202.14 210.136 202.404 209.13 202.043 208.235 201.742 208.707 200.828 209.134 201.082 210.1 199.2 211.493 198.156 213.145 197.126 213.542 195.763 214.882 196.676 216.19 197.615 216.656 197.847 217.522 197.473 218.086 197.787 218.638 197.787 218.638 196.574 219.638 195.82 222.006 195.377 222.761 194.858 222.734 194.583 223.22 194.776 224.283 194.457 224.479 194.646 224.794 194.302 225.448 193.847 225.776 193.85 226.487 193.218 226.826 192.787 226.352 192.603 226.511 192.567 227.578 192.121 228.074 192.531 228.624 192.114 229.868 192.564 230.067 191.911 230.204 192.075 230.419 191.55 231.426 191.598 232.772 191.048 232.896 191.048 232.896 190.126 233.017 189.782 232.745 189.691 233.035 189.089 232.956 188.606 233.296 187.699 231.053 186.638 233.657 185.692 234.004 185.512 235.247 184.645 235.363 184.373 236.436 183.723 236.673 183.652 237 183.022 236.827 182.819 235.25 181.03 235.271 181.03 235.271 179.837 235.31 180.687 233.272 180.097 232.001 180.096 231.315 180.096 231.315 180.379 228.913 181.053 227.665 180.231 225.107 181.055 224.778 182.379 225.881 182.961 225.847 183.201 225.451 183.808 225.501 183.992 225.024 183.773 224.237 183.479 224.424 183.242 224.251 183.55 224.194 183.363 223.894 182.906 223.95 182.87 223.016 182.87 223.016 183.401 222.933 183.7 221.815 184.535 221.948 184.275 221.31 185.655 221.662 186.299 220.726 188.256 220.059 187.691 219.585 188.082 219.02 187.971 218.272 187.632 218.229 187.298 217.502 187.028 217.601 186.397 216.935 186.202 217.042 186.119 216.647 185.477 216.944 185.321 216.072 184.884 216.139 185.983 215.032 186.108 214.165 185.384 214.716 184.957 214.668 184.745 213.852 183.949 213.679 183.433 212.736 182.959 212.6 182.973 211.959 182.288 211.608 181.555 212.058 180.067 212.201 179.096 212.903 178.988 210.67 179.368 209.758 180.018 209.173 179.138 209.098 179.034 208.573 181.04 206.439 180.241 206.703 179.346 206.433 178.703 206.967 177.561 207.175 176.681 207.044 175.7 207.705 174.961 206.867 175.041 206.144 174.237 205.809 172.984 206.756 172.827 208.426 172.102 209.2 171.274 208.652 171.656 208.256 171.574 207.342 170.772 207.172 169.716 208.957 170.139 208.91 169.333 209.743 169.803 209.802 170.115 209.45 170.054 209.716 168.901 210.222 168.538 210.004 167.324 210.256 166.499 211.714 165.763 212.086 165.309 211.989 165.137 211.248 165.372 209.936 163.477 210.549 163.287 210.414 163.695 210.037 163.276 210.098 162.588 210.518 162.993 209.475 162.114 209.488 161.762 208.53 161.38 208.599 161.425 209.074 160.911 208.463 160.253 208.678 159.87 208.457 159.417 209.153 158.884 209.044 158.982 208.375 158.109 208.479 157.237 209.303 156.977 209.091 157.297 208.691 156.634 208.335 155.639 209.344 155.951 208.363 155.138 207.454 154.445 207.87 153.987 207.471 153.539 207.532 152.96 208.104 150.941 208.579 150.032 208.312 148.411 209.624 148.656 209.832 148.462 210.129 147.555 210.484 147.707 211.277 147.397 211.751 146.816 211.902 148.59 214.007 146.496 214.925 146.496 214.925 146.711 213.57 145.991 212.182 146.118 211.376 145.704 210.604 146.784 208.647 146.231 208.548 146.089 208.27 146.571 208.077 146.061 207.532 146.064 208 145.825 207.938 145.556 207.072 145.184 207.111 145.547 206.781 145.462 206.328 144.915 205.964 145.08 205.671 144.798 205.223 144.341 205.058 144.341 205.058 144.56 204.915 144 204.691 144.529 204.321 144.034 204.242 144.482 203.908 144.141 203.404 144.432 203.587 144.606 203.385 144.327 202.834 144.908 203.094 144.792 202.582 145.224 202.432 145.24 202.075 146.312 201.578 146.163 201.286 145.885 201.386 146.501 200.375 146.246 199.931 146.378 198.492 146.599 198.391 146.307 197.765 146.582 197.348 146.306 196.48 146.306 196.48 146.383 195.949 147.741 196.17 150.42 195.663 151.027 195.412 150.961 194.785 151.399 194.082 152.632 194.17 153.394 193.403 154.172 193.31 156.31 194.925 158.479 195.46 163.342 195.27 163.949 194.625 166.307 194.861 167.36 195.267 168.386 194.373 169.588 195.105 171.452 194.6 172.355 194.859 173.987 194.108 174.782 193.115 175.343 193.082 176.6 194.008 177.454 194.18 178.072 193.964 178.346 193.437Z" fill="#ffffff" fill-rule="evenodd"/></g></svg>