<svg width="120" height="120" xmlns="http://www.w3.org/2000/svg" xmlns:xlink="http://www.w3.org/1999/xlink"
    overflow="hidden">
    <defs>
        <clipPath id="clip0">
            <path d="M135 146 256 146 256 267 135 267Z" fill-rule="evenodd" clip-rule="evenodd" />
        </clipPath>
    </defs>
    <g clip-path="url(#clip0)" transform="translate(-135 -146)">
        <path d="M136 147 188.876 147 255 147 225.26 266 188.876 266 136 266Z" fill="#FFA07A"  fill-rule="evenodd" />
<path d="M228.776 190.95 228.79 191.015 228.79 191.015 228.776 190.95ZM159.864 172.068 160.438 172.007 160.405 172.61 161.389 172.927 161.436 173.453 162.225 173.268 162.91 174.585 168.548 175.479 169.777 177.876 169.489 180.191 168.943 181.126 170.915 181.991 171.19 181.702 171.551 182.128 172.177 181.668 173.245 182.631 174.469 182.812 174.746 183.205 174.56 183.67 176.162 184.237 175.504 184.842 178.5 184.626 178.179 185.684 178.752 186.712 180.897 187.047 182.164 186.085 182.96 186.263 186.09 184.522 187.82 185.998 187.784 188.73 189.256 189.73 189.835 189.594 189.815 190.388 191.514 189.523 191.725 188.792 192.904 188.496 194.807 189.224 194.766 189.658 195.736 189.5 196.17 190.008 196.773 189.454 198.065 189.406 201.782 190.973 202.276 191.768 205.054 193.212 205.646 192.51 206.823 192.89 207.872 192.446 207.831 191.982 208.491 191.914 208.541 191.39 209.969 191.094 210.48 190.029 210.946 190.059 211.285 192.672 212.515 193.562 214.135 193.427 214.302 194.145 215.107 194.193 215.6 194.647 216.082 193.487 217.772 192.864 220.182 194.009 220.976 193.767 221.424 192.959 222.391 193.492 222.957 193.403 223.36 192.307 224.379 192.939 225.061 191.97 225.73 193.29 226.851 193.785 226.958 194.315 227.515 194.317 227.595 193.795 228.637 192.913 228.788 191.02 228.788 191.02 229.467 191.496 229.863 190.986 230.951 190.705 230.988 191.083 230.048 191.889 230.304 192.247 230.865 192.166 230.913 192.727 231.585 193.216 230.938 193.752 231.062 194.11 231.58 193.998 232 194.523 230.658 195.915 229.451 196.47 228.16 197.953 227.6 197.915 227.179 198.623 226.332 198.409 226.402 199.768 225.879 199.708 225.762 200.006 225.447 199.582 224.223 200.476 224.012 202.57 223.56 203.017 223.889 203.797 225.411 204.175 224.936 204.62 225.405 204.885 225.197 205.749 225.783 205.718 226.278 206.613 227.793 207.267 227.568 208.297 227.892 208.373 227.317 209.252 227.571 210.213 228.212 210.841 228.17 211.289 227.43 211.181 227.083 210.718 227.027 211.029 226.723 210.866 226.712 210.441 225.675 210.223 225.207 210.834 224.866 210.61 224.593 211.577 224.081 211.592 223.646 212.174 223.174 211.974 222.789 212.731 222.904 213.248 223.304 213.358 223.219 214.118 224.473 215.163 223.891 215.991 224.13 216.661 223.282 216.256 223.282 216.256 223.208 215.765 221.902 215.57 221.493 214.545 220.158 214.521 219.694 213.815 219.129 214.148 218.996 215.089 217.99 214.831 218.235 215.455 217.837 215.867 217.828 216.749 216.438 216.122 216.059 216.55 215.256 216.206 214.696 218.758 213.995 218.442 213.318 218.753 212.201 219.996 212.397 222.637 212.274 223.154 211.642 223.209 211.021 223.842 211.334 224.238 210.535 227.938 208.454 227.253 207.901 228.322 208.126 229.231 207.525 228.687 207.148 229.008 206.844 228.67 206.209 228.739 206.304 228.171 205.808 227.692 205.353 227.725 205.021 228.527 203.928 228.815 202.796 227.971 201.824 229.301 201.115 229.63 200.82 231.388 200.426 231.447 200.19 232.456 199.557 232.256 198.436 231.033 197.198 230.686 197.774 229.804 197.628 228.86 197.954 228.37 196.939 228.525 196.13 227.844 195.743 228.349 194.676 228 194.523 226.069 193.868 225.288 193.047 225.383 193.246 224.656 191.512 225.558 190.257 224.262 188.52 224.288 187.819 223.837 187.126 225.913 186.311 226.413 186.573 228.41 185.049 228.01 184.906 228.728 184.362 228.727 184.041 229.5 183.491 229.003 179.965 229.459 179.955 230.017 177.685 230.669 178.009 231.303 176.626 232.255 176.211 232.112 176.396 231.105 176.001 231.574 174.914 231.628 174.536 232.316 173.317 232.389 173.008 230.669 172.216 230.864 172.186 229.745 171.541 229.404 169.528 230.792 169.17 231.98 167.687 231.626 167.57 232.164 166.806 232.31 166.875 233.007 166.322 234 165.648 233.022 165.007 233.16 165.094 232.634 164.397 232.054 163.596 231.938 163.236 231.415 163.501 231.268 162.858 230.896 162.875 230.328 163.432 229.91 162.854 228.71 162.444 228.743 162.632 228.978 162.236 229.379 161.852 228.953 161.55 229.295 161.045 228.912 160.779 229.068 160.889 229.765 160.315 229.198 160.211 229.871 159.688 230.315 158.599 227.832 157.656 227.343 156.554 229.053 155.508 229.338 152.892 229.868 149.114 229.45 149.114 229.45 149.86 227.567 149.102 227.083 149.382 226.522 148.812 226.055 148.797 225.447 148.334 225.533 147.187 224.566 147.249 223.636 146.619 222.922 146.444 220.26 146 220.13 146.677 218.092 146.297 217.001 146.543 216.666 147.212 216.512 147.575 215.706 148.457 215.654 149.826 214.401 150.253 214.582 151.26 214.174 151.741 213.439 152.412 213.375 152.174 213.239 152.508 212.901 152.671 213.091 153.163 212.624 153.672 213.058 154.32 212.617 154.234 212.222 154.995 212.121 154.508 211.566 155.215 211.417 156.355 209.795 159.112 208.281 158.993 207.169 159.422 206.695 160.352 206.491 161.149 207.02 161.297 207.667 162.727 207.822 162.692 207.523 163.297 207.622 163.518 206.231 164.359 206.152 164.737 207.095 165.549 206.807 166.233 207.509 166.859 207.384 167.054 206.577 166.977 207.222 167.338 207.39 167.395 206.387 168.691 206.542 168.172 205.923 168.512 205.281 167.41 204.449 166.9 204.51 166.929 203.678 165.107 203.396 164.848 202.649 163.864 202.112 162.913 202.349 161.278 201.32 160.663 201.494 160.68 200.841 159.363 199.476 158.637 199.415 158.103 198.541 157.988 196.703 159.161 197.078 159.742 196.294 160.543 196.603 160.931 195.232 160.751 194.136 159.034 193.934 157.979 192.7 157.477 192.966 156.1 192.665 156.099 191.356 157.142 191.539 157.343 191.089 158.616 190.866 159.217 189.782 159.204 188.948 162.496 189.787 164.955 189.251 164.744 188.4 163.42 188.148 162.943 186.814 162.066 187.278 161.835 187.08 161.673 186.74 162.151 185.742 161.958 184.702 161.407 184.536 160.71 185.242 160.066 184.832 160.224 184.215 159.529 183.958 159.346 184.417 158.688 184.135 158.613 183.358 158.219 183.147 158.595 182.775 158.494 181.171 157.629 180.708 158.146 180.187 156.741 180.235 157.421 178.15 157.001 177.478 156.024 177.005 156.503 176.136 156.347 175.724 155.275 175.998 154.83 175.774 155.341 175.225 155.341 175.225 156.205 174.579 155.631 174.43 155.545 173.718 156.634 173.312 158.297 173.619 159.475 172.533 159.515 172 159.864 172.068Z" fill="#ffffff" fill-rule="evenodd"/></g></svg>