<svg width="120" height="120" xmlns="http://www.w3.org/2000/svg" xmlns:xlink="http://www.w3.org/1999/xlink"
    overflow="hidden">
    <defs>
        <clipPath id="clip0">
            <path d="M135 146 256 146 256 267 135 267Z" fill-rule="evenodd" clip-rule="evenodd" />
        </clipPath>
    </defs>
    <g clip-path="url(#clip0)" transform="translate(-135 -146)">
        <path d="M136 147 188.876 147 255 147 225.26 266 188.876 266 136 266Z" fill="#FFA07A"  fill-rule="evenodd" />
<path d="M206.584 158 208.057 158.276 208.379 158.924 209.235 159.148 209.756 161.188 210.239 161.405 210.023 161.741 211.965 162.405 212.456 163.437 212.244 164.568 213.114 165.868 215.434 166.438 215.473 165.509 216.473 165.354 216.699 166.732 215.93 168.121 215.877 169.28 216.466 169.724 216.999 169.393 217.388 170.081 216.859 173.07 218.244 173.957 218.512 175.789 219.119 174.857 219.512 175.594 220.298 175.4 220.402 175.83 221.733 175.615 222 176.181 221.723 177.337 221.139 177.414 220.499 178.909 220.05 178.915 219.633 179.348 219.564 180.378 218.54 180.914 217.534 180.881 216.444 181.921 216.408 182.677 216.408 182.677 216.083 182.659 216.025 182.966 216.973 183.558 216.433 185.053 214.361 185.424 212.795 186.988 211.93 186.947 211.246 187.27 209.993 189.14 210.589 189.733 209.692 189.891 209.645 191.311 209.909 191.795 210.591 192.125 210.172 192.727 210.36 193.163 209.589 193.343 209.666 193.931 209.007 193.612 208.662 194.103 208.908 194.739 207.976 195.766 208.914 196.528 208.454 196.842 208.287 196.162 207.411 196.726 206.744 198.533 206.97 199.327 207.6 200.013 207.729 200.798 207.326 200.929 205.81 200.389 205.58 201.353 205.875 201.765 205.062 202.157 204.653 204.073 203.637 204.603 202.49 204.329 201.267 203.458 200.156 203.865 199.19 203.719 198.848 204.015 198.319 203.7 196.636 203.86 196.767 204.591 196.251 205.062 196.438 205.592 195.434 207.054 194.461 207.637 194.076 208.859 193.446 208.818 193.242 208.266 192.449 207.938 192.283 209.86 192.762 211.92 192.122 212.996 192.939 213.669 193.049 214.546 193.367 214.229 193.644 214.955 193.132 216.336 193.644 217.139 193.295 217.436 193.418 218.373 192.916 219.253 193.089 220.55 196.091 221.679 196.575 221.459 197.67 221.609 197.57 223.087 197.816 223.43 197.601 224.036 196.777 224.122 195.899 224.95 195.699 224.168 196.021 223.526 193.834 222.939 193.06 223.263 192.346 224.052 190.771 221.49 190.016 221.795 188.272 220.699 187.787 221.307 186.585 219.899 185.503 220.91 185.08 222.221 185.258 222.862 186.86 223.674 187.147 224.573 188.299 224.766 187.977 225.972 188.101 228.488 187.758 229.048 188.766 228.925 189.161 230.233 190.083 230.328 189.841 231.113 189.472 231.174 190.084 231.815 189.629 232.639 190.021 234.257 189.745 234.749 190.324 234.885 190.503 235.294 190.242 235.754 190.691 236.446 190.9 238.024 189.933 238.253 189.765 239.834 189.302 240.338 188.612 240.365 188.571 241.027 187.922 240.925 186.966 241.353 186.673 242.287 185.775 241.961 185.819 242.406 186.776 242.925 186.665 243.341 186.112 243.264 185.941 243.805 185.379 244.038 183.992 245.576 183.743 246.572 182.487 246.663 182.496 247.089 181.551 247.237 180.604 247.873 180.269 249.01 180.526 249.409 180.325 250.388 179.821 251.352 179.871 252.233 179.291 253.65 178.664 253.512 178.535 254.694 178.535 254.694 176.641 254.611 175.274 254.001 174.03 255 173.435 254.949 172.155 250.56 172.585 249.246 170.969 249.78 170.769 248.801 171.048 248.656 170.499 248.251 170.041 249.274 169.125 249.192 169.106 248.481 169.899 247.949 169.27 247.223 168.86 246.004 169.009 245.61 168.494 245.454 168.608 245.202 167.912 244.655 167.65 243.95 165.491 242.298 163.443 242.929 162.367 240.938 162.367 240.938 162 240.306 162.498 240.229 163.539 239.334 162.369 237.745 162.37 236.859 163.157 235.531 163.196 234.52 164.091 233.8 164.042 233.039 164.819 232.706 165.378 231.582 166.712 230.581 167.324 232.006 168.218 231.712 168.459 232.365 169.337 232.315 170.723 231.19 169.897 230.19 171.404 229.597 171.216 228.785 170.728 228.631 170.471 228.123 169.586 228.036 168.928 227.427 168 227.368 168.13 226.15 166.305 224.896 166.345 224.215 165.285 224.133 165.414 224.93 165.043 224.618 164.207 224.592 164.248 224.262 164.742 224.353 165.694 223.461 165.48 223.001 164.395 222.895 164.375 222.489 164.916 222.182 165.448 222.561 166.025 222.515 166.39 221.655 166.399 220.457 166.315 219.784 165.702 219.34 164.195 219.261 164.081 218.975 164.486 218.557 164.037 217.77 165.887 217.343 166.339 216.774 167.435 216.365 166.975 215.417 167.5 212.23 166.705 212.099 165.903 212.517 165.464 212.028 165.841 211.452 166.89 211.008 166.39 209.755 166.336 207.17 165.088 207.198 164.627 206.008 164.969 205.592 164.766 204.663 165.113 203.499 167.688 202.31 168.233 201.571 167.996 201.07 167.996 201.07 169.062 198.895 168.758 197.126 168.892 195.198 169.246 194.486 170.233 194.647 170.53 193.762 170.6 191.741 170.338 191.414 170.734 191.351 171.675 188.903 172.249 188.998 172.436 189.844 172.952 189.795 173.019 189.248 172.543 188.973 173.194 188.693 173.246 187.199 174.19 186.927 174.612 186.189 174.557 183.915 175.571 183.154 176.125 183.751 176.951 183.009 177.363 183.284 177.637 182.624 178.445 182.919 178.703 183.912 179.106 183.323 179.448 183.507 179.303 183.095 179.908 183.105 180.475 182.38 181.875 182.395 181.988 182.003 182.351 181.931 182.464 180.951 183.195 180.677 183.425 180.265 183.68 180.703 184.001 180.46 183.767 179.483 184.313 178.859 183.974 177.806 184.097 177.197 185.356 176.926 185.408 176.551 186.569 175.895 186.254 174.589 186.538 174.015 187.782 173.979 188.405 173.406 189.111 173.61 189.62 173.017 189.495 171.678 190.175 170.79 190.123 170.152 189.428 169.583 189.038 169.677 188.859 169.024 188.096 169.333 187.644 169.176 187.666 168.62 187.089 168.782 186.224 166.923 184.933 167.247 184.607 166.707 183.615 166.37 182.993 167.059 182.435 166.93 182.055 167.575 181.748 167.317 181.729 166.635 181.315 166.565 181.209 166.038 181.686 165.859 181.838 164.906 182.27 164.916 182.91 163.959 182.718 163.449 182.221 163.181 182.089 162.245 181.624 161.886 181.799 161.051 182.538 160.759 183.426 161.804 183.369 162.094 184.289 162.542 185.306 162.347 186.225 161.584 186.721 161.899 187.444 161.738 188.091 162.406 189.783 162.416 190.384 161.897 190.317 162.227 190.706 162.62 191.128 162.385 192.183 162.671 194.089 162.55 194.903 162.976 195.312 162.82 195.064 162.351 195.912 162.37 196.868 161.842 196.933 161.037 198.258 160.811 199.121 160.171 199.121 160.171 201.017 161.538 203.156 161.503 204.645 160.829 205.029 159.758 205.897 159.226 206.085 158.446Z" fill="#ffffff" fill-rule="evenodd"/></g></svg>