<svg width="120" height="120" xmlns="http://www.w3.org/2000/svg" xmlns:xlink="http://www.w3.org/1999/xlink"
    overflow="hidden">
    <defs>
        <clipPath id="clip0">
            <path d="M135 146 256 146 256 267 135 267Z" fill-rule="evenodd" clip-rule="evenodd" />
        </clipPath>
    </defs>
    <g clip-path="url(#clip0)" transform="translate(-135 -146)">
        <path d="M136 147 188.876 147 255 147 225.26 266 188.876 266 136 266Z" fill="#FFA07A"  fill-rule="evenodd" />
<path d="M198.8 170.608 202.674 175.257 200.077 181.149 203.61 182.275 211.28 193.338 216.188 192.834 214.625 203.32 217.806 208.572 212.411 214.765 218.001 223.246 218.001 223.246 205.897 226.826 203.744 229.852 205.642 235.005 196.111 238.001 190.066 233.019 188.716 225.467 184.234 221.586 181.216 222.33 175.779 218.284 175.712 222.447 170.993 220.522 159.65 223.234 154.335 216.192 154 211.137 156.524 211.002 159.468 204.347 166.59 204.341 164.504 201.457 169.223 194.384 167.66 177.404 179.021 175.042 184.659 168 191.374 170.817 192.73 174.316Z" fill="#ffffff" fill-rule="evenodd"/>    </g>
</svg>
