<svg width="120" height="120" xmlns="http://www.w3.org/2000/svg" xmlns:xlink="http://www.w3.org/1999/xlink"
    overflow="hidden">
    <defs>
        <clipPath id="clip0">
            <path d="M135 146 256 146 256 267 135 267Z" fill-rule="evenodd" clip-rule="evenodd" />
        </clipPath>
    </defs>
    <g clip-path="url(#clip0)" transform="translate(-135 -146)">
        <path d="M136 147 188.876 147 255 147 225.26 266 188.876 266 136 266Z" fill="#FFA07A"  fill-rule="evenodd" />
<path d="M156 172.578 169.403 171.375 172.251 166 173.737 170.33 179.254 171.037 181.348 179.784 183.928 182.771 186.487 183.362 195.09 179.251 195.09 179.251 199.249 179.094 200.715 176.491 202.738 179.362 204.346 177.792 206.423 178.899 207.588 182.912 206.34 186.841 209.229 190.419 206.52 193.7 208.815 197.873 208.828 202.769 212.836 204.686 214 211.363 206.625 214.532 210.934 217.623 212.266 221.139 209.435 224.804 208.451 229.047 210.553 234.071 206.989 238.476 207.726 240.637 202.616 244.694 199.136 242.038 199.421 245.81 196.263 244.777 192.581 247 192.581 247 187.806 244.959 188.732 241.397 181.134 231.737 176.313 230.117 179.53 224.56 174.831 207.88 172.954 204.438 170.102 205.31 164.988 200.823 173.243 202.046 174.994 200.418 170.806 197.075 165.424 196.228 166.982 193.229 163.405 193.253 160.896 182.494 156 172.578Z" fill="#ffffff" fill-rule="evenodd"/></g></svg>