<svg width="120" height="120" xmlns="http://www.w3.org/2000/svg" xmlns:xlink="http://www.w3.org/1999/xlink"
    overflow="hidden">
    <defs>
        <clipPath id="clip0">
            <path d="M135 146 256 146 256 267 135 267Z" fill-rule="evenodd" clip-rule="evenodd" />
        </clipPath>
    </defs>
    <g clip-path="url(#clip0)" transform="translate(-135 -146)">
        <path d="M136 147 188.876 147 255 147 225.26 266 188.876 266 136 266Z" fill="#FFA07A"  fill-rule="evenodd" />
<path d="M159.189 188.007 160.265 186.324 159.695 185.142 160.03 183.492 159.215 182.078 157.549 180.665 157.828 179.174 159.074 179.163 160.732 180.291 163.606 178.197 163.847 177.295 166.873 176.598 167.667 174.809 170.125 172.733 171.755 172.904 173.407 172.16 174.132 172.226 175.082 173.34 177.25 172.916 177.786 171.156 178.269 171 178.785 171.478 179.324 171.234 178.799 173.512 179.663 174.601 180.353 174.552 181.202 176.571 182.907 177.677 183.684 177.423 184.518 178.082 185.813 177.905 186.02 179.568 186.602 179.14 187.749 180.03 187.972 180.79 188.382 180.51 189.369 181.07 189.847 181.923 190.45 181.788 191.103 180.281 192.53 180.876 193.148 180.257 193.885 180.235 195.241 178.824 196.703 178.432 196.954 177.766 197.949 178.122 199.586 179.783 198.98 180.799 200.796 181.709 201.497 183.035 202.218 183.269 201.968 185.089 203.639 187.749 204.76 187.614 204.72 186.525 205.383 186.808 205.973 185.863 206.565 186.357 207.219 185.442 208.492 185.687 210.236 184.598 210.066 183.973 211.829 183.374 211.656 185.617 212.197 186.833 210.255 187.974 210.309 189.177 209.873 189.709 210.545 190.507 212.063 189.167 212.659 189.614 212.659 189.614 213.381 189.959 213.235 190.992 214.935 191.935 213.782 193.585 213.826 195.279 213.258 196.213 215.369 196.125 216.497 196.903 216.104 198.393 216.59 199.301 217.654 199.671 219.414 202.137 220.248 202.332 218.57 207.441 219.272 208.168 218.991 208.727 219.476 209.944 220.43 209.998 221.514 211.838 218.893 214.226 219.102 215.051 219.782 214.91 220.763 215.842 220.363 217.111 221.433 217.602 221.47 218.858 223.111 220.604 223.111 220.604 223.295 221.441 224.538 222.596 225 224.137 222.362 224.333 221.253 223.356 220.754 221.934 217.65 222.189 217.371 221.521 216.548 221.165 215.32 221.894 213.909 221.966 213.362 220.972 212.843 220.588 212.381 220.884 211.512 219.826 210.291 219.891 210.187 220.436 209.674 220.306 208.906 221.198 207.12 221.283 205.855 222.285 204.637 222.42 204.306 223.164 203.053 222.58 201.636 223.17 200.695 224.972 199.805 225.442 200.326 226.766 199.717 227.705 200.154 228.102 199.032 227.528 198.415 227.956 198.647 228.869 199.701 228.831 199.569 230.428 198.624 229.875 198.622 231.132 197.44 232.627 198.552 234.045 198.39 234.651 199.352 235.191 199.414 236.275 198.308 236.787 198.989 237.65 199.862 237.631 200.017 238.377 199.776 238.908 197.245 240.363 195.181 240.885 194.801 241.514 194.801 241.514 195.051 242 195.051 242 194.376 241.69 193.68 240.434 193.196 241.315 191.713 241.418 192.49 240.639 192.431 240.034 191.379 241.165 190.23 240.114 189.486 240.317 188.244 239.566 187.208 239.666 186.845 238.555 185.701 238.174 185.289 237.545 186.257 236.757 186.138 234.537 184.559 233.212 183.65 232.951 183.216 233.274 182.7 232.422 182.897 231.511 182.501 231.891 181.966 231.587 180.878 229.482 179.832 230.132 179.059 229.512 178.941 228.67 178.092 229.258 178.092 229.258 176.885 227.861 174.726 226.862 174.492 225.653 175.056 224.261 174.288 223.833 174.311 222.48 175.26 221.74 175.061 221.393 174.105 221.657 174.548 220.808 173.893 220.089 173.144 220.699 173.19 219.996 172.789 220.528 172.708 220.017 172.167 220.256 171.707 219.351 170.956 220.023 171.317 219.454 169.863 217.359 169.524 216.124 169.44 216.757 168.528 217.083 168.966 218.298 168.109 218.563 168.111 219.129 165.515 219.436 165.377 218.582 164.719 218.083 165.108 216.796 161.932 211.065 160.228 206.851 161.273 206.917 159.652 203.57 157.329 202.466 155.34 200.802 154.487 200.414 153.417 200.69 153 200.302 154.75 198.243 153.874 197.734 153.923 196.505 156.321 195.534 158.585 192.91 160.446 191.978 158.735 189.71Z" fill="#ffffff" fill-rule="evenodd"/></g></svg>