<svg width="120" height="120" xmlns="http://www.w3.org/2000/svg" xmlns:xlink="http://www.w3.org/1999/xlink"
    overflow="hidden">
    <defs>
        <clipPath id="clip0">
            <path d="M135 146 256 146 256 267 135 267Z" fill-rule="evenodd" clip-rule="evenodd" />
        </clipPath>
    </defs>
    <g clip-path="url(#clip0)" transform="translate(-135 -146)">
        <path d="M136 147 188.876 147 255 147 225.26 266 188.876 266 136 266Z" fill="#FFA07A"  fill-rule="evenodd" />
<path d="M198.908 167.589 199.747 167 199.863 167.843 200.625 168.464 201.658 167.814 202.732 169.922 203.259 170.226 203.65 169.847 203.456 170.759 203.965 171.613 204.393 171.288 205.29 171.55 206.848 172.878 206.966 175.104 206.011 175.892 206.417 176.523 207.546 176.904 207.905 178.017 208.926 177.918 210.152 178.669 210.887 178.467 212.021 179.519 213.059 178.386 213.117 178.993 212.349 179.772 213.813 179.671 214.291 178.786 214.978 180.045 215.644 180.357 215.644 180.357 216 180.689 215.549 182.143 214.643 182.848 213.531 185.131 212.498 185.621 211.966 186.831 212.308 187.114 209.314 188.542 209.163 189.667 207.439 191.996 206.861 194.735 206.126 195.279 206.672 196.853 205.473 199.4 205.973 200.557 205.458 201.026 206.591 203.237 206.309 203.998 206.745 204.503 206.123 204.819 206.188 205.468 206.893 205.813 206.384 207.325 206.687 208.036 206.296 208.481 206.603 209.513 206.229 211.352 208.145 213.754 207.645 214.964 208.291 216.204 207.472 216.547 207.578 217.099 207.578 217.099 206.587 217.704 206.365 217.134 205.269 216.674 204.348 217.822 202.493 218.207 202.749 220.977 201.978 222.131 202.319 222.6 201.156 222.601 200.675 223.686 200.263 223.708 200.318 224.533 201.185 225.681 203.038 225.239 203.808 225.553 203.819 224.874 204.707 225.534 205.199 225.412 205.931 226.045 206.152 227.277 207.139 228.089 208.695 227.601 208.385 226.76 208.737 226.267 210.713 225.683 210.713 225.683 213.558 227.969 213.967 229.29 213.334 229.774 214 230.515 213.936 231.146 213.407 231.406 214.943 231.931 214.411 232.362 214.484 233.029 213.861 232.786 213.924 233.427 214.967 233.51 214.012 234.029 213.928 235.506 213.635 235.268 213.44 235.792 213.652 236.789 214.819 238 214.307 238.6 214.863 238.848 214.486 239.465 213.437 239.44 213.223 240.573 212.263 240.316 212.265 241.198 210.747 241.186 209.426 242.447 209.426 242.447 209.15 242.221 208.51 242.941 207.722 242.082 207.2 242.962 207.449 242.398 206.824 242.233 206.841 242.798 206.323 243.164 204.488 242.127 204.122 243.124 205.092 243.466 205.339 244.067 203.558 243.99 203.079 246 202.325 245.574 201.668 245.966 201.217 244.996 201.916 244.962 201.283 244.247 201.692 241.827 202.168 241.789 202.421 239.77 202.011 239.632 202.001 237.898 202.897 234.408 200.585 232.435 199.563 232.795 199.358 234.092 196.443 235.535 196.626 237.388 195.356 237.607 194.093 238.543 194.099 236.91 192.337 236.658 193.25 236.299 192.23 235.621 192.486 235.174 193.253 235.3 192.695 234.152 190.736 234.55 189.887 233.612 188.706 233.579 190.297 234.779 189.087 235.432 190.276 236.073 189.999 236.983 189.082 237.224 188.766 236.437 188.125 236.151 186.59 236.429 187.35 237.087 186.126 237.866 186.635 238.489 186.364 239.865 187.033 240.247 186.918 241.083 187.546 241.629 186.499 242.426 184.735 240.975 183.937 241.465 182.137 241.064 182.434 240.003 181.426 239.824 181.316 239.436 181.626 239.007 182.139 239.344 182.632 238.208 181.999 237.817 182.708 237.599 182.281 237.104 183.114 236.967 183.015 236.542 183.645 236.078 183.23 235.723 182.583 236.632 182.532 235.93 181.576 235.613 183.481 233.723 184.284 233.84 184.257 234.396 184.836 234.141 183.842 233.001 184.006 232.492 183.137 232.074 183.293 231.137 181.962 230.24 181.29 229.036 180.601 228.443 178.129 228.109 178.294 226.913 175.194 224.797 174.965 223.45 173.669 223.153 173.112 219.898 172.48 219.001 172.788 217.826 171.826 215.672 172.853 214.49 172.741 213.638 171.153 213.5 171.061 212.339 170.029 212.205 170.353 210.806 169.624 210.464 170.445 209.349 170.342 207.588 169.558 207.764 169.294 208.45 168.664 208.213 168.753 206.828 166.762 208.238 165.857 207.425 164.366 208.436 163.739 208.299 162.946 206.979 161.93 207.351 161.141 207.105 160.602 205.109 158.813 204.157 157.057 205.318 154.844 204.923 154.67 205.916 153.713 205.986 153.733 205.169 152.924 203.805 152.372 203.65 152.327 203.058 152.612 202.646 153.363 202.838 154.1 201.182 153.105 200.303 153.914 195.716 153.523 195.337 152.259 195.996 151.14 195.931 151 194.875 152.835 192.98 152.422 192.084 151.827 191.959 152.118 191.094 152.118 191.094 154.778 192.034 154.63 191.601 155.688 190.465 156.378 190.645 157.983 189.897 158.99 190.711 159.653 190.487 159.731 191.198 160.365 190.953 161.907 193.204 163.478 192.655 163.879 191.78 164.283 192.798 163.806 193.375 164.343 193.93 163.991 194.411 165.319 195.033 165.347 194.094 165.907 193.635 166.918 195.736 166.143 196.387 166.176 197.294 165.397 197.901 165.719 198.692 166.715 199.261 166.762 200.722 168.271 200.191 168.446 199.698 167.949 199.174 168.721 197.707 169.401 197.984 169.088 197.146 169.99 196.723 171.352 194.383 172.754 195.542 173.683 195.401 173.94 195.964 174.864 195.873 175.117 195.223 176.615 195.659 176.791 194.363 178.156 193.957 178.665 194.401 179.35 194.274 180.395 195.857 182.174 196.237 183.271 195.639 183.646 195.867 184.519 194.434 185.324 194.661 187.935 192.899 186.742 192.424 186.361 191.452 187.143 191.076 186.873 189.32 187.383 189.059 187.028 188.796 188.205 187.175 186.866 186.436 187.31 186.434 187.143 185.853 188.126 186.825 189.617 187.087 190.159 186.614 189.679 186.088 191.012 186.617 191.254 185.883 190.825 185.261 191.432 184.798 192.303 187.27 193.108 187.356 193.321 187.856 194.44 187.317 194.894 187.892 195.399 187.768 195.932 187.149 196.186 184.708 195.466 184.484 195.627 184.099 195.044 183.477 193.975 184.192 194.289 183.271 195.582 183.133 196.928 181.784 197.771 181.614 198.257 180.962 197.692 180.828 197.46 180.134 198.659 179.03 199.711 179.689 200.209 179.151 201.203 180.314 201.203 180.962 202.182 180.255 201.381 178.975 201.383 177.913 202.037 177.095 201.303 176.549 201.894 175.1 200.754 174.099 200.829 173.153 200.259 173.728 199.947 172.992 199.947 172.992 200.121 171.084 200.121 171.084 200.508 170.381 200.112 169.399 198.892 168.321Z" fill="#ffffff" fill-rule="evenodd"/></g></svg>