<svg width="120" height="120" xmlns="http://www.w3.org/2000/svg" xmlns:xlink="http://www.w3.org/1999/xlink"
    overflow="hidden">
    <defs>
        <clipPath id="clip0">
            <path d="M135 146 256 146 256 267 135 267Z" fill-rule="evenodd" clip-rule="evenodd" />
        </clipPath>
    </defs>
    <g clip-path="url(#clip0)" transform="translate(-135 -146)">
        <path d="M136 147 188.876 147 255 147 225.26 266 188.876 266 136 266Z" fill="#FFA07A"  fill-rule="evenodd" />
<path d="M151.005 190.701 154.764 191.121 157.368 190.589 158.408 190.302 159.505 188.585 160.443 189.076 161.527 191.57 162.047 191.124 162.15 190.447 162.722 191.017 162.612 190.317 162.878 190.162 163.381 190.545 163.682 190.202 164.063 190.63 164.458 190.226 164.271 189.991 164.679 189.958 165.254 191.163 164.7 191.582 164.683 192.152 165.324 192.525 165.059 192.673 165.417 193.199 166.215 193.315 166.908 193.897 166.82 194.425 167.458 194.287 168.131 195.268 168.68 194.271 168.612 193.572 169.372 193.424 169.487 192.884 170.964 193.239 171.319 192.047 173.322 190.654 173.963 190.996 173.995 192.12 174.782 191.924 175.089 193.65 176.302 193.577 176.678 192.886 177.761 192.832 178.153 192.36 177.969 193.372 178.382 193.515 179.758 192.558 179.436 191.923 181.695 191.268 181.704 190.707 185.213 190.249 185.761 190.749 186.08 189.973 186.621 189.973 186.764 189.253 188.279 189.654 188.019 187.65 188.829 187.146 189.519 185.062 190.216 185.514 191.945 185.489 193.194 186.791 194.919 185.884 194.72 186.615 195.537 186.52 196.189 187.304 196.342 189.243 197.403 189.593 197.788 189.086 198.592 189.77 199.603 189.613 199.279 190.105 199.424 191.054 198.851 191.939 200.083 192.287 201.198 193.515 201.829 193.716 202.063 192.703 202.455 192.644 202.749 190.878 203.454 190.548 204.422 189.213 205.548 190.06 206.635 189.771 206.967 188.967 207.419 188.933 207.912 189.415 207.818 189.985 208.449 189.916 208.752 190.254 209.127 189.933 209.725 190.478 209.5 189.567 210.051 188.493 212.121 189.181 212.916 185.466 212.605 185.069 213.223 184.433 213.851 184.378 213.974 183.858 213.779 181.207 214.889 179.958 215.564 179.647 216.261 179.964 216.818 177.402 217.617 177.747 217.994 177.317 219.376 177.947 219.385 177.061 219.782 176.647 219.538 176.021 220.539 176.28 220.672 175.334 221.234 175 221.695 175.71 223.024 175.733 223.43 176.763 224.73 176.959 224.804 177.452 224.804 177.452 224.613 179.927 226.342 181.136 227.882 183.018 228 183.651 226.548 184.483 226.711 185.027 226.181 185.056 226.336 185.615 225.955 186.175 225.624 186.196 225.664 185.727 225.329 186.144 225.701 186.674 226.752 186.991 226.508 187.898 226.969 188.193 226.472 188.802 226.766 189.07 226.268 189.105 226.909 189.427 226.52 190.021 225.846 190.243 224.491 189.657 225.126 190.355 224.934 191.386 225.132 191.013 225.411 191.321 224.754 192.843 225.19 192.994 224.265 194.952 223.475 195.172 222.976 196.04 222.191 196.115 222.225 196.703 223.169 197.185 223.117 197.875 221.05 197.765 221.707 198.272 221.047 198.694 221.166 199.103 219.746 198.532 219.705 199.733 220.037 199.965 219.559 200.462 218.718 200.563 219.132 201.073 217.389 200.546 216.895 200.797 216.679 200.636 216.972 200.131 215.347 199.938 215.752 201.363 216.274 201.561 216.321 202.644 215.906 203.13 215.524 202.483 215.429 204.016 215.014 203.929 214.498 203.738 214.62 203.484 213.506 203.243 214.117 204.141 213.813 204.618 213.389 204.606 210.684 203.274 210.159 203.662 209.447 202.997 209.107 203.33 209.037 203.675 208.17 204.297 207.69 203.917 208.152 205.249 207.676 206.643 206.748 206.829 206.637 206.522 205.986 206.508 204.228 206.951 203.144 207.749 201.616 207.737 201.612 208.125 200.602 208.593 200.207 209.374 200.134 210.255 200.448 210.515 199.212 211.251 199.455 211.542 199.209 211.698 198.84 211.299 198.232 211.707 197.913 211.403 198.156 210.76 197.85 211.019 196.552 210.697 196.539 208.906 194.854 208.602 194.234 209.211 194.861 210.308 193.083 211.046 191.743 210.75 191.689 211.889 192.254 212.632 191.747 212.74 191.949 213.516 191.06 214.66 191.151 215.942 191.597 215.957 192.586 217.178 194.683 216.913 194.874 217.572 196.398 218.053 196.63 218.848 197.704 219.772 199.18 219.369 200.811 220.103 201.21 219.716 202.605 219.808 202.862 220.253 203.344 219.858 202.967 220.666 202.385 220.855 202.142 220.57 201.495 221.06 202.014 221.564 201.495 222.244 201.208 223.822 202.764 225.232 203.326 224.873 204.679 225.76 205.261 227.592 207.123 227.656 207.789 229.036 207.627 229.492 206.873 229.47 207.163 230.416 208.568 230.963 208.314 232.303 209.296 232.873 209.286 233.661 208.094 233.713 208.017 233.439 207.982 233.924 207.815 234.38 207.399 234.377 207.246 234.423 206.484 234.35 206.484 234.35 205.251 234.014 205.156 233.487 204.215 233.235 204.001 232.804 203.208 232.797 202.65 231.996 201.591 232.325 201.504 232.734 200.118 231.912 198.863 230.036 195.895 229.298 194.71 227.821 194.427 228.629 193.519 229.018 193.248 229.84 194.199 230.434 194.414 231.357 193.926 232.048 194.4 232.212 194.193 232.577 194.793 232.648 193.529 233.824 194.508 234.912 194.056 236.338 193.061 238.018 192.538 238.285 192.421 239 189.932 238.568 190.4 236.932 191.136 236.937 190.642 236.304 188.568 237.465 187.934 236.688 187.013 236.985 186.127 236.757 183.629 235.409 183.093 235.485 183.005 236.14 182.401 236.039 182.006 236.374 180.816 238.37 180.47 237.569 179.81 237.101 179.782 237.474 179.519 237.059 178.889 237.134 178.485 236.516 177.599 236.306 176.883 236.882 176.497 236.793 177.251 236.282 178.056 233.284 178.813 232.941 178.805 232.496 178.356 232.499 178.443 231.994 178.117 231.853 177.918 229.42 176.063 230.161 175.937 229.932 175.016 230.552 174.719 230.078 173.963 230.395 173.536 230.011 172.589 230.102 172.436 230.612 168.699 230.513 167.84 230.777 167.856 231.196 167.344 231.281 166.969 231.848 164.614 232.064 163.881 231.382 162.978 231.418 162.261 230.872 161.961 229.56 159.682 228.623 159.682 228.623 159.725 227.709 161.021 226.452 162.217 226.492 163.434 225.844 163.516 224.599 164.012 224.076 164.546 224.069 165.307 222.261 166.002 222.168 166.331 220.771 166.013 220.088 164.431 220.348 164.308 219.828 163.373 220.062 162.906 219.172 162.184 220.298 161.865 218.084 160.218 217.011 160.847 213.398 160.385 212.567 159.751 212.967 159.05 212.432 159.114 211.03 160.028 209.351 159.759 207.686 158.57 207.873 158.524 208.996 155.765 208.307 154.73 206.735 154.983 205.368 154.398 204.12 152.089 203.319 152.346 202.912 151.772 202.65 151.152 200.184 150.134 199.914 149.751 199.131 148 198.797 148 198.797 149.348 195.669 148.901 194.744 150.199 193.791 149.83 193.047 149.318 192.954 148.996 192.06 149.196 191.192Z" fill="#ffffff" fill-rule="evenodd"/></g></svg>