<svg width="120" height="120" xmlns="http://www.w3.org/2000/svg" xmlns:xlink="http://www.w3.org/1999/xlink"
    overflow="hidden">
    <defs>
        <clipPath id="clip0">
            <path d="M135 146 256 146 256 267 135 267Z" fill-rule="evenodd" clip-rule="evenodd" />
        </clipPath>
    </defs>
    <g clip-path="url(#clip0)" transform="translate(-135 -146)">
        <path d="M136 147 188.876 147 255 147 225.26 266 188.876 266 136 266Z" fill="#FFA07A" fill-rule="evenodd" />
        <path
            d="M162.148 170.841 162.739 171.171 163.701 171.053 163.834 170.686 164.402 170.549 164.766 170.074 165.389 170 165.417 170.642 165.901 170.836 166.268 171.365 166.011 172.542 166.093 173.474 166.537 173.571 166.607 173.991 169.115 174.818 170.311 174.591 171.995 175.347 172.614 176.564 173.746 177.127 174.607 177.072 174.631 177.377 175.274 177.215 175.674 177.45 176.429 177.32 177.29 177.57 177.947 177.311 178.643 177.479 180.961 177.257 181.832 177.322 182.736 177.799 183.235 177.553 183.889 178.878 183.729 179.121 184.035 179.696 183.971 179.898 183.4 179.969 184.034 180.891 185 180.776 185.212 180.999 186.234 180.976 187.058 180.543 187.433 179.606 188.902 179.646 189.309 178.61 188.914 178.002 190.639 176.483 190.721 176.214 190.409 175.835 190.678 175.632 190.759 174.969 191.172 175.02 191.373 174.767 191.902 174.931 193.751 173.518 194.674 173.628 194.822 173.467 195.21 173.853 195.396 173.576 196.028 173.502 196.061 173.057 198.104 172.956 198.825 173.771 199.139 174.627 199.136 175.372 199.526 175.602 199.092 175.752 197.91 175.442 197.472 175.713 197.703 176.409 198.037 176.593 198.229 177.509 199.281 177.662 199.501 177.632 199.465 177.326 199.999 177.328 200.174 177.581 200.432 177.285 200.585 177.724 200.894 177.659 201.067 177.416 201.537 177.358 201.601 177.11 202.492 177.509 203.107 177.403 205.597 176.113 205.722 175.417 206.676 175.278 206.642 175.005 207.053 175.27 207.406 175.049 207.667 175.19 207.867 174.723 208.332 174.916 208.413 176.076 209.26 175.766 209.886 175.914 210.084 176.247 211.541 176.504 211.829 176.166 212.107 176.476 212.241 176.222 213.27 176.27 213.441 176.089 213.831 176.242 213.926 175.938 213.535 175.462 213.788 175.399 213.63 175.028 214.507 174.722 214.67 174.922 215.518 174.949 216.163 174.239 216.941 174.352 217.036 173.505 218.336 174.027 218.829 174.077 219.057 173.882 219.843 174.082 220.362 175.585 221.559 175.435 222.478 174.91 223.822 175.739 224.456 175.813 224.678 175.44 225.295 175.695 226.051 175.465 226.606 174.858 227.397 174.545 228.175 174.707 229.368 175.855 229.807 176.811 229.567 177.167 229.721 177.523 230.121 177.574 230.207 177.225 230.609 177.278 231.771 178.12 232.456 178.051 232.456 178.051 232.633 178.426 232.227 178.981 230.304 179.874 230.045 180.746 230.197 181.444 229.942 181.756 230.286 182.648 231.217 182.628 231.257 184.567 231.631 185.507 230.848 185.84 230.567 186.272 230.894 186.639 231.492 186.325 232.086 186.424 231.694 188.815 232.037 189.526 231.22 189.833 230.883 190.26 229.502 190.58 229.836 191.17 229.535 191.484 229.619 191.699 230.744 191.757 231.202 192.091 231.264 192.596 231.258 193.495 230.986 194.139 230.555 194.174 230.158 193.889 229.754 194.12 229.769 194.424 230.579 194.504 230.739 194.849 230.028 195.518 229.66 195.449 229.629 195.697 230.253 195.716 230.53 195.95 230.433 195.352 231.225 195.414 231.195 195.925 232.557 196.865 232.46 197.779 233.153 197.823 233.643 198.281 234.304 198.345 234.496 198.727 234.86 198.843 235 199.452 233.875 199.896 234.491 200.646 233.457 201.491 232.802 201.528 232.622 201.039 231.955 201.259 231.498 200.19 230.501 200.941 230.085 201.784 229.505 202.034 229.541 202.604 228.873 203.145 228.844 203.903 228.256 204.899 228.256 205.565 229.129 206.757 228.352 207.428 227.98 207.486 228.254 207.96 228.254 207.96 227.545 208.193 227.406 208.441 227.072 208.21 226.562 208.434 225.498 207.406 224.631 207.206 224.22 206.678 224.706 206.359 224.658 204.509 224.459 204.217 223.849 204.361 223.833 203.571 224.752 202.814 224.504 202.179 224.953 201.369 225.074 200.19 224.72 199.466 223.511 198.639 223.048 197.993 222.561 197.884 221.475 198.205 221.025 199.017 220.533 198.832 220.427 198.507 219.647 199.09 218.551 198.248 217.96 198.313 217.858 198.032 217.2 197.776 217.122 198.755 216.8 199.156 216.974 199.428 216.486 199.509 215.677 198.741 214.765 198.605 214.489 198.353 214.075 198.47 214.356 198.09 214.231 197.358 213.658 197.147 213.041 197.277 212.899 196.111 212.243 195.879 211.504 196.016 210.286 195.436 209.45 195.388 209.101 195.714 208.909 195.449 208.061 195.219 207.915 194.73 207.398 194.685 207.217 194.315 206.943 195.069 207.428 195.188 207.738 195.852 207.496 196.623 206.854 196.896 206.68 197.199 207.125 197.872 207.127 198.242 206.781 198.397 207.103 199.558 205.734 200.068 205.895 200.98 205.603 202.067 204.655 201.857 204.319 202.005 204.261 201.674 203.215 200.871 202.264 201.317 202.275 201.522 202.749 201.715 202.334 201.851 202.109 202.514 202.237 202.699 201.942 203.212 202.126 203.731 201.635 203.596 201.576 204.172 201.193 204.05 201.146 204.431 201.254 204.967 201.791 204.956 201.743 205.331 202.186 205.298 202.043 205.764 202.487 205.796 203.145 206.775 202.01 206.943 201.459 208.344 201.148 208.083 200.881 208.437 200.92 209.812 200.067 210.125 199.973 209.835 199.416 209.893 199.457 210.725 199.193 210.617 198.865 210.847 199.286 211.051 198.646 211.256 198.962 211.364 198.577 212.14 199.089 212.495 198.906 212.796 198.906 212.796 198.469 212.623 198.476 212.943 197.993 213.152 197.679 212.625 196.842 212.577 197.396 211.695 196.96 211.557 196.959 211.025 196.661 211.222 196.394 210.956 195.561 211.467 195.613 211.898 195.077 212.554 195.193 212.948 194.808 212.915 194.587 213.643 193.999 213.886 194.142 214.366 193.589 214.37 193.321 214.015 193.225 214.253 192.836 213.961 192.471 214.002 192.13 214.78 192.624 214.995 192.394 215.259 192.477 215.645 192.078 215.718 192.064 217.053 190.837 217.582 190.166 217.247 190.132 217.709 190.679 218.054 190.405 218.5 189.897 218.558 190.025 219.064 189.707 219.188 189.625 219.708 189.329 219.619 188.803 218.711 188.358 219.457 188.358 218.804 187.823 218.817 187.822 219.31 187.419 219.329 187.451 219.925 186.797 220.108 186.656 220.562 185.749 220.667 185.84 221.257 186.121 221.486 185.877 221.8 186.218 221.81 185.74 222.089 185.771 222.5 186.198 222.476 186.077 223.145 186.574 223.209 186.29 223.858 185.975 223.875 185.882 223.431 185.15 223.65 184.81 223.153 184.032 223.445 184.069 224.025 183.933 223.533 183.481 223.246 183.022 223.655 182.761 223.382 181.428 223.722 181.023 223.389 180.954 222.672 180.681 223.027 180.279 222.61 180.037 223.203 179.332 222.62 178.837 222.725 178.69 222.214 178.237 221.993 178.023 222.958 177.621 223.059 177.689 223.432 177.994 223.517 177.917 223.956 178.499 224.428 178.523 225.026 178.155 225.455 178.7 226.309 178.699 226.662 178.325 226.959 178.633 226.967 178.658 227.815 178.339 227.92 177.968 227.711 177.955 227.334 177.591 227.281 177.532 227.777 176.692 228.01 176.426 227.533 176.028 227.779 175.636 227.634 175.102 227.902 174.489 227.877 174.427 228.782 173.704 229.163 173.352 229.144 173.421 228.79 172.897 228.79 172.349 227.946 171.717 228.204 171.7 228.025 170.707 228.031 170.584 228.205 171.019 228.432 170.985 228.741 170.422 228.987 170.55 229.953 169.806 229.944 168.113 230.568 168.091 231.019 167.706 231.44 168.029 231.811 167.515 231.785 167.445 232.133 166.772 232.399 166.528 231.488 165.951 231.562 165.728 231.18 165.675 231.808 164.93 232.1 164.783 232.67 164.488 232.549 164.52 232.343 164.129 232.383 163.964 232.96 163.557 232.483 163.658 232.945 163.306 233.041 163.474 233.252 163.811 232.954 163.772 233.443 164.232 233.52 164.272 234.099 164.558 234.168 164.478 234.499 164.277 234.209 164.087 234.337 164.06 234.943 164.338 235.32 164.177 235.583 164.387 235.316 165.12 235.442 165.134 235.701 166.005 235.997 166.111 236.476 165.818 236.937 165.854 237.606 165.265 237.345 164.547 237.99 164.784 238.189 165.283 237.948 165.65 238.129 164.803 239.688 165.016 240.231 164.82 240.24 164.612 239.795 164.292 240.237 164.776 240.325 164.512 241.112 163.727 241.496 163.273 241.475 163.027 240.979 162.779 241.339 161.983 241.735 162.015 242.176 161.615 242.261 161.933 242.49 161.933 242.49 160.874 243 160.558 242.927 160.241 242.556 159.983 241.47 159.303 241.383 159.12 240.845 158.769 241.513 157.118 241.662 157.118 241.662 156.776 241.423 157.058 241.33 156.149 239.561 155.279 239.281 154.991 238.178 154.691 237.974 154.823 237.785 154.478 236.355 153.971 234.534 153.746 234.512 154.151 234.049 153.722 234.134 153.713 233.66 153.188 232.831 153.203 232.351 153.473 232.239 153.194 231.85 153.443 231.432 153.251 231.395 153.134 229.539 152.765 228.581 152.951 227.526 152.699 227.519 152.837 227.232 152.519 227.06 152.992 226.485 152.645 226.098 152.186 224.369 151.817 224.003 152.171 223.959 152.231 224.2 152.408 223.908 152.009 223.042 151.577 222.807 151.994 222.426 151.781 222.394 151.76 221.674 151.256 221.109 151.592 220.809 151.145 220.192 151.004 219.546 151.232 219.298 150.728 218.26 150.593 217.259 150.458 217.329 150.095 216.725 150.185 216.271 149.663 215.469 149.804 215.237 149.459 214.599 149.639 213.886 149.027 213.6 149.075 212.908 149.389 212.923 149.572 213.354 150.517 213.577 150.373 213.977 150.724 214.378 150.64 213.477 150.361 213.033 149.695 212.999 149.242 212.288 148.843 212.077 148.975 211.718 148.642 210.742 148.999 209.957 148.207 208.199 148.36 206.976 148.867 207.115 149.131 206.711 149.452 207.143 149.584 206.919 149.65 206.279 148.978 206.449 148.777 205.868 149.315 205.795 149.117 205.363 149.293 205.05 149.548 205.18 150.121 204.765 149.803 204.737 149.695 204.083 149.368 204.093 149.29 204.44 148.793 204.854 148.283 204.721 148.094 205.615 147.695 205.994 147.866 205.419 147.524 205.315 147.77 204.446 147.899 204.544 148.025 204.307 147.785 204.269 147.902 203.684 147.398 202.863 147.376 201.578 147.601 200.983 147.155 200.474 147.014 199.482 147.398 199.159 147.464 198.762 147.232 199.01 146.728 198.617 146.669 197.964 146.941 197.942 146.393 195.699 146 195.181 146.012 194.965 146.33 194.887 146.147 194.114 146.708 193.662 146.615 192.54 146.939 191.783 146.939 191.783 147.632 191.915 147.634 191.646 147.994 191.69 147.986 191.219 148.417 190.76 149.453 190.915 149.453 190.915 149.628 191.384 149.483 191.849 149.656 192.05 149.96 191.801 149.882 192.082 150.342 192.571 150.427 192.212 151.279 192.381 151.779 192.741 152.108 191.95 152.108 191.95 152.893 191.634 153.132 190.973 153.582 191.074 153.741 190.903 153.814 191.14 154.415 190.985 154.345 189.312 153.998 188.875 154.413 188.598 155.179 187.153 154.975 187.117 154.964 186.655 154.527 186.522 154.121 185.977 154.523 185.721 154.671 185.197 154.983 185.119 155.154 185.852 155.585 185.618 156.329 186.049 156.647 186.704 157.014 186.899 157.341 186.715 157.851 186.841 158.824 186.285 158.9 185.696 158.655 185.388 159.097 185.382 159.334 184.976 159.715 185.047 160.025 184.831 159.977 183.705 159.436 182.554 159.56 182.058 158.587 181.91 158.493 181.604 158.138 181.744 157.786 181.225 157.898 180.55 156.898 180.616 156.124 179.929 156.393 179.835 156.643 180.335 157.128 180.111 157.726 180.271 157.78 179.938 158.654 179.883 158.757 178.78 159.404 178.838 160.014 178.433 160.061 177.222 160.232 177.342 161.094 177.025 161.296 176.304 161.747 176.695 161.962 176.516 162.974 176.568 163.043 176.331 163.266 176.524 164.109 176.144 164.119 175.619 163.872 175.341 163.488 175.683 163.142 175.515 162.82 175.733 162.583 175.406 161.325 175.407 159.068 176.143 158.675 174.958 158.277 174.649 159.336 174.417 159.452 173.778 158.748 173.053 158.897 172.732 158.525 172.353 162.148 170.841Z"
            fill="#ffffff" fill-rule="evenodd" />
            </g>
</svg>