<svg width="120" height="120" xmlns="http://www.w3.org/2000/svg" xmlns:xlink="http://www.w3.org/1999/xlink"
    overflow="hidden">
    <defs>
        <clipPath id="clip0">
            <path d="M135 146 256 146 256 267 135 267Z" fill-rule="evenodd" clip-rule="evenodd" />
        </clipPath>
    </defs>
    <g clip-path="url(#clip0)" transform="translate(-135 -146)">
        <path d="M136 147 188.876 147 255 147 225.26 266 188.876 266 136 266Z" fill="#FFA07A"  fill-rule="evenodd" />
<path d="M215.322 172 216.625 177.743 214.949 178.725 215.768 179.257 215.989 181.231 217 181.646 216.025 183.606 216.753 185.454 216.753 185.454 213.936 187.97 213.929 189.425 210.963 193.91 212.287 195.097 212.24 196.177 213.292 196.681 212.798 202.279 213.522 203.197 212.689 204.896 212.775 207.114 214.989 208.218 212.297 212.418 209.927 213.656 209.409 214.63 209.205 216.015 210.466 220.104 206.559 223.599 205.951 225.76 204.907 226.432 205.451 227.403 203.563 227.643 202.31 230.077 197.889 231.405 197.889 231.405 196.211 231.184 193.643 229.431 193.587 226.703 194.927 224.539 194.276 224.507 194.942 222.768 194.172 222.531 191.874 225.542 190.81 225.369 189.316 226.447 188.985 228.316 185.356 230.111 184.447 229.469 182.005 229.896 181.326 227.95 180.145 227.846 179.418 229.021 177.833 228.685 177.626 227.679 175.203 226.322 175.06 227.246 173.523 227.794 171.033 227.353 166.912 228.404 166.747 229.909 168.047 229.941 168.214 231.187 165.124 235.061 164.267 235.061 161.386 241 159.575 239.195 157.89 239.433 158.085 238.263 156.927 238.135 156.833 237.009 156.833 237.009 156.082 235.709 156.976 234.381 156.421 232.339 154.18 231.242 152 228.16 155.254 225.001 157.713 224.066 160.206 220.171 164.698 216.889 164.093 214.614 166.273 213.607 166.993 212.497 167.854 214.604 167.224 216.975 167.766 218.171 169.347 216.366 170.72 216.99 171.846 215.429 174.005 214.231 173.171 210.95 174.402 208.505 174.868 204.734 178.374 198.989 180.669 198.319 181.042 193.949 184.106 190.253 184.55 190.054 184.689 193.19 185.458 193.859 186.634 192.141 188.276 191.25 188.563 188.164 190.417 187.37 190.603 186.075 193.223 184.527 194.229 185.276 195.231 183.459 196.052 184.237 198.032 183.711 201.96 180.942 204.815 176.173 206.238 175.43 208.194 176.708 209.406 176.439 212.418 174.872Z" fill="#ffffff" fill-rule="evenodd"/></g></svg>