<svg width="120" height="120" xmlns="http://www.w3.org/2000/svg" xmlns:xlink="http://www.w3.org/1999/xlink"
    overflow="hidden">
    <defs>
        <clipPath id="clip0">
            <path d="M135 146 256 146 256 267 135 267Z" fill-rule="evenodd" clip-rule="evenodd" />
        </clipPath>
    </defs>
    <g clip-path="url(#clip0)" transform="translate(-135 -146)">
        <path d="M136 147 188.876 147 255 147 225.26 266 188.876 266 136 266Z" fill="#FFA07A"  fill-rule="evenodd" />
<path d="M224.275 197.743 226.006 197.754 226.141 198.604 225.178 198.683 225.178 198.683 223.91 199.604 223.674 199.273 223.674 199.273 223.202 199.375 223.535 199.786 222.891 199.688 223.582 197.948 224.275 197.743ZM183.348 170.666 185.238 171.444 185.488 172.533 186.082 172.986 186.831 172.957 187.44 173.523 189.392 173.344 189.703 172.872 190.128 172.8 190.114 172.454 190.827 172.235 193.927 172.317 194.054 171.894 194.839 171.818 195.193 172.137 195.82 171.874 196.066 172.267 196.83 171.753 196.934 171.942 198.473 171.326 198.638 173.347 198.908 173.464 198.837 173.883 199.21 173.881 199.216 174.25 198.589 174.535 197.921 177.025 197.295 177.449 197.616 177.522 198.21 177.044 198.945 177.219 199.279 177.731 199.803 177.669 200.02 178.014 200.043 177.705 200.59 178.093 200.878 178.759 201.865 177.101 202.192 176.824 202.693 176.907 202.765 176.364 203.21 176.301 205.281 177.419 206.016 177.609 206.779 177.362 207.306 178.007 209.025 177.042 209.435 177.569 208.824 177.565 208.437 178.923 210.501 179.282 210.599 178.689 211.032 178.468 211.858 177.073 212.233 175.888 211.421 174.984 212.469 174.007 211.972 173.948 212.143 173.646 211.751 173.509 212.156 172.936 211.977 172.169 211.189 171.676 211.414 170.994 212.167 170.67 212.402 170 213.384 171.226 215.845 171.839 216.886 173.397 218.036 174.079 218.108 173.74 218.986 173.466 219.449 174.131 220.107 174.137 220.285 174.495 221.065 174.705 221.144 175.142 222.166 175.421 222.166 175.421 222.062 176.536 223.13 176.373 223.725 177.287 225.512 177.47 226.374 178.122 226.612 178.931 226.093 180.2 226.554 180.854 227.473 180.93 227.457 180.193 228.382 179.841 228.512 179.176 229.473 179.472 229.866 181.65 231.147 182.086 231.404 182.483 232.453 182.47 232.442 182.964 232.841 183.303 232.667 184.267 233 184.828 233 184.828 231.544 185.804 228.988 185.76 227.747 186.381 225.853 187.888 224.584 189.347 223.589 191.238 223.601 192.095 225.695 196.969 225.515 197.543 224.43 197.347 223.664 197.744 222.892 199.688 223.56 199.776 223.218 199.377 223.675 199.273 223.675 199.273 223.911 199.604 225.179 198.683 225.179 198.683 226.122 198.92 226.766 198.702 223.046 201.371 222.261 203.382 222.979 203.585 222.995 204.289 221.556 205.554 219.752 206.372 217.726 209.032 217.401 209.939 216.734 209.799 215.996 208.656 215.387 208.776 215.228 209.178 216.06 209.217 217.049 210.299 207.051 213.581 203.083 215.613 199.584 218.084 198.505 219.301 196.335 220.899 195.067 222.211 194.171 223.766 193.573 223.393 193.573 223.393 193.214 223.033 193.332 222.551 192.803 222.466 192.748 222.997 191.758 222.967 192.158 223.688 192.649 223.618 192.653 224.056 192.057 224.018 191.7 224.655 191.392 223.862 190.298 224.533 190.045 225.138 189.238 224.641 189.602 225.355 189.244 225.794 189.441 226.164 188.991 226.583 188.527 226.429 188.846 226.711 188.329 226.627 188.616 226.871 188.486 227.116 188.109 226.878 188.056 228.014 185.474 228.261 185.069 228.678 184.482 228.732 183.7 227.858 182.455 227.943 181.462 227.611 180.276 224.723 179.598 225.178 180.176 226.253 179.688 226.095 179.116 225.075 179.365 224.67 178.992 224.599 177.939 222.512 177.525 223.018 177.67 223.507 177.304 224.092 176.842 223.726 176.628 224.768 176.115 224.681 176.088 224.442 176.375 224.473 176.257 223.864 176.09 224.042 175.799 223.667 175.601 223.789 175.866 224.527 175.818 224.845 175.446 224.856 175.546 225.677 174.88 224.908 173.988 224.699 173.402 225.007 173.74 226.114 173.979 225.503 174.471 226.016 173.992 225.962 174.915 226.988 174.701 227.424 174.167 227.405 174.13 227.889 173.035 228.049 172.844 228.544 172.177 228.41 171.973 229.169 171.925 228.768 170.944 228.309 169.774 230.106 169.212 230.336 169.161 231.104 169.817 231.134 169.431 231.415 169.51 231.718 170.322 231.87 169.266 233.288 169.581 233.675 169.879 233.522 169.809 234.337 169.292 234.198 168.086 234.7 167.504 234.464 167.401 233.769 166.834 233.814 166.181 233.365 165.854 233.664 166.097 234.039 165.723 235.007 164.178 235.681 163.723 236.558 163.065 235.932 163.003 235.375 163.5 234.774 163.346 234.438 162.414 234.121 162.679 233.392 162.342 233.443 162.242 232.387 161.9 232.42 161.541 231.887 159.932 233.813 160.263 234.432 159.549 235.219 160.386 235.381 160.084 235.87 159.585 235.991 159.527 236.754 159.146 237.058 159.988 237.906 159.88 238.127 159.534 237.865 159.483 239.408 159.137 239.448 159.028 239.082 158.586 239.289 158.59 240.226 158.226 240.327 157.308 239.86 157.065 239.36 155.129 239.144 154.089 240.139 151.938 240.985 151.328 241.632 151.328 241.632 150.541 242.119 150.329 241.761 149.969 241.88 149.228 242.811 148.623 242.622 147.374 243 147.063 242.669 146 242.943 146 242.943 146.127 241.756 146.746 241.895 147.318 240.473 147.269 239.588 147.766 238.621 147.965 237.639 147.71 237.238 148.041 236.098 148.975 235.459 149.906 235.31 149.898 234.883 151.136 234.791 151.382 233.792 152.749 232.249 153.304 232.016 153.472 231.473 154.019 231.55 154.128 231.132 153.184 230.611 153.141 230.165 154.027 230.492 154.316 229.554 155.258 229.126 155.898 229.227 155.939 228.563 156.619 228.536 157.076 228.03 157.242 226.444 158.195 226.214 157.988 224.629 157.547 223.935 157.804 223.473 157.627 223.063 157.057 222.926 157.328 222.433 156.942 220.809 157.391 219.982 156.787 219.339 157.151 219.277 157.389 218.489 156.48 218.393 156.091 217.082 155.097 217.205 155.436 216.643 155.314 214.117 155.632 212.908 154.495 212.714 154.213 211.812 152.633 210.997 152.457 210.354 152.874 209.037 153.941 208.023 155.127 209.436 155.605 208.825 157.325 209.925 158.069 209.619 159.622 212.191 160.326 211.399 161.091 211.074 163.247 211.663 162.93 212.308 163.127 213.093 163.992 212.262 164.806 212.176 165.017 211.568 164.775 211.223 164.874 209.74 163.794 209.589 163.318 209.81 160.356 208.677 160.186 207.374 160.681 206.491 160.56 205.552 160.904 205.253 160.398 204.448 160.903 203.062 160.63 202.332 160.317 202.651 160.208 201.771 159.403 201.094 160.033 200.016 159.561 197.947 159.724 196.018 160.506 196.348 160.707 196.902 161.328 196.943 161.708 195.717 162.668 195.132 163.658 193.666 163.473 193.133 163.981 192.66 163.852 191.926 165.512 191.767 166.034 192.082 166.371 191.785 167.324 191.931 168.42 191.523 169.626 192.397 170.757 192.672 171.76 192.14 172.163 190.217 172.966 189.823 172.673 189.411 172.9 188.443 174.395 188.985 174.793 188.854 174.666 188.065 174.045 187.377 173.822 186.581 174.48 184.767 175.343 184.202 175.508 184.884 175.962 184.569 175.037 183.804 175.956 182.774 175.715 182.135 176.054 181.642 176.704 181.962 176.628 181.372 177.388 181.19 177.204 180.753 177.617 180.149 176.944 179.817 176.684 179.332 176.73 177.906 177.614 177.748 177.027 177.153 178.263 175.276 178.937 174.952 179.79 174.993 181.335 173.423 183.378 173.051 183.911 171.55 182.977 170.957 183.034 170.648 183.348 170.666Z" fill="#ffffff" fill-rule="evenodd"/></g></svg>