<svg width="120" height="120" xmlns="http://www.w3.org/2000/svg" xmlns:xlink="http://www.w3.org/1999/xlink"
    overflow="hidden">
    <defs>
        <clipPath id="clip0">
            <path d="M135 146 256 146 256 267 135 267Z" fill-rule="evenodd" clip-rule="evenodd" />
        </clipPath>
    </defs>
    <g clip-path="url(#clip0)" transform="translate(-135 -146)">
        <path d="M136 147 188.876 147 255 147 225.26 266 188.876 266 136 266Z" fill="#FFA07A"  fill-rule="evenodd" />
<path d="M193.911 167 193.46 168.695 195.161 170.954 193.311 171.883 191.06 174.495 188.676 175.462 188.627 176.686 189.498 177.192 187.759 179.243 188.173 179.628 189.237 179.353 190.084 179.74 192.062 181.398 194.371 182.496 195.983 185.829 194.943 185.763 196.638 189.96 199.795 195.666 199.408 196.946 200.063 197.444 200.2 198.294 202.781 197.989 202.779 197.425 203.631 197.161 203.195 195.951 204.102 195.627 204.185 194.996 204.522 196.226 205.968 198.312 205.609 198.879 206.355 198.209 206.812 199.11 207.35 198.873 207.431 199.381 207.83 198.852 207.784 199.551 208.528 198.946 209.179 199.66 208.739 200.505 209.69 200.242 209.888 200.588 208.944 201.325 208.921 202.673 209.684 203.1 209.124 204.484 209.356 205.688 211.503 206.682 212.703 208.074 212.703 208.074 212.686 208.801 213.915 209.873 214.314 210.849 213.924 211.547 213.924 211.547 213.19 211.48 213.253 211.013 212.691 211.225 212.483 210.689 211.044 211.638 211.79 213.199 213.216 213.845 213.749 213.444 213.749 213.444 214.063 214.174 214.637 213.603 214.561 214.543 215.71 215.538 215.115 216.978 215.854 217.521 215.196 218.333 215.194 219.389 216 220.661 215.015 221.363 215.015 220.719 214.013 219.564 213.511 220.098 212.452 219.444 211.243 220.541 211.477 221.231 212.046 221.364 211.557 222.012 210.708 222.18 209.351 223.521 208.049 223.658 207.733 224.573 208.81 223.863 209.397 224.481 209.235 224.863 209.961 225.087 209.705 227.512 209.167 228.127 208.659 228.251 208.201 227.679 207.074 228.214 206.859 227.719 206.048 227.632 205.171 225.175 204.559 225.636 204.992 226.254 204.747 226.983 203.405 226.458 203.888 226.98 203.343 227.451 201.84 227.19 200.85 226.224 201.019 226.802 200.572 226.804 201.92 227.538 200.735 229.149 201.092 229.41 200.579 229.669 200.85 231.414 200.063 231.788 200.447 232.754 201.648 233.226 199.018 234.977 198.207 234.751 197.327 236.175 196.949 235.949 195.845 236.543 194.052 236.165 193 234.593 192.309 234.718 191.797 234.279 190.422 234.682 190.245 235.969 188.735 235.535 188.481 236.181 187.549 236.272 187.29 235.713 186.355 235.852 184.942 234.701 183.571 237.026 182.661 237.447 182.978 238.279 182.292 238.004 181.514 239.462 182.015 239.983 181.839 240.473 180.318 241 180.272 239.548 179.268 238.983 178.944 238.197 179.728 237.594 179.695 236.693 180.476 236.046 179.457 233.958 178.893 234.413 178.865 235.348 177.527 234.729 177.882 234.251 177.34 233.7 177.822 233.126 177.414 232.114 177.01 232.984 175.428 233.529 173.874 231.293 173.236 231.536 173.157 230.829 172.489 231.052 171.475 230.243 169.858 230.986 169.163 230.807 168.097 231.937 168.246 232.366 165.567 231.432 165.567 231.432 152.417 230.787 152.494 228.934 153.999 227.137 153.991 225.351 153.991 225.351 153.814 223.737 152 221.148 152.673 219.979 153.185 219.878 153.342 218.859 153.915 218.988 154.355 217.947 155.408 217.08 156.322 217.246 156.119 216.627 156.637 216.13 156.603 215.22 156.977 215.393 157.175 214.749 157.857 214.738 159.558 212.622 160.598 212.364 160.187 211.445 160.925 211.086 160.68 210.676 161.317 209.508 162.298 209.551 162.351 208.585 163.411 208.083 164.551 206.621 165.966 205.949 166.39 204.143 167.733 204.642 168.774 204.289 169.239 203.46 168.881 202.601 167.915 202.829 167.711 202.445 167.102 202.534 166.957 203.465 166.255 203.701 166.077 202.819 165.263 202.409 165.4 199.136 166.254 198.496 168.143 194.539 167.815 193.884 166.546 193.515 167.342 192.721 167.28 191.892 165.529 188.083 165.546 187.535 166.252 187.337 166.348 185.476 167.268 184.069 167.735 184.183 168.516 183.274 169.424 183.11 169.548 182.295 170.108 182.802 170.355 182.435 171.642 182.364 171.835 181.321 172.814 180.668 172.967 180.011 174.088 179.639 175.742 180.548 178.073 179.214 179.082 179.581 179.729 178.379 180.647 179.108 183.243 175.462 183.324 174.618 182.388 172.921 182.388 172.921 184.329 173.245 185.528 172.854 185.434 173.411 185.905 173.594 186.136 174.439 186.721 172.635 190.54 170.92 191.26 169.478 192.483 169.213Z" fill="#ffffff" fill-rule="evenodd"/></g></svg>