<svg width="120" height="120" xmlns="http://www.w3.org/2000/svg" xmlns:xlink="http://www.w3.org/1999/xlink"
    overflow="hidden">
    <defs>
        <clipPath id="clip0">
            <path d="M135 146 256 146 256 267 135 267Z" fill-rule="evenodd" clip-rule="evenodd" />
        </clipPath>
    </defs>
    <g clip-path="url(#clip0)" transform="translate(-135 -146)">
        <path d="M136 147 188.876 147 255 147 225.26 266 188.876 266 136 266Z" fill="#FFA07A" fill-rule="evenodd" />
        <path
            d="M159.973 199.805 160.241 199.368 159.492 198.854 160.056 197.728 159.594 197.571 160.53 197.273 159.914 196.979 160.393 196.644 160.781 196.801 160.721 195.594 161.535 195.511 161.674 195.929 162.92 195.475 162.863 193.481 163.254 192.969 163.709 193.347 164.515 191.316 166.176 191.072 165.212 189.651 164.563 189.605 164.772 188.93 164.124 188.976 164.194 188.434 163.408 188.45 163.251 187.671 163.318 187.119 163.879 187.296 163.965 186.46 164.684 186.656 164.414 185.904 164.846 185.159 164.659 184.892 164.988 183.93 165.594 183.732 164.902 183.453 164.885 183.155 166.276 182.507 167.806 183.672 167.891 184.152 168.382 183.937 169.77 184.242 170.197 182.665 169.961 181.343 171.963 180.604 171.492 178.92 171.999 178.695 171.996 178.159 171.344 177.183 171.598 176.743 172.538 176.347 172.892 175.229 172.438 174.265 171.729 174.094 172.131 173 172.395 173.536 173.152 173.601 173.365 174.311 174.605 174.644 174.886 175.029 175.397 174.556 176.62 174.625 178.401 175.466 179.482 175.267 180.442 175.605 180.65 177.295 181.553 177.106 182.39 177.413 182.573 178.475 182.163 179.025 182.768 178.856 183.171 179.222 184.506 179.42 185.689 180.534 186.402 180.416 186.148 180.021 186.619 179.44 186.734 178.02 187.696 178.392 187.845 178.799 188.71 178.705 190.312 179.925 191.453 179.08 191.609 179.551 192.329 179.82 192.987 178.642 194.576 178.177 195.288 178.335 195.965 179.272 197.734 180.471 198.252 181.52 198.075 183.231 197.417 184.405 197.781 185.327 196.436 186.425 196.46 187.571 197.353 187.361 197.644 187.784 197.715 190.468 197.004 190.932 197.604 191.696 198.874 191.987 200.429 193.478 201.176 193.152 201.663 193.488 201.868 193.128 202.904 192.79 202.904 192.79 204.079 194.955 206.316 194.27 208.673 196.067 208.959 196.833 209.719 197.429 209.595 197.703 210.156 197.873 209.994 198.301 210.441 199.628 211.129 200.418 210.262 200.996 210.283 201.77 211.283 201.859 211.784 200.746 212.383 201.186 212.078 201.345 212.296 202.41 214.061 201.829 213.591 203.258 214.989 208.033 215.639 208.089 216.997 207.002 218.489 207.665 220.558 207.756 220.558 207.756 221.734 207.459 222.077 207.818 223.461 207.407 224.131 207.612 224.95 206.604 225.35 206.475 225.584 206.863 226.455 206.334 226.455 206.334 227 207.003 226.836 207.341 223.585 209.074 223.499 209.699 222.421 211.303 222.749 211.633 222.397 212.129 222.271 213.609 221.042 215.035 220.35 215.106 219.605 214.561 218.697 215.715 217.344 215.678 217.048 217.142 215.212 217.448 214.338 218.005 212.981 217.653 213.107 218.556 212.428 218.55 212.246 220.107 211.829 220.518 210.143 219.883 208.783 220.037 209.052 219.505 207.527 218.685 206.516 219.177 206.296 220.117 205.728 220.659 205.322 220.532 204.919 219.671 204.476 220.014 204.819 220.707 204.338 221.415 206.384 222.282 206.44 221.781 207.907 222.134 207.948 222.991 207.604 223.071 207.439 223.792 208.222 224.395 207.57 224.8 205.888 224.359 205.828 223.946 204.993 223.386 204.57 224.016 204.344 223.301 203.722 223.04 203.439 221.656 202.82 220.763 201.858 220.723 201.555 220.203 200.793 221.176 199.403 221.502 198.829 222.448 198.547 223.165 199.201 223.342 199.779 223.974 199.435 225.089 198.017 226.767 197.131 226.836 196.496 225.853 195.681 225.979 195.122 225.343 193.118 226.442 190.735 226.955 189.619 227.736 187.084 228.078 186.44 228.945 186.335 233.31 185.67 233.675 183.369 233.211 181.704 233.915 181.387 234.246 181.467 235.491 180.869 235.411 180.715 234.714 180.319 234.655 180.298 235.78 179.327 236.816 178.358 236.766 176.831 235.593 175.915 236.284 173.491 235.885 172.079 236.726 171.138 236.69 170.843 238.349 169.927 238.813 169.684 239.647 169.071 239.647 168.814 240 168.089 239.719 167.656 238.786 167.112 239.481 165.309 238.886 163.911 239.382 162.598 239.037 161.695 239.2 160.865 238.63 159.333 238.482 159.333 238.482 159.344 237.162 159.038 236.702 159.333 235.519 158.974 235.32 158.926 234.626 159.354 233.574 159.007 233.557 158.988 233.144 159.203 232.851 159.717 232.935 160.211 232.366 160.611 232.543 160.631 231.719 159.097 231.097 157.79 231.309 156.703 231.033 155.783 230.655 155 229.597 155.898 229.506 155.971 229.217 157.072 229.337 157.274 228.904 157.846 228.788 157.469 228.018 158.618 227.708 158.701 226.688 158.125 226.839 157.866 226.43 158.631 226.177 158.66 225.629 157.974 225.587 158.197 224.47 158.728 224.536 158.448 222.419 159.175 220.816 158.594 219.239 156.973 218.3 157.585 217.531 157.294 217.351 158.465 216.435 158.142 216.232 158.419 214.889 159.17 215.158 159.627 214.863 159.745 214.341 159.345 213.962 160.33 213.925 160.341 213.521 160.932 213.685 160.937 213.264 161.403 213.165 161.597 212.719 161.523 213.08 162.091 213.216 162.116 212.68 160.634 212.239 160.603 211.746 159.949 211.964 159.617 211.575 159.209 212.104 159.026 211.689 158.235 211.441 158.4 209.643 160.164 208.73 160.226 208.451 159.255 208.15 159.356 207.841 159.594 207.424 159.969 207.569 160.333 206.671 160.712 206.709 160.53 206.09 161.025 206.178 161.139 205.279 161.459 205.466 161.607 205.089 161.493 204.698 160.642 204.42 159.907 203.704 160.773 202.956 160.729 202.095 160.2 201.297 160.812 200.024Z"
            fill="#ffffff" fill-rule="evenodd" />
            </g>
</svg>