<svg width="120" height="120" xmlns="http://www.w3.org/2000/svg" xmlns:xlink="http://www.w3.org/1999/xlink"
    overflow="hidden">
    <defs>
        <clipPath id="clip0">
            <path d="M135 146 256 146 256 267 135 267Z" fill-rule="evenodd" clip-rule="evenodd" />
        </clipPath>
    </defs>
    <g clip-path="url(#clip0)" transform="translate(-135 -146)">
        <path d="M136 147 188.876 147 255 147 225.26 266 188.876 266 136 266Z" fill="#FFA07A"  fill-rule="evenodd" />
<path d="M202.956 230.188 203.31 230.456 202.99 230.918 203.168 231.245 204.937 232.887 202.744 231.483 201.437 231.369 201.277 230.999 201.527 230.765 202.261 230.748 202.956 230.188ZM185.994 175.61 186.096 176.21 185.515 176.753 186.674 176.584 187.078 177.208 188.288 177.867 189.707 177.777 189.676 177.058 190.156 177.042 190.232 176.398 190.498 176.425 190.582 176.397 190.713 176.78 191.074 176.685 191.042 175.75 191.607 175.318 192.287 172.938 192.613 172.941 192.1 171.98 192.682 171.354 193.345 171.571 193.48 170.74 194.157 170.913 196.177 170.257 196.269 171.325 196.933 171.342 196.448 171.077 196.773 170.553 197.786 170.413 199.177 171.414 200.476 171.523 201.039 170.281 201.495 169.971 201.496 169.463 202.258 169.372 202.888 170.083 203.613 169.556 203.508 169.022 204.688 168.63 204.655 168.291 205.026 168.159 204.88 167.949 204.487 168.234 204.708 167.121 203.924 166.772 204.767 166.442 206.428 166.644 206.629 167.35 207.119 167.7 208.491 167.112 208.565 167.955 208.918 167.883 208.805 168.31 209.335 168.077 209.669 168.51 210.299 168.051 209.31 167.267 209.82 166.776 210.219 167.109 210.538 166.751 211.328 166.765 212.483 166.243 212.919 165.63 212.592 165.144 213.07 164.926 213.048 164.389 213.569 164.257 213.732 163.802 214.201 163.855 214.15 163.576 213.488 163.443 213.55 163.128 214.72 163 216.004 163.945 217.22 163.977 217.93 165.388 218.491 165.706 218.49 164.853 218.49 164.853 219 167.252 218.288 169.403 217.602 175.12 216.083 180.144 211.853 186.626 211.12 188.615 211.12 188.615 210.502 188.247 209.554 189.148 209.225 188.185 209.798 187.993 209.52 187.756 209.071 188.026 208.655 187.356 208.117 187.884 208.117 187.884 208.117 187.884 208.117 187.884 208.966 188.112 208.641 188.679 209.074 188.804 209.367 189.399 209.22 189.663 208.714 189.188 208.344 189.812 209.039 190.25 209.754 189.894 209.79 190.47 210.251 190.218 210.54 190.728 210.54 190.728 209.867 194.636 211.127 197.97 211.382 204.009 211.382 204.009 210.556 203.847 210.277 204.148 209.477 203.834 209.688 204.53 209.037 204.394 209.398 205.26 210.674 205.739 210.741 206.588 211.33 206.594 211.33 206.594 211.766 214.823 211.088 215.158 209.646 215.163 204.096 214.5 202.685 215.392 201.662 217.242 201.653 218.072 202.258 218.933 200.513 220.61 199.996 221.844 198.011 224.164 197.087 225.763 196.522 227.785 197.161 228.957 199.09 230.635 201.062 230.933 199.56 231.277 197.406 231.078 196.133 231.33 193.872 232.087 193.729 232.382 192.788 232.347 192.546 232.642 192.779 232.897 191.55 233.316 188.947 233.624 185.814 236.039 185.188 237.261 185.011 239.011 185.473 238.933 186.142 239.372 185.197 239.447 184.196 240.91 184.066 242.022 184.722 241.904 184.593 243.354 183.578 244.575 183.337 245.199 183.608 245.352 179.522 247.288 178.633 248.408 175.974 249.065 175.589 250 171.938 249.298 168.528 246.5 168.528 246.5 168.923 246.106 169.51 246.272 169.124 245.227 170.284 244.292 169.927 243.412 170.875 243.285 171.149 242.714 169.443 239.549 169.773 239.59 170.365 238.945 170.805 237.623 170.21 236.702 169.833 236.729 169.83 236.234 169.084 235.207 169.859 234.816 170.073 233.993 170.942 233.13 170.706 232.556 171.175 232.086 171.175 230.786 171.444 230.206 171.866 230.199 172.223 228.563 172.911 228.251 173.186 227.525 172.476 227.053 172.326 225.963 172.076 226.468 171.757 225.995 170.991 226.44 170.073 225.819 169.389 225.789 169.98 224.051 170.264 223.953 170.288 223.029 170.664 222.892 170.275 222.479 170.504 221.932 170.123 221.662 170.676 220.442 171.054 220.274 170.884 219.213 169.947 218.064 171.066 217.642 171.387 216.241 170.86 216.029 170.922 215.503 170.362 214.675 170.481 214.126 169.561 214.031 167.835 214.998 167.628 215.591 166.575 216.219 165.56 215.963 164.889 215.29 164.921 214.924 164.521 215.122 164.227 214.842 164.533 213.818 164.036 212.94 164.384 210.233 164 209.576 165.05 209.527 164.785 208.797 165.437 207.277 165.294 206.814 164.55 206.69 164.195 205.828 161.578 204.835 162.47 203.127 163.805 202.952 162.945 202.87 162.97 201.694 162.231 201.324 162.765 200.298 162.321 199.94 161.172 200.668 159.069 200.395 158.527 200.755 158.428 199.954 159.885 198.966 159.854 198.021 159.408 198.1 158.459 197.546 157.869 196.713 156.677 196.312 156.478 196.536 155.812 196.059 155.223 196.297 155 194.625 155.702 194.17 156.121 194.626 156.932 194.332 157.397 193.698 158.092 193.683 158.071 193.108 158.071 193.108 158.505 193.174 159.326 192.49 159.888 192.929 160.194 193.894 163.087 193.887 164.178 194.1 164.501 194.462 164.713 194.026 164.365 193.35 165.471 191.127 166.401 191.417 166.606 190.843 167.098 190.812 167.521 191.117 167.377 191.424 167.908 191.225 168.143 192.057 168.728 192.252 168.627 191.449 170.558 191.12 170.786 190.821 171.456 190.887 172.097 191.516 172.616 191.2 173.545 191.648 174.12 190.235 174.066 189.445 174.44 189.646 174.557 188.744 177.293 188.652 177.743 187.505 178.971 185.975 178.317 184.988 174.267 184.428 174.337 183.474 175.464 183.124 176.413 182.002 176.666 181.126 176.745 180.023 175.971 180.166 176.453 179.663 176.02 179.547 175.888 178.731 176.32 177.72 176.204 177.135 177.198 176.868 177.572 177.271 177.967 176.876 178.396 177.032 179.454 175.062 179.227 174.308 181.291 173.593 181.551 173.952 181.159 174.498 181.401 174.632 181.724 174.06 182.281 174.922 182.592 174.925 182.801 174.115 183.295 174.172 184.444 175.333 185.994 175.61Z" fill="#ffffff" fill-rule="evenodd"/>
</g>
</svg>