<svg width="120" height="120" xmlns="http://www.w3.org/2000/svg" xmlns:xlink="http://www.w3.org/1999/xlink"
    overflow="hidden">
    <defs>
        <clipPath id="clip0">
            <path d="M135 146 256 146 256 267 135 267Z" fill-rule="evenodd" clip-rule="evenodd" />
        </clipPath>
    </defs>
    <g clip-path="url(#clip0)" transform="translate(-135 -146)">
        <path d="M136 147 188.876 147 255 147 225.26 266 188.876 266 136 266Z" fill="#FFA07A" fill-rule="evenodd" />
<path d="M200.825 172.06 202.691 172.904 202.691 172.904 202.693 174.866 204.381 178.503 201.951 184.334 205.364 184.225 205.364 184.225 207 188.926 206.076 193.942 206.683 195.961 205.967 197.26 206.769 199.438 206.323 201.494 205.173 201.242 204.473 202.244 204.961 203.683 203.846 203.765 204.218 207.619 204.218 207.619 203.36 207.819 202.407 210.8 202.148 209.113 200.879 208.427 200.627 207.001 199.926 207.126 196.16 211.367 194.224 210.771 192.615 207.57 191.741 207.661 190.934 209.707 192.271 218.597 190.914 219.191 190.912 220.594 189.352 220.422 187.064 222.257 184.113 227.693 186.58 235.811 185.753 236.947 184.259 237.091 182.043 240.547 180.996 239.931 179.115 240.405 177.189 242 175.679 241.275 172.817 233.249 173.364 231.961 171.872 231.659 172.348 230.621 171.278 228.733 169.811 228.719 168.393 232.078 169.741 237.418 167.936 237.204 166.01 233.046 166.089 228.819 165.035 227.138 165.652 226.621 164.663 225.785 165.817 223.944 164.638 224.293 162.891 218.273 160.98 217.023 161.434 215.659 160.679 215.674 159.309 213.259 159.123 210.208 160.656 211.262 161.109 209.452 159 209.29 159.087 207.137 160.519 206.518 161.702 207.106 163.049 202.662 162.025 200.716 162.716 199.372 162.136 198.686 163.807 198.793 163.626 197.122 164.109 196.253 164.759 196.717 165.035 195.559 167.957 196.532 168.704 193.198 167.951 190.595 174.761 192.09 178.38 190.905 179.444 187.1 178.949 185.9 179.743 185.181 180.452 187.917 182.358 189.125 183.597 189.08 182.835 184.431 185.771 186.144 187.07 185.275 186.837 186.644 188.732 189.362 189.613 189.128 190.917 183.516 190.043 180.461 191.537 179.54 193.096 181.108 192.228 178.088 198.138 178.303 198.949 176.481 200.319 176.19 199.49 173.075 199.63 172Z" fill="#ffffff" fill-rule="evenodd"/></g></svg>