<svg width="120" height="120" xmlns="http://www.w3.org/2000/svg" xmlns:xlink="http://www.w3.org/1999/xlink"
    overflow="hidden">
    <defs>
        <clipPath id="clip0">
            <path d="M135 146 256 146 256 267 135 267Z" fill-rule="evenodd" clip-rule="evenodd" />
        </clipPath>
    </defs>
    <g clip-path="url(#clip0)" transform="translate(-135 -146)">
        <path d="M136 147 188.876 147 255 147 225.26 266 188.876 266 136 266Z" fill="#FFA07A"  fill-rule="evenodd" />
<path d="M188.989 176.836 190.1 178.219 189.804 179.251 190.614 179.816 190.866 181.286 191.704 182.262 192.886 182.539 193.536 184.495 195.372 184.457 195.995 186.03 197.163 186.779 198.553 185.747 199.612 185.805 200.39 185.239 201.7 185.941 202.74 185.913 203.992 188.008 206.681 189.172 207.91 190.725 209.037 189.927 209.729 191.108 210.403 191.073 210.705 191.737 210.339 192.713 209.521 193.372 210.114 193.969 210.255 195.56 212.127 195.838 213.434 196.816 214.105 196.712 216.728 198.562 217.93 197.77 221.123 199.911 222.661 201.788 227 203.396 226.985 203.784 226.393 203.545 224.756 204.112 223.771 205.413 224.076 206.381 221.654 208.275 221.371 209.301 219.883 210.462 218.371 210.447 217.312 213.064 216.118 214.301 214.879 214.104 213.463 215.419 213.802 217.223 214.55 218.08 214.291 219.133 213.687 219.935 212.934 220.136 213.079 220.945 211.769 221.937 212.098 222.512 210.861 222.716 210.831 223.5 211.529 223.96 211.617 225.02 212.399 225.834 211.99 228.409 210.968 228.039 211.457 229.904 210.657 230.464 209.636 230.016 208.804 230.83 208.621 233.099 208.251 233.705 207.884 233.593 207.014 235.253 207.269 237.303 207.269 237.303 206.296 238.009 206.604 238.405 206.045 239.486 205.092 240 204.145 239.597 203.448 238.343 203.705 237.955 202.44 237.801 203.171 237.572 202.722 236.958 202.106 236.946 201.927 237.716 201.249 237.877 201.775 236.519 201.064 235.834 199.766 236.098 198.808 236.862 197.712 236.38 196.407 236.92 196.106 235.816 195.498 236.509 193.498 236.684 193.294 234.876 192.785 234.763 192.424 233.971 192.262 234.399 191.158 234.383 189.182 232.582 188.229 232.729 188.377 232.056 187.785 231.628 187.657 230.204 185.493 229.186 185.286 230.477 184.147 229.316 183.773 229.724 182.858 229.699 182.831 228.466 181.861 227.072 180.763 227.153 178.972 225.741 179.878 224.969 180.533 225.457 180.953 224.182 181.366 224.533 182.228 223.957 183.327 222.439 180.464 221.966 176.709 219.923 175.086 218.432 174.258 215.641 172.696 214.899 171.012 214.332 168.922 216.53 168.133 216.387 166.999 217.198 165.811 218.969 165.017 219.178 164.87 220.142 163.853 220.304 163.763 219.297 163.004 219.241 163.099 218.63 163.619 218.678 163.102 216.499 161.475 216.581 160.54 217.36 159.78 217.059 159.83 216.617 159.055 216.247 159.2 214.588 157.895 212.526 158.54 211.529 158.221 211.015 158.789 210.234 158.48 209.759 159.358 208.83 159.052 208.304 159.653 207.066 160.208 207.314 160.739 206.771 162.675 203.541 158.078 201.338 156.483 199.606 155 199.759 155 199.759 155.376 199.139 157.417 198.623 159.92 197.189 160.157 196.664 160.004 195.928 159.141 195.946 158.468 195.095 159.561 194.589 159.5 193.52 158.548 192.987 158.709 192.389 157.609 190.99 158.778 189.515 158.78 188.274 159.715 188.821 159.845 187.245 158.803 187.281 158.573 186.381 159.183 185.959 160.293 186.525 159.861 186.133 160.463 185.206 159.948 183.901 160.828 183.436 161.758 181.659 163.159 181.076 164.398 181.654 164.726 180.918 165.93 180.784 167.18 179.797 168.947 179.713 169.706 178.832 170.213 178.96 170.317 178.423 171.524 178.359 172.383 179.404 172.839 179.11 173.353 179.49 173.894 180.471 175.289 180.399 176.503 179.68 177.317 180.031 177.593 180.691 180.662 180.439 181.156 181.841 182.253 182.806 184.861 182.613 184.404 181.092 183.175 179.952 182.993 179.127 182.993 179.127 183.378 177.366 184.757 176.583 185.928 174 187.616 174.769Z" fill="#ffffff" fill-rule="evenodd"/></g></svg>