<svg width="120" height="120" xmlns="http://www.w3.org/2000/svg" xmlns:xlink="http://www.w3.org/1999/xlink"
    overflow="hidden">
    <defs>
        <clipPath id="clip0">
            <path d="M135 146 256 146 256 267 135 267Z" fill-rule="evenodd" clip-rule="evenodd" />
        </clipPath>
    </defs>
    <g clip-path="url(#clip0)" transform="translate(-135 -146)">
        <path d="M136 147 188.876 147 255 147 225.26 266 188.876 266 136 266Z" fill="#FFA07A" fill-rule="evenodd" />
        <path
            d="M151.133 167.079 151.897 167 152.719 167.899 155.088 169.041 154.09 170.717 
        153.817 170.998 153.53 170.87 153.221 171.512 153.379 171.785 152.926 172.267 153.085 
        172.514 152.793 172.919 152.957 173.185 152.624 173.702 153.297 174.772 153.222 175.633
         153.622 175.824 153.596 176.054 153.987 176.21 154.469 175.806 155.308 175.763 155.574
          176.894 155.306 176.869 155.258 177.186 155.649 177.215 155.695 177.737 156.219 177.653 
          156.295 177.153 156.704 177.045 157.316 176.126 157.901 175.705 158.307 175.779 159.385
           174.639 160.252 174.933 161.057 175.318 161.484 176.766 162.32 177.54 164.256 178.599 165.731 
           178.845 165.164 179.632 164.72 179.931 164.507 179.749 164.291 180.41 163.954 180.157 163.486 
           180.558 164.409 181.29 164.976 181.248 165.475 181.971 165.489 182.612 165.961 182.624 166.153 182.412 166.741 183.014 166.847 182.345 167.962 182.873 168.028 183.612 168.333 183.834 168.257 184.182 168.748 184.106 169.767 185.041 170.335 185.049 170.419 184.827 170.605 185.238 170.867 185.296 170.972 186.234 172.003 186.143 172.316 185.784 172.472 186.357 173.144 186.077 173.709 186.327 174.203 185.93 174.872 185.793 175.238 186.149 174.967 186.853 175.316 186.769 175.408 186.37 175.726 186.376 175.957 186.695 175.581 186.814 176.233 186.894 176.1 187.095 176.459 187.745 176.947 187.954 177.439 187.688 177.727 187.127 177.568 186.922 178.069 186.555 178.069 186.555 178.579 186.567 179.63 187.468 180.001 187.437 180.061 187.787 180.711 188.145 181.167 188.918 182.153 189.019 182.867 189.962 183.003 189.696 182.715 188.572 183.416 188.296 183.876 188.892 184.478 188.859 184.72 189.53 185.554 189.793 185.781 190.298 186.602 190.724 186.714 190.476 187.064 190.625 187.126 190.99 187.822 191.398 188.233 191.187 188.42 191.655 188.903 192.003 190.307 192.3 190.545 193.175 191.488 194.294 191.494 194.641 191.289 194.662 191.566 194.891 191.46 195.071 192.032 194.964 192.073 194.541 192.812 194.721 193.242 195.258 193.182 195.691 194.746 196.679 195.584 196.86 197.547 198.434 197.989 198.404 198.441 197.563 199.509 197.629 200.106 198.341 201.018 198.607 203.6 200.603 206.382 200.08 206.423 200.769 206.897 201.719 206.673 202.732 208.762 202.759 209.026 203.16 209.884 203.39 211.538 203.327 212.79 204.813 213.374 204.671 213.915 203.829 213.649 203.556 213.833 203.285 213.693 203.018 216.116 203.14 218.712 204.574 218.712 204.574 218.395 204.916 218.671 205.055 219.337 204.884 219.433 205.14 219.136 205.682 219.742 205.977 220.003 206.395 219.58 207.693 220.453 207.662 220.132 207.987 220.669 208.276 220.732 209.274 220.498 209.506 220.743 209.637 220.79 210.121 221.198 210.296 221.311 210.01 221.743 210.17 221.644 210.554 222.044 210.809 222.477 210.37 222.819 210.473 222.939 211.121 222.642 211.742 222.743 211.953 222.886 212.076 223.43 211.788 223.727 212.618 224.549 212.775 224.68 213.304 223.153 213.639 221.109 213.116 221.117 213.636 220.744 214.311 219.954 214.449 219.829 214.73 219.181 214.615 219.182 215.43 220.037 215.618 220.349 215.452 221.004 216.22 222.071 216.345 222.181 217.028 221.941 217.881 221.444 217.689 221.083 218.177 220.355 217.944 220.426 219.088 220.758 219.632 221.208 219.67 222.026 220.52 222.015 220.926 222.397 220.818 223.412 221.459 224.003 221.311 224.614 221.645 224.775 222.11 225.906 222.286 225.888 222.804 226.205 222.767 226.889 223.285 226.677 223.684 227 224.07 226.195 223.973 226.16 224.597 225.935 224.493 225.984 224.091 225.862 224.594 225.473 224.671 225.048 224.235 224.545 224.413 224.31 223.826 223.787 223.875 223.651 224.742 223.275 224.68 223.297 224.866 222.409 224.769 222.317 224.367 221.822 224.038 221.244 224.164 220.979 224.459 221.052 225.152 219.34 226.094 218.633 227.104 218.194 227.196 218.496 227.542 218.023 227.605 218.077 227.85 217.675 228.125 217.359 227.855 217.053 228.145 216.952 228.027 216.745 228.238 216.892 228.322 216.476 228.362 216.177 228.819 215.552 229.073 215.287 228.96 214.438 229.741 213.89 229.773 213.664 230.275 213.249 230.371 213.096 230.579 213.332 231.258 212.911 232.526 213.187 232.607 213.296 234.265 213.687 234.709 213.648 235.288 214.361 235.89 214.647 235.837 214.657 236.216 215.011 236.507 214.837 236.855 215.308 237.157 214.844 238.329 214.844 238.329 213.715 238.634 213.591 239.172 213.791 239.726 214.111 239.784 214.342 240.245 213.531 240.836 213.81 241.409 212.969 243.349 212.969 243.349 212.599 243.683 212.46 244.267 211.816 244.666 211.531 245.468 210.426 245.973 208.839 246 207.433 244.975 207.433 244.975 207.32 244.48 206.727 244.289 206.987 243.625 206.366 243.59 205.818 242.955 205.963 242.676 206.495 242.905 206.566 241.912 206.812 241.761 206.964 241.097 206.926 240.146 206.353 240.003 206.669 238.65 206.444 238.49 206.411 237.984 206.77 238.158 207.358 238.026 207.31 237.469 206.921 237.469 206.95 236.927 206.224 236.944 206.232 236.572 205.825 236.28 204.443 236.852 204.327 236.54 203.58 236.546 203.403 236.21 203.073 236.476 203.154 237.493 202.302 237.186 201.917 237.305 201.944 236.639 201.589 236.445 201.478 236.685 201.23 236.643 201.377 235.388 201.32 235.641 201.133 235.492 201.153 235.672 200.903 235.669 201.057 235.946 200.618 235.816 200.794 235.311 201.01 235.32 200.683 235.046 200.865 234.811 200.473 235.193 199.966 235.193 198.814 234.501 198.323 234.739 197.65 234.005 197.818 233.55 197.672 232.618 197.539 232.817 196.93 232.502 196.499 232.612 195.889 232.154 195.347 232.212 195.098 231.786 194.515 232.011 194.401 231.785 194.811 231.507 194.648 231.276 194.481 231.543 194.384 231.113 194.672 230.837 194.272 230.735 194.107 230.409 193.497 230.512 193.659 231.027 193.345 230.924 193.103 231.105 193.476 231.464 193.219 231.843 192.33 231.453 192.732 231.421 192.645 231.146 192.227 231.271 191.569 230.685 191.387 230.791 191.405 231.352 191.316 230.762 190.916 230.741 190.665 231.479 190.835 231.92 190.192 232.782 190.309 233.508 190.007 233.571 190.163 233.505 189.76 233.224 189.449 234.011 188.847 233.298 188.129 233.273 188.207 233.532 187.546 233.612 187.349 233.058 186.925 233.245 186.925 233.245 186.983 233.441 186.79 233.338 186.79 233.338 186.255 233.508 185.903 233.39 185.773 233.066 186.397 232.754 186.166 232.267 186.639 231.889 186.578 231.265 187.006 230.83 186.718 230.41 186.27 230.445 186.178 231.423 185.876 230.994 184.802 231.105 185.079 231.274 185.078 231.57 185.622 231.732 185.622 232 185.099 231.879 184.523 232.089 184.584 231.761 184.338 231.849 183.748 231.493 184.081 231.269 183.675 230.89 183.806 231.875 183.33 231.647 183.126 231.929 182.761 231.533 182.404 231.519 182.659 231.669 182.597 232.195 182.34 232.202 182.023 231.758 181.219 232.046 181.395 232.616 181.145 232.423 180.691 232.694 180.158 232.373 181.064 231.013 181.841 230.665 181.576 229.848 181.35 229.912 180.556 229.302 180.628 228.132 180.039 227.639 179.925 227.922 179.374 227.788 179.309 228.175 178.616 228.713 178.187 228.506 177.515 228.657 177.258 229.543 176.676 229.504 176.363 229.961 176.245 229.682 175.652 229.881 175.919 230.948 175.657 231.149 175.746 231.563 174.562 231.025 172.976 231.172 173.029 230.896 172.888 230.984 172.629 230.625 171.816 231.75 171.501 231.589 171.586 231.137 171.185 231.456 171.014 231.081 170.843 231.385 170.678 230.711 170.955 230.254 171.31 230.209 171.142 230.061 171.487 229.533 171.822 229.523 171.468 229.361 171.016 229.655 170.502 229.238 170.347 229.582 170.109 229.241 170.271 228.777 169.722 228.692 169.35 229.048 169.343 229.51 169.647 229.285 169.886 229.622 170.209 229.493 170.091 230.003 170.283 230.189 170.128 230.349 169.495 229.787 169.551 230.389 169.934 230.93 169.813 231.15 169.35 231.283 169.34 230.913 169.09 230.822 168.854 230.972 169.172 231.061 169.117 231.351 168.773 231.382 168.542 230.938 168.348 231.043 168.483 231.335 167.945 231.417 167.715 231.027 167.85 230.783 167.463 230.446 167.02 231.092 166.791 231.033 166.822 230.518 167.164 230.053 166.688 229.785 166.611 229.444 166.248 229.824 166.501 229.957 166.513 230.406 166.003 230.118 165.182 230.762 165.225 229.695 165.395 229.818 165.577 229.474 165.921 229.613 166.236 229.346 166.051 228.577 165.781 228.793 165.232 228.641 164.859 230.012 164.471 229.515 164.536 229.172 164.231 229.198 164.324 228.994 164.878 228.785 164.816 228.55 165.214 228.128 166.014 227.978 165.819 228.252 165.403 228.274 165.792 228.554 166.327 228.266 166.13 227.518 165.797 227.644 165.519 227.422 165.867 227.028 165.66 226.544 165.934 226.42 165.815 226.079 165.665 226.299 165.596 226.084 165.209 226.112 165.227 226.501 164.715 226.671 165.025 227.182 164.779 227.595 164.56 227.43 164.902 227.334 164.731 227.199 163.944 227.075 163.679 226.782 163.602 227.228 163.928 227.578 164.549 227.619 163.8 227.829 164.028 228.476 163.484 228.54 163.434 228.233 162.885 228.124 162.871 227.742 163.006 227.935 163.353 227.637 163.185 227.412 162.83 227.457 162.571 227.904 162.301 227.777 162.139 228.075 161.846 228.032 162.008 228.553 161.46 228.421 161.636 228.854 161.46 229.092 161.193 229.121 161.107 228.887 160.837 229.253 160.553 229.12 160.411 229.305 160.697 229.519 161.155 229.243 161.927 229.662 162.234 231.571 162.714 232.002 162.501 233.148 162.84 233.392 162.998 233.888 164.029 234.374 164.202 234.923 164.03 235.161 164.115 236.235 163.767 236.758 163.868 237.408 164.163 237.548 165.288 236.997 166.197 238.684 165.815 238.831 165.633 238.638 165.577 239.04 166.39 239.34 166.202 240.375 165.568 240.993 165.258 241.915 164.556 242.066 164.322 242.42 163.984 241.497 163.83 241.724 163.683 241.553 163.325 241.781 163.006 241.656 162.033 240.335 161.248 239.9 160.49 241.035 159.898 241.296 159.322 240.659 159.698 239.996 158.688 239.269 158.717 238.929 158.182 238.379 158.602 237.961 158.705 236.674 158.189 235.724 158.067 234.946 157.582 234.425 157.598 234.133 159.339 232.737 159.341 231.679 160.067 231.183 160.578 231.204 160.314 230.911 160.616 230.726 159.96 230.416 160.093 230.147 159.629 229.811 159.528 229.194 159.13 229.039 159.379 228.734 158.995 228.281 159.369 227.969 159.554 227.328 159.874 227.405 160.339 227.057 160.21 226.399 160.432 226.03 160.71 226.172 161.043 225.811 162.062 226.025 162.357 225.73 162.786 226.009 163.091 225.67 164.467 225.307 164.533 224.712 163.84 223.822 164.631 223.221 164.65 223.033 164.399 222.997 164.532 222.854 165.076 223.224 164.911 222.491 165.299 222.375 165.231 221.833 165.802 221.43 165.96 220.383 166.592 219.846 165.942 219.16 166.565 218.971 166.315 218.485 166.718 218.461 166.777 218.021 167.17 218.037 166.955 217.628 167.28 217.381 167.455 217.563 167.565 217.089 167.917 217.04 167.8 216.811 167.994 216.693 167.382 216.48 167.49 215.82 167.816 215.828 167.919 215.496 167.078 215.36 167.212 214.793 166.779 214.212 166.536 214.22 166.465 213.844 166.339 213.943 166.619 213.505 166.485 212.614 165.891 212.878 166.001 212.468 165.527 212.268 165.108 212.373 164.534 211.641 164.05 211.652 163.778 211.315 163.584 211.474 163.502 211.223 162.898 211.595 161.897 211.734 160.662 211.248 160.395 210.836 160.007 210.925 159.595 210.329 158.851 210.454 158.624 210.973 158.075 210.791 158.075 210.791 157.875 210.158 158.255 210.23 158.638 209.737 158.141 209.37 158.027 209.552 157.019 209.379 156.912 209.961 156.276 209.835 156.336 210.324 156.06 210.492 155.895 209.893 155.2 210.023 154.749 209.725 154.644 210.147 153.176 209.566 152.806 209.823 152.773 210.246 151.578 210.83 150.678 210.96 150.434 210.648 150.252 211.372 150.384 211.623 149.901 211.866 150.073 211.592 149.69 211.585 149.803 210.995 149.623 210.418 152.055 209.131 152.993 208.957 153.194 208.54 152.887 208.434 152.842 208.81 152.641 208.811 152.317 208.193 151.823 208.628 151.072 208.37 151.161 207.873 150.685 208.004 150.439 207.666 151.431 207.329 151.584 206.781 152.116 206.695 152.313 206.396 151.954 206.191 152.004 205.93 151.44 205.184 151.681 204.666 151.256 204.868 150.426 204.206 149.725 203.991 149.545 203.673 149.7 203.229 149.344 203.038 149.194 202.569 148.686 202.405 148.635 201.908 148.847 201.637 148.429 201.416 148.763 200.914 148.701 200.39 148.283 200.117 148.353 199.274 148.049 199.049 148.049 199.049 148.731 198.405 149.515 198.411 149.514 197.96 150.01 198.092 150.12 197.513 150.662 197.526 150.857 197.21 150.57 197.084 150.834 196.777 150.232 196.159 150.122 195.649 150.222 195.382 150.374 195.503 150.417 194.749 150.911 194.483 150.372 194.441 150.339 194.113 150.661 194.237 150.623 193.896 150.898 193.677 150.105 193.408 150.378 193.275 150.411 192.954 150.067 192.575 150.394 192.327 150.183 191.653 148.714 190.485 148.714 190.485 148.242 189.778 148.697 189.262 148.429 188.825 148.561 187.951 148.147 187.993 147.5 187.072 147.202 186.978 147.421 186.487 147.095 186.1 147.095 186.1 147.04 185.817 147.463 185.642 147.13 185.009 147.388 184.39 146.398 183.163 146.591 182.224 146.433 181.697 146.635 181.47 146.478 181.106 146.741 180.333 146.377 180.157 146.344 179.826 146.665 179.664 146.439 179.407 146.585 179.018 146 177.888 146.266 177.648 146.008 177.058 146.627 175.756 146.345 174.952 146.725 174.675 147.023 173.275 147.913 172.085 147.991 171.511 149.537 170.781 149.361 170.637 149.635 170.018 150.169 169.768 150.743 168.602 151.211 168.241 151.444 167.499 151.26 167.328 151.26 167.328Z"
            fill="#ffffff" fill-rule="evenodd" />
    </g>
</svg>