<svg width="120" height="120" xmlns="http://www.w3.org/2000/svg" xmlns:xlink="http://www.w3.org/1999/xlink"
    overflow="hidden">
    <defs>
        <clipPath id="clip0">
            <path d="M135 146 256 146 256 267 135 267Z" fill-rule="evenodd" clip-rule="evenodd" />
        </clipPath>
    </defs>
    <g clip-path="url(#clip0)" transform="translate(-135 -146)">
        <path d="M136 147 188.876 147 255 147 225.26 266 188.876 266 136 266Z" fill="#FFA07A"  fill-rule="evenodd" />
<path d="M216.008 195.562 216.007 195.566 216.007 195.566 216.008 195.562ZM216.413 195.538 216.172 197.091 215.704 196.418 215.694 195.918 216.413 195.538ZM216.008 195.562 215.933 195.171 215.764 195.447 214.98 195.508 214.944 195.052 214.385 195.415 215.463 195.893 215.463 195.893 215.449 196.541 215.731 196.628 216.143 197.563 211.394 199.915 208.481 201.073 206.148 200.406 204.22 200.637 202.563 201.47 200.949 205.046 201.01 205.65 199.205 207.583 199.035 207.873 199.273 208.416 198.685 208.937 196.803 209.193 196.265 208.276 196.428 207.79 196.659 207.794 196.587 207.432 195.045 206.888 193.103 207.266 191.719 207.934 190.531 208.726 189.625 209.749 188.726 212.553 187.408 214.665 186.74 217.811 187.607 222.492 188.701 224.433 187.802 230.721 189.297 234.787 189.189 237.206 190.214 239.976 188.34 236.536 187.99 236.376 187.918 237.568 187.535 237.179 187.755 236.794 187.506 236.746 186.78 237.9 188.218 239.225 189.192 239.248 190.174 240.128 190.174 240.128 190.174 240.84 189.705 240.575 189.111 239.396 188.094 239.369 187.02 238.58 186.041 238.687 185.989 238.95 186.542 239.061 186.585 239.294 186.193 239.25 186.057 239.63 185.621 239.74 185.639 240.189 185.239 240.371 185.513 240.777 185.148 241.289 184.182 241.725 183.521 241.714 183.254 242.013 182.92 241.734 182.494 242.144 183.321 242.799 182.794 243.183 182.514 242.821 182.071 243.016 182.166 242.66 181.87 242.719 181.808 242.015 180.661 242.506 180.251 242.214 180.082 241.624 178.693 241.455 177.987 241.731 178.643 242.023 178.459 242.952 178.787 242.714 178.91 242.89 178.599 243 178.627 243.283 177.639 243.611 177.727 244.057 177.121 244.497 176.594 243.903 175.956 243.979 175.956 244.404 175.574 244.663 175.103 245.7 174.016 245.609 172.853 244.772 172.005 244.89 171.733 245.327 172.138 245.549 171.583 245.534 171.506 244.643 169.816 245.19 169.25 245.046 169.137 245.74 168.582 245.559 168.095 246.082 168.524 246.885 168.252 246.882 167.683 248.872 167.21 249.231 167.237 250.013 166.935 250.092 166.825 249.772 166.825 249.772 166.825 249.772 166.825 249.772 166.755 249.796 166.532 249.773 166.469 250.311 166.067 250.325 166.093 250.925 164.906 251 163.894 250.449 163.555 249.928 162.586 250.07 163.072 249.616 162.987 249.114 162.987 249.114 163.252 247.844 164.058 247.847 164.609 246.762 165.036 247.203 165.783 247.13 165.613 246.219 166.071 246.29 165.988 245.375 166.678 245.09 166.643 244.703 166.981 244.492 166.732 244.193 167.516 243.698 167.15 243.286 167.511 243.057 167.625 242.282 167.341 241.78 166.889 242.368 166.251 241.666 165.786 241.794 165.636 241.516 165.205 241.722 164.889 241.503 165.284 241.337 164.735 241.032 165.199 238.035 163.079 237.913 162.501 238.327 162.64 237.523 162.205 237.426 162.143 237.086 161.168 237.266 160.877 236.84 160.952 236.555 161.489 236.605 161.541 236.258 161.223 235.945 161.656 235.36 161.595 234.5 160.654 233.883 160.61 234.339 159.926 234.221 159.674 234.779 159.398 234.782 159.371 233.971 159.833 233.795 159.683 233.024 158.97 233.742 158.65 233.284 157.757 233.235 157.602 233.589 157.879 234.236 157.207 234.568 157.239 234.877 156.386 235.178 156.332 235.955 156.161 235.569 155.747 235.692 155.832 235.352 155.557 235.375 155.055 235.65 155.397 235.922 155.195 236.027 154.862 235.81 154.348 236.174 153.875 235.806 153.779 236.589 153.455 236.305 153.398 236.669 152.966 236.721 153.066 235.09 152.432 235.061 152.638 234.577 151.792 234.435 151.28 234.703 151.109 234.279 150.375 234.519 150.159 233.772 149.869 234.224 149.784 233.958 149.444 234.245 149.421 233.47 149.147 233.707 149.232 234.283 148.73 234.386 149.229 234.771 149.285 235.66 148.358 235.576 147.9 235.873 147.462 235.434 147.268 235.955 147.022 235.823 146.708 234.857 147.343 233.794 147.655 233.739 147.584 233.359 146.222 232.052 146.793 231.478 146.169 230.643 145.606 230.592 145.706 230.215 146.299 230.122 146.36 229.806 147.376 230.03 147.227 231.036 147.426 231.64 148.693 231.79 149.034 232.471 151.193 232.024 151.717 232.595 151.646 233.75 152.193 233.735 152.212 233.975 152.674 233.58 152.417 233.218 152.715 232.779 152.001 232.774 152.101 232.259 151.358 232.049 152.258 230.964 152.184 230.76 151.596 231.064 151.638 230.683 152.014 230.612 152.183 230.131 153.622 230.323 153.568 228.695 153.028 228.69 152.867 228.183 152.13 227.978 151.991 228.379 152.52 229.502 152.105 229.773 151.737 229.258 151.787 228.728 150.752 228.637 150.772 227.894 150.133 228.165 149.096 227.805 148.573 228.483 148.484 229.484 148.097 229.537 147.763 229.13 146.31 229.122 146.142 228.69 146.47 228.395 145.547 227.689 145.599 227.097 145.988 226.783 146.358 226.972 146.387 226.357 146.772 225.909 145.431 226.042 144.876 225.304 144.514 225.241 144 224.238 144.492 222.446 144.262 221.842 145.151 221.508 145.356 219.344 144.88 219.52 144.047 219.265 144.317 218.632 144.183 217.891 144.478 217.629 145.515 218.469 146.881 218.718 147.127 218.458 147.727 218.463 147.651 218.784 148.142 218.857 149.12 217.226 148.835 216.925 149.168 216.84 149.174 216.233 148.69 215.862 149.252 215.349 149.041 214.989 148.619 214.933 148.544 214.425 147.919 214.498 147.475 212.962 146.734 212.206 146.754 211.997 147.465 212.083 147.5 210.267 148.178 210.009 148.63 210.386 148.744 209.926 147.682 208.902 147.951 207.697 147.41 207.579 147.978 206.662 148.985 206.1 150.356 205.866 153.743 206.368 153.743 206.368 155.003 206.493 155.687 206.971 156.43 206.834 157.51 207.123 158.66 206.707 160.145 207.206 160.592 206.624 160.947 207.406 161.544 207.642 161.755 207.346 162.26 207.345 162.459 206.646 163.213 206.257 163.456 204.867 164.23 204.897 165.393 204.191 167.387 204.526 168.14 203.947 169.396 204.93 170.194 204.971 170.993 204.103 171.011 203.159 171.337 203.209 171.463 203.793 171.955 203.861 171.89 202.817 172.151 202.539 173.521 201.949 175.415 202.338 175.962 202.032 176.047 198.373 176.578 197.646 178.664 197.36 179.581 196.705 181.542 196.275 183.191 195.353 183.651 195.886 184.321 195.781 184.844 196.605 185.573 196.547 186.74 195.141 187.023 194.206 186.547 193.676 186.009 193.528 186.242 192.927 186.714 192.134 187.858 191.86 188.485 191.045 188.733 191.48 189.525 191.514 190.034 192.262 190.266 193.422 190.779 193.642 190.965 194.241 191.313 193.712 192 194.183 192.05 194.528 193.433 194.899 193.97 194.559 193.326 194.053 193.461 193.449 193.744 193.382 193.711 192.663 192.504 192.367 192.458 192.787 190.774 192.06 191.17 191.467 190.888 190.886 191.253 190.599 191.584 191.32 191.918 191.426 192.386 190.972 192.566 190.183 193.399 189.771 194.653 190.46 194.432 190.905 195.551 190.776 196.939 191.308 197.281 190.964 197.43 189.658 197.989 189.663 197.886 188.907 199.002 189.202 199.721 188.735 201.232 188.479 201.476 187.251 202.589 187.282 203.336 186.315 203.949 186.773 204.518 186.712 205.529 185.518 205.633 184.276 205.922 183.86 205.652 183.585 206.539 182.24 206.61 181.715 209.284 180.262 209.419 179.979 208.971 179.418 208.971 179.418 209.527 178.831 211.486 178.061 212.434 177.157 214.197 177.353 214.419 177.808 215.255 178.232 215.587 178.14 215.583 177.289 215.986 177.101 216.085 177.433 216.4 177.397 216.447 175.994 216.762 176.233 216.86 176.032 216.093 175.262 216.44 174.985 216.493 174.291 216.947 174.182 217.223 173.737 216.461 173.59 217.111 172.874 216.81 172.312 218.275 170.562 218.602 171.046 218.913 171.016 219.005 171.976 219.311 171.93 219.07 172.592 219.919 172.88 220.06 173.185 219.607 173.732 219.663 174.238 220.263 174.807 220.678 174.01 222.085 173.397 222.426 172.518 222.204 172.176 222.502 171.905 223.097 172.313 223.613 172.273 223.707 172.904 224.237 173.118 225.335 172.662 225.807 172.788 225.87 172.047 225.599 172.186 225.312 171.835 226.274 170.546 225.535 170.408 225.462 170.133 225.814 169.877 225.217 169.85 225.263 169.152 225.775 168.944 226.841 167.31 227.734 167.727 227.778 168.092 227.964 167.402 228.571 167.524 228.746 167.073 229.743 166.929 229.777 166.488 230.263 166.506 230.458 166.11 229.618 165.177 230.054 165.226 229.606 164.76 229.388 165.315 229.08 164.309 229.613 164.029 230.426 164.219 231.033 164.918 230.942 164.171 231.281 164.162 231.325 163.873 231.083 163.202 231.263 163.091 231.528 163.432 231.681 163.27 231.788 163.824 231.527 163.795 231.551 164.013 232.018 164.092 232.214 163.145 232.634 163.477 232.968 162.946 232.836 162.501 233.213 162.041 234.172 163.938 234.512 164.003 234.285 164.371 234.806 165.298 235.251 165.442 234.724 164.465 235.342 164.05 236.422 166.676 237.327 166.977 238.461 166.9 239.173 167.694 239.708 167.645 240.077 167.266 242.429 167.041 242.478 166.009 242.821 166.226 242.939 166.003 242.678 165.782 243.148 165.858 242.858 165.602 243.281 165.742 243.691 165.361 243.512 165.024 243.837 164.625 243.506 163.976 244.241 164.428 244.472 163.878 245.468 163.268 245.748 163.989 246.074 163.41 246.617 163.445 246.613 163.047 246.166 163.11 245.802 162.455 246.703 162.483 246.753 162 247.235 162.077 247.128 162.514 247.455 162.842 247.455 162.842 248 163.181 245.685 165.878 245.31 167.033 244.165 168.13 242.739 170.288 239.742 173.117 239.728 173.699 234.46 176.39 232.553 177.704 231.994 178.651 230.442 180.102 230.442 180.559 229.589 181.729 227.885 183.571 220.01 187.61 216.901 190.038 215.981 191.212 215.645 192.468 215.348 192.612 215.442 193.212 216.164 193.846 216.717 193.691 216.569 195.242 216.008 195.562Z" fill="#ffffff" fill-rule="evenodd"/></g></svg>