<svg width="120" height="120" xmlns="http://www.w3.org/2000/svg" xmlns:xlink="http://www.w3.org/1999/xlink"
    overflow="hidden">
    <defs>
        <clipPath id="clip0">
            <path d="M135 146 256 146 256 267 135 267Z" fill-rule="evenodd" clip-rule="evenodd" />
        </clipPath>
    </defs>
    <g clip-path="url(#clip0)" transform="translate(-135 -146)">
        <path d="M136 147 188.876 147 255 147 225.26 266 188.876 266 136 266Z" fill="#FFA07A" fill-rule="evenodd" />
        <path
            d="M162.782 206.124 163.166 206.568 162.898 206.875 162.268 206.442 162.782 206.124ZM156.386 205.867 156.516 206.072 155.709 206.67 155.821 206.095 156.386 205.867ZM167.752 204.228 167.988 204.586 167.086 204.846 167.18 204.444 167.752 204.228ZM148.846 193.974 149.548 194.219 149.585 194.576 149.031 194.727 149.052 194.952 148.585 194.579 148.973 194.436 148.846 193.974ZM149.248 193.109 149.624 193.398 149.617 193.776 149.099 193.422 148.972 193.137 149.248 193.109ZM147.734 191.594 148.021 191.943 147.876 192.701 147.543 192.486 147.59 191.978 147.065 192.455 146.949 192.285 147.734 191.594ZM147.855 189.93 147.843 190.439 147.181 191.205 147.246 190.498 147.855 189.93ZM147.517 189.529 147.651 189.87 147.311 190.076 147.235 189.651 147.517 189.529ZM146.244 186.949 146.758 187.239 147.127 187.095 146.66 189.107 145.675 190.124 145.147 190.002 145.386 189.882 145.132 189.636 144.727 189.795 144.832 190.018 144.456 190.03 144.518 189.787 144.152 189.934 144 189.536 144.239 189.203 145.086 189.175 145.868 188.113 146.244 186.949ZM145.736 187.038 145.798 187.962 145.222 188.378 145.218 187.16 145.736 187.038ZM148.043 186.579 148.307 187.672 147.272 187.89 147.522 187.394 147.409 186.929 148.043 186.579ZM146.592 186.124 146.949 186.134 147.131 186.872 146.359 186.82 146.268 186.492 146.592 186.124ZM147.331 185.084 147.333 186.013 146.489 185.925 146.135 186.363 146.172 185.653 147.331 185.084ZM148.512 185.05 148.803 185.348 149.151 185.434 148.311 186.212 147.97 186.072 148.006 185.761 148.579 185.336 148.512 185.05ZM147.855 184.26 148.329 185.24 147.352 186.328 147.682 185.141 147.513 184.905 147.152 185.046 147.409 184.428 147.855 184.26ZM147.177 184.221 146.916 185.089 146.065 185.571 145.972 186.745 145.755 186.92 145.531 186.67 145.035 187.124 145.049 188.571 144.68 188.726 144.083 188.01 144.626 187.382 144.347 186.527 144.63 186.507 145.183 185.377 145.933 185.337 146.262 184.477 146.733 184.652 147.177 184.221ZM182.062 174.363 184.546 175.417 185.24 174.759 185.658 175.214 187.029 174.462 188.701 174.507 189.287 175.047 191.078 174.509 191.245 175.212 191.852 175.466 192.088 174.442 192.657 174.555 192.97 175.14 194.382 174 194.809 174.127 194.804 174.765 195.853 175.317 196.443 175.345 196.695 175.052 197.803 175.399 198.308 175.265 197.946 175.715 197.337 175.526 196.968 175.812 197.543 176.413 198.362 176.21 198.362 176.21 198.732 176.959 199.464 176.905 199.464 176.905 199.388 177.535 199.753 178.304 200.313 178.264 200.22 177.683 200.794 176.868 201.366 177.363 202.783 177.583 202.734 178.129 203.243 178.964 205.01 178.899 205.737 179.467 206.617 178.925 206.25 178.641 206.733 177.39 206.895 177.22 207.394 177.468 207.958 177.043 208.14 178.028 207.836 178.487 208.944 179.117 209.478 178.762 209.745 178.916 209.479 179.354 209.243 179.219 209.083 179.824 208.618 179.732 207.806 181.499 208.216 182.165 209.645 182.745 209.321 183.416 209.932 184.001 210.521 183.762 211.061 183.097 211.096 182.502 211.595 182.315 211.545 182.892 212.12 183.422 212.007 184.291 212.263 185.143 211.447 186.135 211.455 187.201 211.627 187.499 212.208 187.318 212.974 188.325 213.355 188.406 213.42 189.644 214.251 189.093 215.339 189.556 215.031 190.627 215.308 191.255 214.974 191.993 215.241 192.164 215.905 191.946 216.191 192.562 216.694 191.906 216.933 192.248 217.572 192.075 218.382 193.64 218.963 193.578 219.073 193.12 219.382 193.068 219.64 193.632 220.185 193.708 220.34 194.225 221.085 194.23 221.503 194.605 221.415 195.898 222.145 196.277 222.464 195.71 222.966 195.764 223.515 196.755 223.442 197.092 223.966 197.553 223.966 197.553 224.591 198.73 224.212 198.948 224.477 199.398 224.977 199.878 225.643 199.527 226 200.458 225.012 202.276 224.766 203.515 223.217 203.496 221.757 205.304 220.629 204.829 220.211 205.432 220.318 205.682 220.87 205.431 220.777 206.04 221.105 206.008 221.362 206.675 221.639 206.166 221.858 206.514 222.192 206.344 222.246 205.866 222.426 206.443 223.07 206.5 223.593 207.048 223.122 206.969 222.718 207.558 222.454 207.428 222.249 208.076 221.509 207.929 221.219 207.371 220.698 207.533 220.53 208.589 220.953 209.184 220.747 209.492 221.359 209.619 221.457 211.25 221.775 211.139 222.114 211.407 221.032 212.413 221.764 212.822 221.662 213.28 221.662 213.28 217.29 215.126 217.739 215.587 217.559 215.979 218.409 216.862 218.268 217.64 216.991 217.922 217.472 218.3 217.945 219.744 220.668 218.846 222.187 218.845 222.473 219.244 222.861 218.979 223.278 219.183 223.742 218.766 224.04 219.105 224.029 219.744 223.011 220.207 222.742 219.972 222.658 220.261 221.438 220.197 221.178 220.416 220.633 219.939 220.391 220.818 219.35 221.203 219.144 221.058 219.087 222.533 218.351 223.027 217.571 222.956 217.446 224.299 216.391 224.367 216.326 224.772 215.605 224.577 215.02 224.851 214.717 224.241 214.393 224.356 215.326 225.192 216.534 225.112 216.398 225.935 216.824 226.567 217.252 226.396 217.365 226.769 218.539 226.95 218.39 227.554 219.042 228.957 219.1 230.328 218.727 230.591 218.267 230.505 217.98 231 217.447 231.006 217.742 231.381 217.65 232.1 216.476 232.777 215.861 232.623 215.467 232.847 215.025 232.61 214.64 231.812 213.743 231.286 213.222 231.572 213.016 230.679 212.64 230.773 212.46 231.412 211.976 231.723 212.466 232.388 212.993 232.549 213.006 233.114 213.253 233.157 212.328 234.917 211.827 235.255 212.246 235.787 212.33 237.825 211.606 238.014 211.518 237.725 211.326 237.933 210.782 237.812 210.495 238.616 209.546 239 209.546 239 209.281 238.75 209.703 238.189 209.463 237.948 208.627 237.814 208.684 238.291 208.356 238.516 207.946 238.276 207.802 238.517 207.729 237.495 208.168 237.463 208.79 236.647 209.06 236.704 208.832 236.275 208.199 236.445 208.128 235.666 207.913 236.14 207.386 236.194 207.304 236.639 206.987 236.272 206.996 236.642 206.605 236.625 206.522 236.91 206.026 236.607 205.747 236.813 206.344 237.74 206.344 237.74 205.094 237.552 204.574 238.11 204.583 238.685 204.149 238.631 204.147 238.959 203.31 238.798 203.31 238.798 203.545 236.626 204.403 235.523 205.228 233.714 205.395 232.502 204.019 228.166 204.041 227.484 203.758 227.621 203.122 226.027 203.737 225.777 202.886 225.675 203.089 224.704 202.39 224.533 202.286 225.48 201.873 225.652 201.757 223.588 201.359 222.624 201.848 221.354 202.778 220.184 202.104 220.618 202.48 219.398 202.883 219.234 202.6 219.081 201.85 219.793 201.481 218.948 201.883 218.04 202.831 217.551 203.958 217.641 204.58 217.32 203.859 217.387 203.291 217.014 200.703 217.37 200.308 216.849 200.739 216.364 201.122 215.118 200.445 214.647 200.243 213.267 200.833 210.502 201.278 209.794 202.133 209.562 203.523 210.183 204.236 209.153 205.137 209.467 205.456 209.318 205.615 208.701 205.376 209.146 204.993 209.2 204.692 208.638 203.498 209.365 202.662 209.259 201.963 208.606 200.75 209.192 200.699 208.76 200.03 209.841 200.117 209.278 199.831 209.255 199.367 208.367 198.82 208.111 199.071 207.556 198.64 207.175 198.401 207.372 198.836 207.673 198.56 208.206 199.089 208.419 199.125 209.414 198.905 209.807 198.339 208.792 198.415 209.729 198.796 210.252 198.597 210.51 198.331 210.038 198.173 210.865 197.916 210.79 197.326 213.59 196.845 211.928 197.428 211.583 197.576 211.736 197.597 211.092 196.754 211.846 196.728 212.38 196.558 213.362 196.982 214.048 197.144 216.295 197.684 217.874 196.606 220.546 195.339 222.058 195.118 222.739 194.691 222.461 194.966 222.836 194.767 223.262 195.18 223.953 193.935 224.546 193.798 224.851 193.837 224.102 193.395 225.015 191.351 225.701 191.051 225.912 191.181 226.182 189.986 226.426 188.038 227.417 187.376 227.441 187.391 227.803 186.406 228.539 185.592 228.48 185.679 228.718 183.391 229.489 182.696 229.82 182.616 230.111 181.856 230.111 181.679 230.404 180.158 230.345 179.214 230.783 179.214 230.783 178.77 230.167 178.77 230.167 178.77 230.167 178.77 230.167 178.645 230.021 178.938 230.013 178.939 229.587 179.284 229.592 179.314 229.17 178.282 228.8 179.367 228.316 179.194 227.481 178.66 227.126 177.683 227.261 177.3 226.852 176.484 228.9 176.416 230.03 176.416 230.03 175.645 229.94 173.357 228.779 168.934 225.245 163.895 219.275 164.561 218.579 164.217 217.565 164.047 217.819 163.41 217.729 163.953 218.245 163.668 218.375 164.04 218.68 163.794 219.135 157.63 213.441 154.05 209.269 153.771 208.214 154.405 206.765 155.483 205.832 155.715 205.951 155.176 206.505 155.501 207.025 157.134 206.632 157.268 206.942 156.664 208.202 157.637 208.981 158.774 208.509 158.955 207.963 160.07 208.163 160.928 207.875 161.432 207.147 161.098 206.463 161.78 206.899 161.928 207.595 163.137 207.548 163.26 207.057 163.715 207.028 163.701 206.359 163.361 206.249 164.096 205.922 164.309 206.533 164.505 206.379 165 206.97 165.503 206.202 165.945 206.309 166.739 205.429 167.081 205.616 167.02 205.13 168.145 204.657 168.486 204.886 169.76 204.819 170.803 203.242 170.933 202.235 171.588 201.892 172.247 200.285 173.152 199.408 174.068 197.374 173.337 197.557 172.87 198.008 172.678 199.182 172.168 199.435 170.734 198.735 170.506 199.06 169.746 199.261 169.243 199.004 169.359 199.518 165.012 200.569 164.415 201.007 163.806 202.136 162.988 201.777 162.438 201.872 161.834 201.397 160.762 201.667 159.235 200.881 157.179 200.743 152.19 197.485 151.47 197.299 149.284 195.395 149.193 195.126 150.33 194.598 149.924 194.646 149.873 193.5 149.471 193.013 148.859 192.934 148.877 192.466 148.556 192.438 148.121 191.795 147.944 189.421 148.095 189.071 148.356 189.107 148.411 188.591 149.819 187.624 150.256 186.901 151.179 186.395 150.915 186.196 149.457 186.475 148.432 187.632 148.287 186.666 148.696 186.51 149.037 185.866 150.217 185.332 149.664 185.388 149.341 184.989 149.243 185.268 148.855 185.244 148.575 184.91 148.697 184.683 151.336 184.7 151.641 179.93 152.341 179.725 152.619 181.163 153.138 181.343 153.916 180.181 154.611 180.911 155.815 180.29 157.207 180.777 158.646 180.181 161.134 180.492 162.431 180.165 164.045 181.641 167.643 181.766 168.407 181.386 169.185 179.979 175.125 178.114 175.607 178.399 175.089 179.205 175.289 179.7 175.118 180.531 176.174 180.923 178.135 180.957 179.286 180.463 179.169 179.978 180.142 179.18 180.646 178.974 181.281 179.165 182.384 178.381 182.216 177.96 180.769 177.803 180.866 176.639 180.644 176.372 180.933 175.086 182.062 174.363Z"
            fill="#ffffff" fill-rule="evenodd" />
    </g>
</svg>