<svg width="120" height="120" xmlns="http://www.w3.org/2000/svg" xmlns:xlink="http://www.w3.org/1999/xlink"
    overflow="hidden">
    <defs>
        <clipPath id="clip0">
            <path d="M135 146 256 146 256 267 135 267Z" fill-rule="evenodd" clip-rule="evenodd" />
        </clipPath>
    </defs>
    <g clip-path="url(#clip0)" transform="translate(-135 -146)">
        <path d="M136 147 188.876 147 255 147 225.26 266 188.876 266 136 266Z" fill="#FFA07A" fill-rule="evenodd" />
        <path
            d="M167.159 258.067 167.516 258.504C167.819 258.876 167.927 258.908 168.231 258.719 168.599 258.491 168.653 258.557 170.363 261.265 170.459 261.417 170.578 262.081 170.63 262.74L170.723 263.939 171.929 263.963C173.284 263.989 174.633 264.409 174.596 264.792 174.582 264.931 174.515 265.252 174.449 265.506 174.356 265.862 174.421 266.025 174.738 266.219 175.176 266.487 175.21 266.466 175.743 265.585 175.887 265.347 176.169 265.266 176.813 265.275 177.492 265.285 177.729 265.21 177.877 264.937 178.103 264.517 178.795 264.463 178.795 264.866 178.795 265.02 178.962 265.619 179.166 266.196 179.633 267.517 179.633 267.945 179.162 268.367 178.833 268.663 178.66 268.681 177.725 268.513 176.362 268.269 175.284 268.399 174.769 268.868 174.173 269.413 172.256 269.754 172.011 269.36 171.809 269.035 170.405 268.466 169.794 268.461 169.048 268.455 168.501 267.916 167.389 266.088 166.817 265.146 166.317 264.534 166.072 264.474 165.77 264.399 165.697 264.27 165.762 263.927 165.826 263.599 165.767 263.479 165.543 263.479 165.085 263.479 164.974 262.961 165.345 262.554 165.617 262.257 165.631 262.147 165.432 261.908 165.231 261.668 165.258 261.53 165.601 261.071 165.911 260.651 165.996 260.316 165.955 259.664 165.902 258.863 165.939 258.784 166.529 258.437ZM162.395 252.971C162.547 252.971 164.032 254.582 165.634 256.489 166.875 257.964 166.866 257.789 165.73 258.602 165.407 258.833 165.396 258.929 165.605 259.621 165.811 260.308 165.798 260.425 165.474 260.78 165.005 261.292 164.893 261.656 165.087 262.032 165.19 262.231 165.151 262.412 164.969 262.561 164.572 262.889 164.628 263.497 165.066 263.611 165.269 263.664 165.436 263.823 165.436 263.963 165.436 264.277 165.475 264.282 163.673 263.723 161.212 262.959 161.075 262.927 160.34 262.927 159.883 262.927 159.544 262.812 159.385 262.603L159.28 262.002 159.31 263.048C160.014 264.151 160.008 264.448 159.271 265.022 158.675 265.485 158.675 265.485 158.881 266.464 159.053 267.288 159.041 267.494 158.798 267.766 158.474 268.131 158.273 268.172 158.106 267.904 158.043 267.802 157.838 267.72 157.65 267.72 157.463 267.72 156.737 267.374 156.037 266.951 155.337 266.529 154.347 265.986 153.837 265.745 153.327 265.503 152.701 265.187 152.445 265.041 152.19 264.895 151.772 264.772 151.517 264.77 151.262 264.767 150.929 264.686 150.777 264.591 150.547 264.447 150.603 264.312 151.112 263.792 151.689 263.199 151.715 263.114 151.597 262.224 151.475 261.312 151.494 261.257 152.236 260.42L153.002 259.556 153.002 258.006C153.002 256.986 152.905 256.272 152.722 255.919 152.465 255.425 152.469 255.367 152.781 255.202 153.173 254.994 153.962 255.149 155.374 255.713 155.96 255.947 156.768 256.104 157.375 256.104 158.809 256.104 159.674 256.493 159.71 257.155 159.762 258.095 159.664 258.55 159.207 259.446L159.245 260.787 159.612 259.336C160.01 258.473 160.076 258.122 159.98 257.399 159.888 256.713 159.923 256.493 160.136 256.412 160.457 256.289 161.261 255.087 161.85 253.847 162.078 253.365 162.323 252.971 162.395 252.971ZM139.739 251.914C140.031 251.975 140.632 252.154 141.791 252.503 142.956 252.854 144.221 253.351 144.602 253.609 145.43 254.168 146.064 254.198 146.694 253.709 147.06 253.425 147.454 253.347 148.563 253.344 149.909 253.34 149.999 253.367 150.746 254.001 151.174 254.365 151.773 255.024 152.078 255.463 152.59 256.202 152.632 256.387 152.632 257.877 152.632 259.484 152.629 259.496 151.914 260.339 151.232 261.141 151.199 261.239 151.288 262.16 151.376 263.073 151.343 263.176 150.754 263.788 150.408 264.147 149.77 264.596 149.334 264.785 148.898 264.974 148.493 265.255 148.433 265.41 148.361 265.596 148.078 265.691 147.595 265.691 147.195 265.691 146.682 265.806 146.456 265.947 146.11 266.162 143.712 266.613 142.914 266.613 142.783 266.613 142.179 265.639 141.571 264.447 140.558 262.458 140.397 262.244 139.606 261.827 138.568 261.278 138.589 261.37 138.414 256.693L138.288 253.317 138.968 252.76C139.342 252.454 139.599 252.128 139.541 252.035 139.464 251.911 139.447 251.853 139.739 251.914ZM155.852 247.256C156.594 247.256 157.828 248.362 157.828 249.028 157.828 249.516 157.237 250.206 156.816 250.206 156.481 250.206 155.231 251.464 155.231 251.801 155.23 252.145 154.034 252.126 153.683 251.776 153.531 251.626 153.38 251.419 153.344 251.317 153.31 251.216 152.78 250.94 152.168 250.705 151.161 250.319 151.049 250.222 150.997 249.692 150.943 249.159 151.006 249.079 151.696 248.805 152.112 248.639 152.62 248.293 152.824 248.035L153.195 247.567 153.627 247.97C153.981 248.3 154.147 248.342 154.537 248.194 154.798 248.096 155.068 247.844 155.134 247.635 155.223 247.356 155.412 247.256 155.852 247.256ZM158.651 247.2C158.825 247.295 159.077 247.566 159.569 248.102L160.567 249.191 160.204 249.902C159.845 250.603 159.845 250.618 160.196 251.008 160.394 251.225 160.605 251.549 160.669 251.726 160.749 251.951 160.982 252.048 161.439 252.048 161.955 252.048 162.095 252.122 162.095 252.394 162.095 252.873 160.667 255.574 160.206 255.966 159.757 256.35 159.763 256.35 158.966 256.006 158.622 255.858 157.857 255.736 157.265 255.736 156.563 255.736 155.877 255.598 155.291 255.338 154.718 255.084 153.988 254.934 153.27 254.923 152.187 254.907 152.111 254.873 151.183 254 150.24 253.115 150.218 253.07 150.218 252.041 150.218 250.572 150.437 250.432 151.948 250.932 152.782 251.207 153.193 251.451 153.33 251.753 153.61 252.363 155.414 252.704 155.414 252.148 155.414 251.695 156.507 250.609 157.187 250.387 157.93 250.143 158.113 249.677 157.934 248.486 157.834 247.829 157.879 247.635 158.192 247.353 158.378 247.185 158.476 247.105 158.651 247.2ZM148.178 244.43C148.178 244.498 148.045 244.7 147.882 244.879 147.516 245.282 147.685 245.597 148.266 245.597 148.573 245.597 148.833 245.805 149.134 246.288 149.369 246.669 149.79 247.17 150.068 247.404 150.502 247.768 150.581 247.988 150.628 248.971 150.671 249.865 150.612 250.184 150.359 250.436 150.116 250.678 150.033 251.062 150.033 251.957L150.033 253.155 148.491 253.155C147.422 253.155 146.839 253.239 146.589 253.426 146.081 253.81 145.34 253.772 144.779 253.334 144.262 252.928 144.191 252.902 141.39 252.061L139.519 251.5 138.847 249.332C138.101 246.922 137.847 245.745 138.09 245.811 138.583 245.944 143.135 245.528 143.559 245.31 143.831 245.17 144.731 245 145.559 244.932 146.461 244.857 147.146 244.707 147.272 244.557 147.485 244.302 148.178 244.205 148.178 244.43ZM163.07 239.515C163.237 239.514 163.257 243.286 163.093 244.099 162.951 244.805 162.317 245.22 160.426 245.845 159.57 246.128 158.736 246.559 158.26 246.965 157.415 247.686 157.13 247.771 156.967 247.348 156.847 247.039 155.045 246.94 155.045 247.243 155.045 247.497 154.498 247.994 154.219 247.994 154.086 247.994 153.867 247.862 153.732 247.702 153.521 247.45 153.59 247.321 154.22 246.774 154.622 246.424 155.41 245.793 155.972 245.372 156.971 244.622 159.394 242.552 159.701 242.186 159.786 242.085 160.124 241.684 160.451 241.297 160.971 240.681 162.676 239.52 163.07 239.515ZM153.561 238.869C153.81 238.716 155.264 239.578 155.412 239.966 155.497 240.188 156.075 240.636 156.708 240.971 157.526 241.404 157.936 241.754 158.151 242.203 158.443 242.81 158.439 242.845 158.001 243.317 157.753 243.585 156.965 244.25 156.251 244.794 154.064 246.461 152.792 247.532 152.605 247.865 152.463 248.118 151.348 248.732 151.033 248.732 150.993 248.731 150.962 248.518 150.962 248.257 150.962 247.939 150.723 247.57 150.236 247.135 149.836 246.779 149.408 246.246 149.285 245.95 149.163 245.655 148.967 245.412 148.852 245.41 148.737 245.409 148.522 245.33 148.373 245.237 147.925 244.956 148.628 244.365 149.579 244.224 150.03 244.156 150.471 243.975 150.557 243.822 150.644 243.669 151.083 243.497 151.534 243.44 152.721 243.292 153.652 242.372 153.184 241.813 153.02 241.615 153.024 241.245 153.203 240.249 153.332 239.532 153.493 238.91 153.561 238.869ZM172.094 238.592C172.727 238.592 173.424 239.304 173.934 240.472 174.268 241.237 174.462 241.412 175.601 241.983 176.916 242.64 177.69 243.369 178.199 244.433 178.361 244.771 178.705 245.105 178.992 245.205 179.514 245.386 180.274 246.444 182.027 249.433 182.992 251.076 183.011 251.196 182.776 253.74 182.671 254.875 182.693 254.986 183.067 255.185 183.403 255.364 183.655 255.319 184.543 254.923 185.955 254.295 186.827 254.31 188.087 254.988 189.464 255.729 190.343 257.136 190.44 258.754 190.524 260.148 190.783 260.714 191.336 260.714 191.602 260.714 191.969 260.986 192.353 261.467L192.952 262.22 192.373 262.796C191.9 263.265 191.664 263.363 191.096 263.325 190.711 263.299 190.223 263.116 190.012 262.918 189.673 262.603 189.355 262.558 187.411 262.562 184.549 262.566 183.983 262.83 183.144 264.56 182.573 265.734 182.082 266.238 181.859 265.879 181.652 265.546 180.424 265.668 180 266.063 179.782 266.266 179.549 266.378 179.481 266.31 179.415 266.244 179.305 265.786 179.239 265.295 179.123 264.429 179.1 264.401 178.503 264.401 178.113 264.401 177.821 264.518 177.708 264.718 177.576 264.953 177.335 265.021 176.774 264.981 176.123 264.934 175.94 265.009 175.466 265.527 175.036 265.995 174.89 266.066 174.806 265.849 174.747 265.696 174.788 265.336 174.899 265.048 175.008 264.761 175.033 264.464 174.953 264.388 174.625 264.081 172.352 263.537 171.721 263.616L171.049 263.699 170.966 262.622C170.895 261.702 170.726 261.296 169.813 259.843L168.742 258.141 169.687 255.562C170.206 254.143 170.63 252.711 170.629 252.378 170.625 251.418 169.762 248.987 168.934 247.601 168.046 246.119 167.682 245.183 167.67 244.367 167.663 243.909 167.82 243.648 168.397 243.157 168.879 242.747 169.268 242.18 169.527 241.508 170.056 240.133 171.414 238.592 172.094 238.592ZM154.292 236.432C155.595 236.488 157.374 236.627 159.401 236.84 162.199 237.133 162.406 237.183 163.075 237.709 163.478 238.026 163.761 238.396 163.729 238.567 163.699 238.732 163.154 239.121 162.519 239.433 161.306 240.026 159.977 241.117 159.786 241.673 159.725 241.854 159.475 242.146 159.23 242.323 158.789 242.64 158.778 242.635 158.382 241.999 158.136 241.605 157.553 241.121 156.884 240.757 156.281 240.428 155.743 240.023 155.689 239.857 155.574 239.508 154.252 238.591 153.863 238.591 153.719 238.591 153.612 238.446 153.627 238.268 153.647 238.026 153.489 237.932 152.999 237.891 152.473 237.847 152.296 237.726 152.095 237.277 151.921 236.887 151.905 236.659 152.04 236.524 152.162 236.403 152.989 236.376 154.292 236.432ZM167.801 235.615C168.02 235.73 168.398 235.825 168.643 235.825 169.15 235.825 170.336 236.891 170.926 237.876L171.31 238.519 170.444 239.481C169.967 240.009 169.462 240.793 169.322 241.222 169.18 241.66 168.667 242.426 168.154 242.968L167.242 243.935 167.456 244.997C167.581 245.619 168.023 246.663 168.525 247.521 169.547 249.271 170.263 251.261 170.263 252.359 170.263 253.263 168.73 257.659 168.23 258.185 167.932 258.499 167.868 258.463 166.909 257.434 164.435 254.784 162.282 252.241 162.282 251.973 162.282 251.762 162.101 251.681 161.632 251.681 161.275 251.681 160.983 251.598 160.983 251.496 160.983 251.395 160.806 251.136 160.59 250.921L160.197 250.531 160.572 249.862 160.947 249.192 159.961 248.103C159.42 247.504 159.019 246.904 159.071 246.768 159.124 246.633 159.513 246.43 159.936 246.318 160.359 246.206 161.298 245.843 162.022 245.512L163.339 244.91 163.461 244.029C163.527 243.545 163.582 242.305 163.582 241.274 163.582 239.149 163.805 238.45 164.51 238.368 164.845 238.33 164.991 238.186 165.038 237.854 165.111 237.31 165.774 236.542 166.112 236.609 166.243 236.634 166.587 236.374 166.877 236.029 167.338 235.483 167.456 235.431 167.801 235.615ZM149.373 233.799C149.431 233.799 149.479 234.162 149.479 234.606 149.479 235.057 149.588 235.504 149.728 235.619 150.204 236.011 151.116 236.069 151.795 235.748 152.713 235.316 154.222 235.161 154.587 235.462 155.028 235.826 154.594 236.005 153.266 236.008 152.409 236.01 152.06 236.093 151.828 236.347 151.543 236.661 151.543 236.738 151.846 237.452 152.134 238.133 152.24 238.219 152.786 238.221 153.285 238.223 153.383 238.284 153.304 238.546 153.25 238.723 153.069 239.473 152.903 240.213 152.661 241.289 152.647 241.611 152.831 241.832 153.193 242.265 152.203 243.201 151.385 243.201 151.034 243.201 150.52 243.379 150.205 243.611 149.771 243.93 149.39 244.022 148.479 244.026 147.836 244.028 147.193 244.124 147.049 244.237 146.905 244.351 146.412 244.493 145.952 244.553 145.493 244.615 144.742 244.755 144.282 244.865 143.194 245.128 141.603 245.342 139.639 245.491L138.055 245.61 138.004 243.806C137.977 242.8 138.082 241.228 138.241 240.251 138.399 239.288 138.528 238.068 138.528 237.54 138.529 237.013 138.623 236.377 138.738 236.127 138.929 235.712 139.028 235.68 139.897 235.759 144.749 236.194 145.248 236.151 146.269 235.226 146.495 235.022 146.979 234.831 147.347 234.802 147.712 234.773 148.295 234.536 148.641 234.274 148.986 234.013 149.315 233.799 149.373 233.799ZM161.279 232.449C161.456 232.516 162.189 233.186 162.908 233.938 164.358 235.455 164.013 235.354 166.503 234.984 166.937 234.919 167.29 234.937 167.287 235.024 167.277 235.282 166.162 236.424 166.038 236.302 165.858 236.123 164.694 237.338 164.694 237.707 164.694 238.246 163.939 238.094 163.116 237.389 162.603 236.95 162.189 236.753 161.774 236.751 160.971 236.748 155.577 236.202 155.257 236.093 154.784 235.932 155.372 235.527 156.414 235.295 156.971 235.171 157.568 234.901 157.761 234.685 157.952 234.473 158.532 234.11 159.051 233.88 159.571 233.649 160.212 233.205 160.477 232.893 160.812 232.498 161.055 232.363 161.279 232.449ZM168.961 223.996 169.745 224.128C170.177 224.2 171.492 224.512 172.668 224.82 174.191 225.219 175.472 225.417 177.125 225.51 179.149 225.624 182.77 226.234 184.715 226.789 185.249 226.941 185.549 226.884 186.652 226.424 187.37 226.125 187.989 225.912 188.027 225.95 188.229 226.149 188.69 228.303 188.715 229.16 188.743 230.14 188.747 230.145 189.661 230.635 190.897 231.298 191.414 232.293 191.414 234.018 191.414 234.965 191.53 235.519 191.898 236.33 192.19 236.974 192.419 237.873 192.477 238.606 192.583 239.965 192.412 240.423 191.211 242.003 190.351 243.137 190.066 244.572 190.554 245.313 190.72 245.565 190.856 245.88 190.856 246.014 190.856 246.423 192.755 248.118 193.64 248.498 194.099 248.695 194.875 249.201 195.364 249.622 196.381 250.497 197.443 250.858 199.739 251.108 201.256 251.275 201.311 251.298 202.19 252.157 202.684 252.641 203.138 253.267 203.202 253.549 203.264 253.832 203.482 254.274 203.687 254.532 203.996 254.922 204.214 255.001 204.975 255.001 205.773 255.001 205.963 255.079 206.441 255.601 206.931 256.135 206.991 256.33 206.994 257.414L207 258.629 205.536 259.756C203.892 261.022 203.949 260.884 203.697 264.141 203.573 265.742 203.532 265.863 202.778 266.853 202.179 267.641 201.988 268.058 201.983 268.589 201.978 269.386 201.614 270.164 201.338 269.97 201.237 269.899 200.929 269.495 200.655 269.074 200.176 268.342 200.098 268.3 198.801 268.094 196.56 267.738 196.665 267.818 196.027 265.966 195.418 264.198 195.147 263.779 194.338 263.364 194.058 263.22 193.828 263.015 193.828 262.907 193.828 262.566 191.928 260.531 191.609 260.531 191.092 260.531 190.858 260.126 190.858 259.231 190.858 256.588 188.42 253.928 186.182 254.129 185.701 254.171 184.89 254.413 184.378 254.665 183.738 254.979 183.388 255.063 183.256 254.932 183.002 254.681 183.01 253.048 183.266 252.572 183.587 251.977 183.194 250.824 181.982 248.796 179.92 245.35 179.684 245.027 179.152 244.922 178.802 244.852 178.556 244.618 178.34 244.149 177.864 243.111 177.26 242.529 175.885 241.783 174.478 241.02 174.205 240.759 174.039 240.022 173.878 239.305 172.62 238.224 171.947 238.224 171.506 238.224 171.321 238.075 170.924 237.4 170.345 236.419 169.382 235.643 168.745 235.643 168.491 235.643 168.099 235.448 167.874 235.21 167.521 234.837 167.493 234.703 167.668 234.244 167.78 233.952 167.917 233.006 167.972 232.143 168.026 231.28 168.188 230.164 168.331 229.664 168.473 229.164 168.589 228.443 168.589 228.062 168.589 227.681 168.674 227.317 168.775 227.255 168.878 227.192 168.961 226.433 168.961 225.568ZM159.072 223.485C160.602 223.484 162.027 223.583 163.149 223.782 164.788 224.073 164.931 224.071 165.99 223.753 166.931 223.47 167.22 223.452 167.846 223.638L168.588 223.859 168.588 225.408C168.588 226.26 168.505 227.008 168.403 227.071 168.3 227.133 168.217 227.631 168.217 228.176 168.217 228.721 168.129 229.399 168.02 229.683 167.912 229.967 167.779 230.906 167.725 231.769 167.671 232.633 167.546 233.608 167.444 233.938 167.287 234.452 167.177 234.537 166.664 234.537 166.335 234.537 165.986 234.614 165.889 234.707 165.792 234.8 165.412 234.931 165.046 234.998 164.4 235.116 164.336 235.075 163.004 233.654 161.399 231.938 160.855 231.704 160.382 232.523 160.187 232.859 159.693 233.245 159.112 233.512 158.589 233.753 157.94 234.153 157.669 234.403 157.171 234.861 154.858 235.561 154.858 235.253 154.858 234.951 152.571 235.083 151.795 235.43 151.244 235.677 150.9 235.722 150.451 235.605 149.856 235.449 149.847 235.433 149.847 234.346 149.847 233.741 149.784 233.246 149.708 233.246 149.631 233.246 149.156 233.536 148.655 233.891 148.152 234.246 147.671 234.537 147.588 234.537 147.285 234.537 147.443 233.883 147.8 233.662 148.001 233.537 148.509 233.003 148.929 232.476 149.638 231.584 149.689 231.444 149.647 230.492 149.591 229.216 149.77 228.556 150.415 227.672 150.691 227.292 151.145 226.335 151.422 225.545L151.925 224.108 154.366 223.789C155.908 223.588 157.542 223.486 159.072 223.485ZM145.279 222C145.895 222 149.187 223.252 149.929 223.768 150.134 223.91 150.576 224.028 150.911 224.028 151.246 224.028 151.52 224.096 151.52 224.18 151.52 224.647 150.549 227.059 150.154 227.574 149.46 228.477 149.248 229.162 149.281 230.395 149.306 231.36 149.238 231.607 148.762 232.26 148.46 232.674 147.955 233.195 147.64 233.418 147.325 233.641 147.067 233.921 147.067 234.041 147.067 234.542 144.976 235.845 144.247 235.799 144.01 235.784 142.774 235.694 141.498 235.598 140.223 235.501 139.144 235.39 139.102 235.349 139.06 235.308 139.123 235.063 139.242 234.805 139.361 234.546 139.458 233.82 139.458 233.191 139.458 231.947 140.013 228.806 140.443 227.617 140.589 227.209 141.051 226.213 141.466 225.406 142.083 224.205 142.444 223.758 143.435 222.968 144.364 222.228 144.797 222 145.279 222Z"
            fill="#ffffff" fill-rule="evenodd" />
    </g>
</svg>