<svg width="120" height="120" xmlns="http://www.w3.org/2000/svg" xmlns:xlink="http://www.w3.org/1999/xlink"
    overflow="hidden">
    <defs>
        <clipPath id="clip0">
            <path d="M135 146 256 146 256 267 135 267Z" fill-rule="evenodd" clip-rule="evenodd" />
        </clipPath>
    </defs>
    <g clip-path="url(#clip0)" transform="translate(-135 -146)">
        <path d="M136 147 188.876 147 255 147 225.26 266 188.876 266 136 266Z" fill="#FFA07A"  fill-rule="evenodd" />
        <path d="M152 159.768 154.624 159 154.966 159.64 154.467 160.291 155.041 160.44 154.935 160.731 155.827 160.614 155.788 161.778 156.528 161.643 156.591 160.975 157.943 161.432 157.782 162.348 158.122 162.695 159.008 162.523 159.457 163.853 160.584 162.81 161.656 163.373 160.587 163.821 160.677 164.799 161.804 165.393 161.929 166.123 163.472 165.257 163.641 166.037 162.469 166.217 162.448 167.166 163.618 168.022 163.57 169.732 164.903 169.737 166.875 172.616 168.095 172.795 168.668 173.884 169.489 173.69 169.812 174.503 171.544 174.309 172.062 176.156 173.159 177.082 175.625 177.452 178.003 176.446 178.006 178.983 179.598 178.715 180.32 180.068 181.442 179.995 182.761 181.542 184.284 181.061 184.519 181.832 184.047 182.171 184.614 183.057 184.614 183.057 184.642 183.822 183.704 183.842 183.077 184.684 181.983 185.075 181.419 184.469 180.472 185.073 180.772 187.296 181.567 186.979 182.465 187.613 182.733 187.315 184.341 187.848 185.137 188.954 186.417 189.69 187.019 189.586 187.061 190.842 185.096 192.154 185.229 193.219 185.96 192.74 188.797 193.103 190.345 192.135 190.945 192.611 190.224 193.975 191.221 194.466 191.187 196.029 192.347 196.137 190.546 196.37 189.344 198.64 192.873 199.96 193.353 201.104 194.356 201.269 194.549 201.885 193.669 203.904 194.027 204.873 192.61 204.939 193.128 205.812 192.659 209.408 193.329 210.576 192.917 211.936 193.312 212.308 193.852 212.046 193.81 212.532 194.715 213.425 196.083 213.765 197.503 212.931 197.782 212.143 200.111 210.858 201.351 210.985 201.191 211.714 201.947 212.814 201.863 213.513 202.573 213.795 202.14 215.656 200.631 216.217 201.895 217.744 202.124 219.155 201.614 219.377 200.869 220.998 201.383 221.356 201.074 222.083 201.598 222.633 201.092 222.814 201.059 224.042 200.675 224.172 199.878 226.482 200.801 226.521 202.04 227.347 203.073 226.756 203.502 227.384 203.84 226.712 204.042 228.161 205 228.788 204.63 229.753 203.701 230.168 203.22 232.341 202.65 232.352 202.288 233.12 202.288 234.848 201.655 235.473 201.973 236.235 200.801 237.383 200.513 238.477 199.467 238.995 200.473 240.36 200.478 241.018 200.987 240.982 201.789 242.205 201.195 243.962 200.396 244.818 199.952 244.765 202.253 248.97 201.884 249.729 200.604 249.897 201.086 251.066 199.521 252.309 200.042 253.697 199.251 253.477 198.717 254 198.717 254 196.169 252.17 188.98 242.689 187.187 241.298 186.61 238.855 182.821 230.487 180.714 218.902 181.046 218.814 181.936 220.496 183.297 221.936 183.299 224.492 183.916 224.919 183.224 228.181 183.77 228.578 183.77 228.166 186.256 228.055 184.457 227.324 184.753 226.37 184.567 225.544 184.177 225.608 184.41 224.566 183.757 224.425 183.647 221.022 182.867 219.867 182.524 219.978 182.769 220.617 182.42 220.517 180.97 217.539 181.285 216.496 180.05 215.065 180.842 218.571 180.435 218.653 177.821 210.131 173.856 201.428 172.756 196.642 170.202 189.548 169.089 187.535 167.721 186.923 166.149 182.578 163.274 179.259 162.232 178.804 160.357 175.695 159.618 175.309 159.007 175.707 158.593 173.8 154.227 165.213 152 159.768Z" fill="#ffffff" fill-rule="evenodd"/>
    </g>
</svg>