<svg width="120" height="120" xmlns="http://www.w3.org/2000/svg" xmlns:xlink="http://www.w3.org/1999/xlink"
    overflow="hidden">
    <defs>
        <clipPath id="clip0">
            <path d="M135 146 256 146 256 267 135 267Z" fill-rule="evenodd" clip-rule="evenodd" />
        </clipPath>
    </defs>
    <g clip-path="url(#clip0)" transform="translate(-135 -146)">
        <path d="M136 147 188.876 147 255 147 225.26 266 188.876 266 136 266Z" fill="#FFA07A"  fill-rule="evenodd" />
<path d="M155.399 196.272 155.018 195.994 155.498 195.892 155.459 195.356 156.413 194.875 156.71 194.437 157.004 195.04 157.549 195.066 158.489 194.6 158.805 193.645 158.225 193.538 158.609 193.001 158.859 193.541 159.093 193.53 158.838 192.871 159.852 190.979 159.413 190.758 158.815 191.052 158.531 190.81 159.391 190.027 160.097 190.343 160.055 189.533 160.405 188.972 160.278 188.39 159.235 188.031 159.218 187.717 158.339 187.564 158.088 187.888 158.281 187.569 157.948 187.112 157.979 186.375 158.208 186.22 158.448 186.573 158.544 186.171 158.202 186.087 158.153 185.384 157.602 185.291 157.649 184.698 157.246 185.059 157.044 184.803 157.466 184.687 157.345 184.126 157.833 184.704 158.031 184.005 158.499 183.956 158.46 184.205 158.814 184.353 158.99 183.661 159.882 183.305 159.946 182.543 160.214 183.009 160.905 182.919 161.198 184.025 162.004 183.701 162.087 183.279 162.703 183.31 162.316 182.859 162.778 182.349 162.804 181.801 164.833 181.043 165.724 181.055 165.57 179.883 166.245 179.584 166.286 179.208 165.765 178.932 165.912 178.723 167.102 178.715 167.123 178.932 167.88 178.618 168.536 179.643 169.164 179.643 169.081 180.073 169.504 180.096 170.37 179.633 170.443 178.535 171.179 178.566 171.819 178.24 172.288 178.416 172.765 178.117 173.083 178.697 174.09 178.414 174.161 177.812 174.597 177.875 174.612 178.333 175.057 178.586 175.439 178.46 175.409 177.43 175.04 177.421 175.489 177.06 175.49 176.633 174.837 175.595 175.278 175.074 175.249 174.348 174.551 173.776 174.644 173.242 174.278 173.14 174.197 172.687 174.679 172.565 174.935 171.393 175.478 171.661 175.654 172.281 176.247 172.154 177.092 172.862 177.382 172.141 177.864 172.648 178.191 172.217 178.273 173.088 178.759 173.492 180.355 173.079 180.668 173.41 181.218 172.914 181.76 173.262 181.923 173.86 181.879 173.155 182.811 172.801 183.218 173.405 184.095 173.139 184.206 173.677 184.587 173.66 184.928 172.874 184.333 172.796 184.477 171.984 183.966 172.012 183.929 171.513 184.501 171.175 184.093 171.163 184.386 170.783 184.048 170.504 183.94 169.789 185.027 169.66 185.196 169.11 185.979 168.887 185.941 168.163 186.424 168.14 186.424 167.542 187.066 167.527 187.065 168.319 187.599 167.413 188.229 168.516 188.584 168.624 188.682 167.992 189.063 167.843 188.909 167.228 189.518 167.157 189.847 166.617 189.191 166.198 189.233 165.636 190.036 166.043 191.507 165.401 191.523 163.781 192.001 163.692 191.902 163.224 192.177 162.903 191.585 162.642 191.994 161.698 192.431 161.648 192.898 162.003 193.013 161.713 193.334 162.145 193.997 162.14 193.824 161.557 194.529 161.262 194.795 160.378 195.256 160.419 195.116 159.941 195.758 159.145 195.696 158.621 196.695 158 197.015 158.324 197.371 158.085 197.373 158.731 197.895 158.898 197.231 159.969 198.235 160.026 198.61 160.666 199.19 160.412 199.181 160.023 199.704 160.235 199.704 160.235 200.39 160.419 199.89 161.483 200.323 162.151 200.359 162.871 199.65 163.498 200.252 164.096 200.95 164.329 201.043 164.657 200.921 164.971 200.659 164.815 200.567 165.567 200.16 165.495 200.309 166.013 200 165.98 199.702 166.73 199.394 166.611 199.199 166.959 199.116 167.217 199.912 167.469 199.861 167.703 198.415 168.467 198.281 169.972 198.929 170.18 199.079 170.527 199.413 170.084 199.684 170.41 200.22 170.228 200.245 170.64 201.46 171.009 201.439 171.458 200.974 171.344 201.034 171.042 200.875 171.415 200.494 171.499 200.489 171.851 200.005 171.714 199.997 172.052 199.189 172.083 199.518 172.4 199.421 172.837 199.046 173.083 198.431 172.86 198.204 173.984 198.469 174.153 197.51 174.921 197.748 175.071 197.246 175.714 198.574 176.5 199.05 177.821 198.455 179.162 198.685 180.933 198.25 180.877 198.067 181.813 198.629 181.848 198.606 182.306 197.978 182.517 198.19 182.86 198.662 182.735 198.595 183.588 197.654 183.847 197.963 184.491 197.494 184.588 197.329 184.95 196.427 184.85 196.367 185.093 195.632 185.169 196.273 186.053 197.027 186.37 197.917 186.602 198.988 186.424 200.244 186.944 200.228 187.634 199.9 187.486 199.496 187.963 199.075 187.893 198.898 188.138 198.914 188.484 199.198 188.497 198.847 189.377 198.886 189.959 199.181 190.125 198.939 191.116 199.189 191.501 199.181 192.606 199.181 192.606 195.809 192.104 194.444 192.337 193.442 192.898 192.876 193.814 193.415 193.931 193.147 195.134 194.205 196.156 194.091 196.616 193.641 196.24 192.966 196.497 192.931 198.31 192.223 198.224 192.204 198.433 192.941 199.188 193.383 200.722 194.005 200.648 194.08 201.155 194.5 201.211 194.71 201.571 194.15 202.083 194.632 202.453 194.626 203.06 194.295 203.145 194.578 203.444 193.606 205.073 193.116 205 193.192 204.679 192.594 204.674 192.35 204.933 190.99 204.686 189.958 203.846 189.664 204.108 189.798 204.848 189.529 205.48 190.358 205.735 190.831 205.558 190.628 207.719 189.743 208.053 189.972 208.655 189.482 210.444 189.994 211.446 190.354 211.509 190.906 212.245 192.241 212.113 191.858 212.56 191.83 213.174 191.461 212.985 191.074 213.299 191.022 213.889 191.94 214.595 191.614 214.889 191.781 215.321 193.228 215.328 193.56 215.734 193.946 215.682 194.034 214.682 194.554 214.005 195.587 214.365 196.223 214.095 196.203 214.835 197.233 214.927 197.183 215.456 197.551 215.97 197.963 215.7 197.437 214.578 197.575 214.179 198.308 214.382 198.469 214.888 199.006 214.894 199.06 216.52 197.628 216.327 197.46 216.808 197.085 216.878 197.044 217.259 197.628 216.956 197.703 217.159 196.806 218.242 197.546 218.452 197.446 218.966 198.158 218.971 197.861 219.41 198.116 219.771 197.656 220.165 197.638 219.926 197.093 219.941 197.164 218.788 196.642 218.217 194.493 218.663 194.153 217.983 192.893 217.834 192.694 217.231 192.843 216.226 191.831 216.003 191.77 216.318 191.18 216.411 191.08 216.788 191.641 216.839 192.262 217.673 191.694 218.245 193.05 219.551 193.12 219.929 192.81 219.984 192.178 221.045 192.49 222.01 192.735 222.142 192.928 221.622 193.364 222.06 193.82 221.764 194.743 221.847 194.687 220.96 194.19 220.575 194.69 220.473 194.606 219.897 194.878 219.661 194.901 220.434 195.239 220.148 195.325 220.413 195.613 219.962 195.828 220.708 196.559 220.469 196.728 220.893 197.239 220.624 198.081 220.766 197.876 221.249 198.507 221.278 198.407 222.907 198.837 222.854 198.894 222.491 199.216 222.774 199.312 221.993 199.783 222.361 200.295 221.996 200.626 222.214 200.827 222.108 200.487 221.837 200.987 221.563 201.26 221.54 201.176 221.879 201.588 221.757 201.758 222.142 201.811 221.366 202.661 221.066 202.629 220.757 203.298 220.425 203.022 219.779 203.176 219.426 204.065 219.476 204.384 219.933 205.093 219.216 205.243 219.985 204.783 220.161 204.81 220.972 205.085 220.969 205.336 220.411 206.017 220.528 206.06 220.073 206.997 220.689 207.058 221.548 206.627 222.131 206.943 222.444 206.891 222.791 206.357 222.74 206.283 223.025 206.573 223.45 207.543 223.271 207.605 223.61 208.038 223.707 207.899 224.51 208.474 224.096 210.584 224.218 210.123 227.21 210.67 227.515 210.276 227.68 210.59 227.899 211.02 227.693 211.169 227.971 211.632 227.843 212.267 228.544 212.718 227.956 213 228.458 212.886 229.232 212.527 229.46 212.891 229.871 212.111 230.366 212.359 230.664 212.022 230.874 212.057 231.262 211.371 231.546 211.453 232.46 210.997 232.388 211.167 233.298 210.423 233.371 209.997 232.931 209.449 234.013 208.647 234.01 208.382 235.279 208.382 235.279 207.089 235.046 206.132 234.078 205.72 234.031 205.546 234.706 205.287 234.703 204.823 233.984 204.554 234.461 204.353 234.35 204.679 233.894 204.463 233.595 202.744 234.192 202.933 234.82 202.052 236.463 201.695 236.333 201.365 236.663 201.054 236.326 200.226 236.549 200.323 237.037 199.963 237.88 200.073 238.561 200.433 238.657 200.032 239.077 200.677 238.959 200.61 239.878 200.4 240.608 199.61 241.544 198.671 241.836 198.613 242.632 201.986 243.098 202.53 243.922 201.508 245.198 201.133 246.155 198.854 246.232 198.757 246.984 198.445 246.816 198.49 247.475 198.011 248.654 197.238 248.279 196.806 248.543 196.272 248.018 195.714 247.964 195.524 248.213 193.916 248.487 194 249.157 193.512 248.994 193.317 248.301 192.874 248.466 192.995 248.21 192.642 247.956 192.233 247.982 192.062 248.461 191.287 248.219 190.366 250.073 190.656 250.636 190.48 251 190.211 250.698 189.301 250.521 186.892 250.526 186.638 249.722 186.169 249.355 185.485 249.927 185.124 249.871 185.124 249.871 184.775 249.314 185.066 249.101 184.92 248.617 183.98 248.919 183.166 247.948 182.473 247.995 182.027 247.145 181.044 247.313 181.042 245.721 179.574 246.352 178.051 246.12 177.373 245.539 177.054 244.38 175.984 244.501 175.785 243.991 175.278 244.112 174.924 243.429 174.171 243.317 172.953 241.509 172.13 241.506 172.159 240.433 171.437 239.896 171.45 239.3 172.174 239.187 172.07 238.697 171.116 239.241 171.039 238.783 170.344 238.41 170.288 237.796 170.948 237.515 170.286 237.161 169.59 237.816 169.313 236.981 168.766 237.089 168.556 236.872 168.656 236.296 167.821 236.009 167.782 236.429 167.325 236.514 167.349 235.784 166.798 235.857 166.864 235.674 166.509 235.581 166.817 235.172 166.606 234.771 164.986 235.252 164.986 235.252 164.389 233.943 162.761 227.307 162.444 223.469 161.618 220.342 161.143 219.266 160.643 219.02 160.256 218.243 159.86 216.08 159.482 215.538 158.343 211.778 158.854 211.396 158.483 211.093 158.371 211.52 157.771 211.539 157.578 210.449 157.254 210.108 157.452 209.929 157.214 208.921 156.801 208.475 156.416 208.88 155 207.79 155.363 207.707 155.46 207.148 155.215 207.14 155.025 206.48 155.025 206.48 155.568 206.145 156.034 206.301 155.992 205.733 156.506 206.133 157.26 205.522 157.151 205.196 157.677 204.532 157.367 203.775 157.512 203.136 157.93 202.584 157.734 202.054 157.097 201.588 158.186 201.111 158.014 200.105 157.423 199.816 157.421 199.078 157.082 198.449 157.482 197.955 157.055 197.416 157.24 196.824 157.068 196.219 156.761 196.052 156.524 196.289 156.225 195.856 156.009 196.248 155.399 196.272Z" fill="#ffffff" fill-rule="evenodd"/></g></svg>