<svg width="120" height="120" xmlns="http://www.w3.org/2000/svg" xmlns:xlink="http://www.w3.org/1999/xlink"
    overflow="hidden">
    <defs>
        <clipPath id="clip0">
            <path d="M135 146 256 146 256 267 135 267Z" fill-rule="evenodd" clip-rule="evenodd" />
        </clipPath>
    </defs>
    <g clip-path="url(#clip0)" transform="translate(-135 -146)">
        <path d="M136 147 188.876 147 255 147 225.26 266 188.876 266 136 266Z" fill="#FFA07A" fill-rule="evenodd" />
        <path
            d="M198.144 233.693C198.445 233.797 198.578 234.038 198.671 234.649 198.736 235.07 198.895 235.291 199.401 235.665L199.762 235.931 201.288 235.931C202.636 235.931 202.891 235.906 203.477 235.717 204.193 235.486 204.333 235.505 204.333 235.833 204.333 236.458 204.44 236.626 205.289 237.326 205.75 237.707 206.323 238.147 206.563 238.303L206.998 238.588 207 239.3C207.002 240.072 206.912 240.314 206.186 241.501 205.689 242.315 205.69 242.31 205.621 243.717 205.567 244.821 205.525 245.065 205.328 245.467 204.965 246.207 204.431 247.058 203.941 247.679 203.548 248.175 203.448 248.251 203.184 248.251 203.016 248.251 202.603 248.336 202.267 248.44 201.601 248.645 201.296 248.965 201.295 249.462 201.295 249.608 201.18 249.841 201.018 250.025 200.757 250.321 200.703 250.341 200.058 250.373 199.682 250.392 199.341 250.441 199.299 250.482 199.258 250.523 199.197 251.203 199.164 251.992 199.104 253.396 199.094 253.448 198.72 254.389 198.112 255.919 197.573 256.323 196.785 255.84 196.489 255.658 196.325 255.641 194.715 255.623 192.748 255.601 192.644 255.631 192.644 256.202 192.644 256.694 193.004 257.797 193.248 258.055 193.454 258.272 193.467 258.351 193.457 259.316L193.448 260.346 192.882 260.288C192.451 260.244 192.29 260.261 192.208 260.36 192.033 260.57 191.878 261.739 191.949 262.307 192.008 262.777 192.065 262.879 192.564 263.41 193.009 263.884 193.282 264.075 194.006 264.421 194.497 264.656 195.325 264.99 195.847 265.164 196.368 265.338 197.018 265.578 197.29 265.698 197.725 265.889 197.778 265.941 197.732 266.129 197.702 266.247 197.566 266.488 197.429 266.664 197.293 266.84 197.066 267.242 196.925 267.556 196.567 268.358 196.626 268.708 197.229 269.365 197.483 269.641 197.967 270.265 198.306 270.752 199.025 271.786 199.038 271.671 198.08 272.777 197.071 273.944 196.801 274.047 196.59 273.347 196.475 272.966 196.255 272.801 195.862 272.801 195.62 272.801 194.138 274.088 193.875 274.526 193.633 274.931 193.433 275 192.506 275 192.158 275 191.897 274.955 191.841 274.885 191.579 274.559 191.437 274.136 191.492 273.848 191.624 273.144 191.066 271.363 190.665 271.209 190.324 271.079 190.008 271.157 189.742 271.434 189.593 271.589 189.197 271.899 188.861 272.122 188.294 272.497 188.207 272.526 187.645 272.526L187.041 272.526 186.985 272.825C186.954 272.989 186.975 273.245 187.031 273.393 187.12 273.625 187.109 273.684 186.955 273.805 186.857 273.882 186.709 274.08 186.625 274.244 186.507 274.48 186.418 274.542 186.202 274.542 185.958 274.542 185.927 274.511 185.927 274.264 185.927 273.963 186.214 273.326 186.483 273.03 186.574 272.93 186.703 272.586 186.769 272.265 186.881 271.722 186.876 271.675 186.712 271.556 186.359 271.298 186.058 271.397 185.435 271.977L184.845 272.527 184.163 272.527C183.199 272.527 183.024 272.359 182.517 270.951L182.132 269.88 181.8 269.852C181.491 269.826 181.463 269.798 181.393 269.447 181.326 269.106 181.277 269.053 180.905 268.911 180.517 268.764 180.466 268.763 180.103 268.906 179.889 268.99 179.508 269.173 179.254 269.314 178.82 269.555 178.763 269.564 178.236 269.476 177.707 269.388 177.659 269.396 177.317 269.627 177.119 269.761 176.915 269.869 176.863 269.868 176.812 269.867 176.589 269.696 176.368 269.489L175.966 269.111 176.114 268.801C176.196 268.63 176.263 268.366 176.263 268.215 176.263 268.032 176.396 267.765 176.655 267.424 177.029 266.93 177.048 266.873 177.107 266.076 177.219 264.581 177.235 264.542 177.989 263.96L178.656 263.445 178.653 262.742C178.65 262.092 178.629 262.015 178.378 261.741 178.143 261.483 178.047 261.443 177.659 261.443 177.136 261.443 176.974 261.306 176.823 260.743 176.758 260.498 176.594 260.248 176.363 260.04 175.881 259.607 175.757 259.552 175.112 259.482 173.853 259.344 173.322 259.153 172.731 258.626 172.535 258.451 172.162 258.213 171.903 258.098 171.013 257.702 170.397 256.787 170.487 255.996 170.521 255.696 170.64 255.44 170.92 255.071 171.132 254.792 171.369 254.412 171.446 254.229 171.642 253.762 171.537 252.914 171.194 252.193 170.974 251.73 170.924 251.504 170.924 250.969 170.924 250.122 170.747 249.766 170.121 249.357 169.656 249.053 169.641 249.029 169.693 248.705 169.725 248.508 169.7 248.28 169.633 248.156 169.571 248.039 169.468 247.725 169.405 247.458L169.292 246.972 170.315 246.656C170.877 246.482 171.449 246.313 171.584 246.28 171.719 246.247 171.992 246.043 172.191 245.826 172.484 245.505 172.649 245.41 173.076 245.315L173.6 245.198 173.75 244.664C173.862 244.261 173.94 244.13 174.068 244.13 174.181 244.13 174.238 244.062 174.24 243.924 174.244 243.709 174.558 243.504 176.492 242.456 176.948 242.209 177.403 241.932 177.505 241.842 177.606 241.751 178.077 241.538 178.553 241.369 179.13 241.163 179.466 240.99 179.565 240.845 179.647 240.726 179.946 240.372 180.23 240.059 180.514 239.745 180.799 239.332 180.863 239.141L180.978 238.792 182.17 238.857C182.826 238.892 183.528 238.98 183.731 239.051 184.04 239.159 184.146 239.161 184.391 239.059 184.8 238.888 184.947 238.684 184.883 238.37L184.83 238.106 185.622 238.065C186.551 238.017 186.693 237.909 186.79 237.183 186.845 236.764 186.886 236.705 187.334 236.397 187.86 236.037 190.386 234.932 191.014 234.788 191.577 234.659 192.34 234.675 193.708 234.844 194.476 234.939 195.11 234.97 195.448 234.928 195.931 234.868 196.032 234.813 196.558 234.326 197.212 233.72 197.683 233.533 198.144 233.693ZM153.785 218 154.315 218.7C154.77 219.302 154.929 219.44 155.456 219.688 156.007 219.948 156.155 219.977 156.925 219.977L157.782 219.977 158.417 219.29C158.766 218.912 159.054 218.553 159.056 218.492 159.06 218.383 159.34 218.19 159.491 218.191 159.672 218.193 159.965 218.823 160.022 219.335 160.109 220.106 160.69 221.248 161.383 222.009 161.686 222.342 162.123 222.907 162.354 223.265 162.928 224.153 163.521 224.869 163.934 225.171 164.124 225.31 164.813 225.699 165.466 226.035 166.679 226.66 166.997 226.878 168.125 227.855 168.725 228.374 169.85 228.988 170.476 229.137 170.763 229.206 171.914 230.595 172.09 231.086 172.157 231.273 172.214 231.563 172.216 231.729 172.222 232.147 172.437 232.524 173.018 233.129 173.473 233.604 173.62 233.689 174.833 234.172 177.043 235.053 179.336 236.167 179.468 236.424 179.565 236.615 179.56 236.662 179.427 236.74 179.032 236.973 178.755 237.378 178.755 237.722 178.755 238.053 178.998 238.435 179.208 238.435 179.36 238.435 180.733 238.633 180.759 238.659 180.85 238.749 180.366 239.552 180.032 239.866 179.811 240.074 179.546 240.382 179.444 240.551 179.286 240.813 179.12 240.908 178.294 241.209 177.763 241.402 177.243 241.639 177.14 241.736 177.036 241.833 176.622 242.091 176.219 242.309 174.382 243.303 174.067 243.511 174.063 243.734 174.061 243.87 173.993 243.966 173.876 243.996 173.747 244.03 173.649 244.19 173.551 244.523L173.411 245.002 172.885 245.126C172.468 245.225 172.282 245.331 171.99 245.639 171.656 245.991 171.515 246.059 170.471 246.366 169.838 246.553 168.94 246.866 168.474 247.062L167.629 247.418 166.634 247.192C165.075 246.837 164.043 246.68 163.265 246.68 162.774 246.68 162.219 246.596 161.516 246.416 158.497 245.643 158.574 245.656 157.982 245.838 157.47 245.996 157.411 245.996 156.573 245.842 155.411 245.628 153.704 245.629 152.248 245.844 150.661 246.078 150.358 246.081 150.058 245.87 149.579 245.532 148.214 245.031 147.771 245.031 147.404 245.031 147.274 245.089 146.8 245.466 146.368 245.809 146.171 246.057 145.87 246.634 145.661 247.037 145.434 247.532 145.367 247.733 145.147 248.399 144.885 249.883 144.885 250.468 144.885 250.864 144.813 251.224 144.655 251.627 144.518 251.972 144.424 252.401 144.423 252.675 144.422 252.93 144.359 253.509 144.282 253.963 144.205 254.416 144.15 255.179 144.16 255.657 144.169 256.136 144.164 256.569 144.147 256.619 144.097 256.771 144.239 257.385 144.577 258.484 144.752 259.056 144.874 259.545 144.847 259.572 144.821 259.599 144.839 259.696 144.888 259.787 144.961 259.922 144.914 260.001 144.642 260.208L144.306 260.463 144.368 262.114C144.454 264.423 144.455 264.424 144.926 264.652 145.253 264.811 145.381 264.963 145.747 265.628 146.203 266.458 146.343 266.834 146.197 266.834 146.15 266.831 146.035 266.748 145.942 266.646 145.636 266.309 144.979 265.933 144.492 265.818 144.227 265.755 143.618 265.472 143.137 265.19 142.656 264.907 141.839 264.497 141.321 264.278 140.432 263.904 140.374 263.862 140.286 263.547 140.152 263.066 140.172 262.68 140.378 261.752 140.605 260.726 140.603 260.475 140.363 259.961 140.258 259.734 140.15 259.279 140.125 258.949 140.082 258.406 140.106 258.295 140.377 257.759 140.638 257.245 140.675 257.087 140.661 256.532 140.652 256.182 140.522 255.398 140.371 254.791 139.815 252.537 139.819 252.583 140.146 251.808 140.339 251.352 140.376 251.118 140.376 250.364L140.376 249.465 139.952 249.056C139.236 248.368 139.153 247.848 139.682 247.361 139.827 247.227 139.916 247.046 139.916 246.885 139.916 246.49 140.046 246.421 140.692 246.472 141.613 246.546 141.81 246.437 142.493 245.473 143.296 244.341 144.099 243.776 145.189 243.576 145.938 243.438 146.067 243.343 146.366 242.706 146.574 242.264 146.647 241.948 146.693 241.293 146.754 240.449 146.754 240.448 146.454 240.011 145.947 239.271 145.284 238.943 144.079 238.838 143.1 238.752 142.952 238.687 142.952 238.342 142.952 237.951 143.231 237.448 143.776 236.854 144.341 236.239 144.394 235.869 143.988 235.357 143.555 234.809 143.205 234.649 142.487 234.67 142.038 234.684 141.73 234.637 141.415 234.508 141.172 234.409 140.675 234.307 140.311 234.28 139.6 234.23 139.506 234.194 138.696 233.684L138.168 233.351 138.167 232.318C138.166 231.106 138.23 231.171 136.898 231.015 136.456 230.963 135.575 230.859 134.941 230.785 134.306 230.71 133.602 230.647 133.376 230.645 132.872 230.641 132.649 230.523 132.283 230.064 132.036 229.753 132 229.636 132 229.141 132 228.391 132.208 227.725 132.543 227.406 132.693 227.263 132.86 227.037 132.916 226.904 132.996 226.712 133.15 226.618 133.65 226.457 133.999 226.344 134.372 226.252 134.481 226.252 134.606 226.252 135.008 225.936 135.572 225.394 136.282 224.71 136.607 224.469 137.165 224.214 137.551 224.038 137.902 223.837 137.946 223.768 137.991 223.698 138.051 223.305 138.079 222.894 138.121 222.28 138.176 222.082 138.381 221.786 138.712 221.312 139.067 221.205 139.939 221.316 140.306 221.363 140.896 221.396 141.25 221.39 141.605 221.383 142.37 221.409 142.953 221.448 143.828 221.505 144.032 221.546 144.132 221.686 144.344 221.985 145.87 221.861 146.132 221.523 146.418 221.153 146.394 220.968 145.999 220.502 145.792 220.257 145.622 220.024 145.622 219.985 145.622 219.916 146.502 219.951 147.885 220.075 148.436 220.124 148.595 220.104 148.906 219.946 149.117 219.839 149.704 219.7 150.281 219.62 151.629 219.432 152.492 219.161 152.893 218.8 153.07 218.64 153.344 218.394 153.5 218.254Z"
            fill="#ffffff" fill-rule="evenodd" />
    </g>
</svg>