<svg width="120" height="120" xmlns="http://www.w3.org/2000/svg" xmlns:xlink="http://www.w3.org/1999/xlink"
    overflow="hidden">
    <defs>
        <clipPath id="clip0">
            <path d="M135 146 256 146 256 267 135 267Z" fill-rule="evenodd" clip-rule="evenodd" />
        </clipPath>
    </defs>
    <g clip-path="url(#clip0)" transform="translate(-135 -146)">
        <path d="M136 147 188.876 147 255 147 225.26 266 188.876 266 136 266Z" fill="#FFA07A"  fill-rule="evenodd" />
<path d="M172.594 186.533 172.687 187.664 173.823 187.792 173.631 188.966 175.285 188.728 177.063 190.539 179.89 184.578 180.731 184.578 183.764 180.689 183.601 179.438 182.324 179.406 182.487 177.895 186.531 176.841 188.975 177.284 190.484 176.733 190.624 175.805 193.002 177.168 193.206 178.177 194.761 178.515 195.475 177.335 196.634 177.44 197.3 179.393 199.698 178.965 200.59 179.609 204.152 177.807 204.477 175.931 205.942 174.849 206.987 175.023 209.243 172 209.998 172.238 209.345 173.984 209.984 174.016 208.668 176.188 208.724 178.926 211.244 180.686 212.891 180.908 212.891 180.908 212.604 182.538 211.185 183.618 209.656 190.026 215 192.982 214.885 197.134 213.582 198.884 214.113 200.218 211.405 203.945 210.506 208.419 208.509 208.626 207.859 211.754 205.657 213.865 204.461 216.918 203.588 217.122 203.605 219.596 202.318 220.393 202.919 221.143 201.018 222.644 201.072 224.366 198.895 228.986 198.315 233.554 196.669 237.491 195.83 237.59 195.519 240.63 194.224 241 193.339 239.123 188.594 237.031 187.033 236.775 183.997 237.783 182.03 234.839 177.483 234.665 176.913 236.316 175.581 235.575 173.964 237.142 172.422 236.155 170.64 232.263 168.586 231.578 167.925 231.857 168.038 233.216 168.038 233.216 166.398 233.284 165.3 234.311 165.677 232.963 165.059 232.034 164.252 232.084 164.014 233.34 162.452 233.158 161.72 231.933 160.153 233.523 159.438 231.382 158.578 231.837 156 230.942 157.531 227.419 157.061 224.81 158.233 222.478 157.505 222.353 157.599 220.733 156.804 220.259 156.804 220.259 158.093 219.966 157.98 216.781 159.211 214.403 158.824 213.892 160.355 213.567 159.302 213.097 160.28 210.156 159.318 208.855 160.363 207.683 160.449 205.158 160.88 204.783 161.888 205.902 163.369 205.102 163.363 203.419 164.427 202.646 165.233 201.098 164.79 200.353 165.537 199.887 165.085 197.374 165.73 196.224 166.946 196.285 167.984 194.501 169.751 188.9Z" fill="#ffffff" fill-rule="evenodd"/></g></svg>