<svg width="120" height="120" xmlns="http://www.w3.org/2000/svg" xmlns:xlink="http://www.w3.org/1999/xlink"
    overflow="hidden">
    <defs>
        <clipPath id="clip0">
            <path d="M135 146 256 146 256 267 135 267Z" fill-rule="evenodd" clip-rule="evenodd" />
        </clipPath>
    </defs>
    <g clip-path="url(#clip0)" transform="translate(-135 -146)">
        <path d="M136 147 188.876 147 255 147 225.26 266 188.876 266 136 266Z" fill="#FFA07A"  fill-rule="evenodd" />
<path d="M168.037 175.33 171.536 175.288 171.933 178.401 173.166 178.743 173.304 178.098 174.577 177.629 175.109 175.511 176.804 175.281 177.158 172.826 179.008 172.141 181.083 167 182.857 171.431 183.801 170.759 184.98 170.915 185.156 170.342 185.828 170.881 187.633 170.642 187.633 170.642 188.297 171.037 188.218 172.39 188.826 172.494 187.847 174.441 188.239 176.619 186.961 179.56 189.113 180.308 189.831 179.927 190.428 181.715 191.737 180.387 192.348 181.41 193.652 181.562 193.85 180.513 194.525 180.472 195.041 181.248 194.726 182.373 195.642 181.515 197.012 181.459 197.012 181.459 196.929 183.51 198.719 185.258 198.904 190.458 200 192.896 198.678 200.559 199.15 201.949 197.803 202.979 198.609 206.976 198.03 209.245 198.578 209.604 195.908 213.672 194.668 213.653 193.032 212.004 191.319 212.395 191.216 213.827 192.306 216.327 191.482 216.509 190.854 219.473 190.382 219.653 190.757 221.678 190.173 222.743 191.639 226.117 190.729 228.166 191.341 228.526 191.575 230.258 192.931 231.353 193.425 236.42 191.714 236.864 192.348 238.278 191.919 238.943 189.762 237.972 188.918 238.352 189.444 241.261 187.988 241.257 187.876 244.853 187.284 244.884 186.388 243.455 185.716 243.832 185.138 246 183.937 242.377 183.293 242.436 179.765 239.722 179.249 239.852 178.831 243.82 176.751 245.068 176.621 242.612 175.659 240.437 176.138 240.117 176.761 240.675 176.868 239.103 174.575 227.231 174.582 224.368 174.017 221.91 173.271 221.494 172.521 219.325 172.239 217.108 171.83 217.311 171.511 216.296 170.23 215.845 170.739 212.068 169.963 210.604 169.832 206.569 171.155 206.306 170.159 203.948 170.367 202.733 168.777 199.314 168.136 194.656 167.615 194.508 167.999 192.581 167.254 191.473 167.254 191.473 167 188.814 167.762 188.757 167.428 187.764 167.907 187.073 168.693 187.246 168.998 185.828 168.45 184.325 168.939 183.428 168.524 182.035 169.156 178.574Z" fill="#ffffff" fill-rule="evenodd"/></g></svg>