<svg width="120" height="120" xmlns="http://www.w3.org/2000/svg" xmlns:xlink="http://www.w3.org/1999/xlink"
    overflow="hidden">
    <defs>
        <clipPath id="clip0">
            <path d="M135 146 256 146 256 267 135 267Z" fill-rule="evenodd" clip-rule="evenodd" />
        </clipPath>
    </defs>
    <g clip-path="url(#clip0)" transform="translate(-135 -146)">
        <path d="M136 147 188.876 147 255 147 225.26 266 188.876 266 136 266Z" fill="#FFA07A" fill-rule="evenodd" />
        <path
            d="M184.928 172.419 185.428 172.585 185.636 172.113 186.315 172 186.692 172.542 187.046 172.46 187.29 172.835 188.418 173.277 189.331 173.15 189.883 172.812 189.958 173.04 190.135 172.896 190.384 173.202 190.825 173.192 191.35 173.857 191.732 173.762 192.165 173.943 192.065 174.315 192.607 174.076 192.729 174.886 192.474 175.284 192.589 175.193 192.654 175.536 192.875 175.528 193.271 176.056 193.149 176.571 193.916 176.694 193.823 176.996 193.525 176.989 193.426 177.589 193.985 177.783 193.808 177.89 193.915 178.098 193.594 178.142 193.493 178.573 193.333 178.407 193.037 178.632 193.233 179.003 192.874 178.988 192.82 179.389 192.452 179.411 192.68 179.852 192.112 180.023 192.705 180.647 192.128 181.134 191.983 182.086 191.462 182.452 191.524 182.944 191.17 183.051 191.32 183.716 190.824 183.38 190.702 183.51 190.931 183.542 190.914 183.713 190.192 184.259 190.824 185.068 190.764 185.609 189.508 185.938 189.229 186.246 188.837 185.993 188.568 186.261 187.638 186.067 187.333 186.394 187.079 186.265 186.877 186.601 186.995 187.199 186.57 187.515 186.278 187.445 186.109 188.027 185.768 188.31 186.118 188.722 185.89 189 186.254 189.14 186.347 189.701 186.77 190.006 186.649 190.25 187.248 190.532 186.972 190.7 187.213 190.966 186.746 190.948 186.084 191.398 186.082 192.36 184.492 193.628 184.477 193.893 184.92 194.367 185.031 195.074 185.503 195.936 185.409 197.106 185.025 197.486 185.514 197.986 185.487 198.295 186.409 198.955 186.067 199.557 186.592 200.136 187.133 199.899 187.825 198.868 188.541 199.263 189.43 200.463 189.722 200.577 190.049 200.369 190.183 200.525 190.324 200.319 190.632 201.157 190.846 200.835 191.486 200.698 191.77 199.861 192.349 199.3 192.521 198.359 191.778 198.086 191.829 197.721 191.995 197.896 192.344 197.762 191.514 196.23 190.487 196.731 190.218 196.603 190.126 196.013 190.443 195.538 190.366 194.561 190.523 194.346 190.365 193.847 189.423 193.406 189.279 192.955 188.969 192.733 189.164 191.692 188.725 191.3 188.445 189.566 187.74 189.185 187.322 189.436 187.06 189.241 187.19 189.073 187.449 189.194 187.696 188.861 187.775 189.074 188.018 189.048 188.179 188.831 188.019 188.438 188.519 188.558 188.371 188.084 188.638 188.123 188.787 187.854 189.033 187.968 189.27 187.562 189.594 187.521 189.747 187.726 189.43 187.996 189.307 187.821 189.32 188.168 189.821 188.268 189.867 188.547 190.364 188.488 190.156 187.9 190.84 187.709 190.273 187.672 189.975 187.354 190.045 186.949 190.287 187.215 191.006 187.328 191.161 187.45 190.849 187.538 191.049 187.687 191.274 187.312 190.991 186.849 191.458 186.694 191.442 186.34 191.795 186.315 191.859 186.51 191.995 186.311 192.104 186.62 191.854 186.732 192.043 187.173 191.725 187.531 191.979 187.732 192.283 187.618 192.463 188.297 191.974 188.559 191.619 188.305 191.999 188.285 192.177 188.036 191.446 188.172 191.083 188.555 191.139 188.769 190.634 188.958 190.549 189.144 190.828 189.12 190.768 189.432 191.123 189.883 191.463 188.638 191.964 188.776 192.211 188.58 192.38 189.278 192.092 189.521 191.778 189.395 191.612 189.708 191.457 189.596 191.418 190.565 192.167 189.98 192.633 190.242 192.621 189.834 192.391 189.713 192.723 189.367 192.792 189.678 193.227 189.921 192.915 190.343 192.887 190.811 193.096 190.865 193.5 190.278 193.854 190.585 193.731 190.806 193.94 191.16 194.431 191.086 194.309 190.82 194.486 190.725 194.697 191.128 195.011 191.1 195.061 190.837 194.77 190.755 194.986 190.619 195.214 190.702 195.223 191.038 195.646 190.918 195.757 190.717 195.407 190.226 195.356 189.679 195.934 190.189 196.075 190.045 195.9 189.876 196.008 189.412 195.713 189.53 195.494 189.223 195.217 189.427 195.224 189.008 195.563 188.684 196.065 188.762 195.916 189.183 196.134 189.492 196.275 189.18 196.745 189.559 197.157 189.293 197.481 189.439 197.175 189.448 196.86 189.928 197.013 190.063 196.689 190.104 196.437 190.519 196.586 191.132 196.743 190.855 196.899 191.196 197.265 190.905 197.188 191.316 197.476 191.463 198.217 190.44 198.454 190.767 198.583 190.686 198.534 190.938 199.983 190.804 201.064 191.293 200.983 190.917 201.222 190.734 200.978 189.764 201.52 189.584 201.628 189.837 201.914 189.422 202.445 189.457 202.68 188.652 203.293 188.515 203.685 188.703 204.318 188.215 204.377 187.863 204.88 187.985 204.985 187.728 205.523 188.175 205.457 189.239 206.182 189.794 206.388 189.734 206.63 190.477 205.92 190.793 205.093 192.029 205.58 192.32 205.994 192.074 206.223 192.25 206.062 191.733 206.796 191.47 207.086 191.873 207.321 191.867 207.377 191.389 207.144 191.253 207.471 191.266 207.803 191.625 207.99 191.369 208.425 191.577 208.305 190.681 208.676 191.025 208.371 191.229 208.91 191.552 209.135 191.473 209.079 191.771 209.605 191.58 210.083 191.69 210.083 191.446 209.586 191.299 209.587 191.03 209.334 190.876 210.314 190.776 210.59 191.166 210.674 190.277 211.083 190.246 211.347 190.626 210.956 191.022 211.011 191.589 210.58 191.932 210.791 192.374 210.22 192.658 210.34 192.953 210.661 193.06 211.15 192.905 211.15 192.905 211.299 193.005 211.273 192.821 211.273 192.821 211.66 192.651 211.84 193.155 212.444 193.082 212.373 192.847 213.028 192.869 213.577 193.517 213.862 192.802 214.23 193.057 214.087 193.117 214.363 193.06 214.256 192.401 214.844 191.617 214.688 191.217 214.917 190.546 215.283 190.565 215.364 191.101 215.347 190.591 215.513 190.495 216.114 191.027 216.496 190.915 216.576 191.165 216.209 191.193 217.021 191.547 217.255 191.203 216.914 190.876 217.135 190.712 217.422 190.806 217.274 190.338 217.831 190.244 217.982 190.541 218.347 190.633 218.084 190.884 218.173 191.274 218.325 191.033 218.474 191.242 218.1 191.495 218.204 191.7 218.736 191.496 218.964 191.883 219.459 191.83 220.015 192.246 220.409 192.146 220.966 192.432 221.087 192.251 221.22 193.099 221.067 193.512 221.682 194.178 222.13 193.962 223.182 194.591 223.645 194.591 224.003 194.244 223.837 194.458 224.135 194.707 223.938 194.698 223.777 195.157 224.177 195.275 224.037 195.023 224.266 195.027 224.248 194.862 224.418 194.998 224.47 194.768 224.336 195.908 224.562 195.946 224.664 195.729 224.988 195.905 224.963 196.51 225.314 196.402 226.093 196.681 226.019 195.757 226.32 195.515 226.482 195.82 227.164 195.815 227.27 196.099 228.532 195.578 228.904 195.844 228.896 196.182 229.559 196.167 229.533 196.659 229.888 196.659 229.932 197.165 229.395 197.285 229.067 197.127 229.097 197.587 229.302 197.733 229.014 198.962 229.537 199.091 229.573 199.955 229.433 200.558 229.208 200.696 229.144 201.598 228.658 201.39 228.526 201.643 229.026 202.221 229.593 202.252 229.355 202.856 229.897 203.029 230 203.479 230 203.479 229.415 203.915 228.517 204.069 228.473 204.617 227.826 204.976 227.251 204.963 227.419 205.282 227.142 205.389 226.591 205.099 225.299 205.181 224.584 204.987 224.299 205.146 224.035 204.879 224.081 204.654 223.674 205.007 222.527 205.001 222.089 204.546 221.599 204.656 221.263 204.441 220.64 204.961 219.951 205.093 219.328 204.789 219.366 204.591 218.765 203.879 218.264 204.078 218.146 204.647 218.46 204.891 218.55 205.528 218.887 205.711 219.017 206.059 218.583 206.71 218.291 206.703 218.187 207.352 217.864 207.474 217.936 207.833 218.217 207.88 218.23 208.344 218.437 208.52 218.695 208.081 219.073 208.169 219.494 207.699 220.167 207.93 220.388 208.297 221.262 208.076 221.848 209.342 222.239 209.232 222.224 209.61 222.53 209.717 223.047 209.507 223.169 209.951 223.433 209.887 223.904 210.275 223.939 210.709 223.478 211.314 223.563 212.226 223.218 212.629 222.74 212.491 222.318 212.881 221.475 212.905 221.283 213.296 221.496 214.185 220.709 214.632 220.674 214.887 219.821 215.071 219.738 215.486 219.967 216.203 219.598 216.628 219.756 217.293 219.538 217.458 219.366 217.16 219.21 217.441 218.715 217.628 218.638 218.294 218.392 218.344 218.316 218.611 217.367 218.601 216.983 219.094 216.573 219.087 216.671 219.368 216.44 219.242 216.167 219.643 215.992 218.967 215.444 218.766 215.259 219.216 214.979 219.029 214.42 219.534 214.044 219.128 213.357 219.646 213.395 221.194 213.109 221.697 212.47 221.882 212.434 222.899 211.993 223.089 212.315 223.276 212.271 223.649 211.921 223.682 211.794 223.106 211.405 223.042 210.767 224.708 210.499 224.751 210.677 224.974 210.629 226.35 210.428 226.953 209.76 226.843 209.52 227.328 209.429 228.641 209.635 229.845 208.912 231.326 208.912 231.326 208.291 231.389 207.236 230.625 206.871 230.576 206.793 230.893 206.431 230.847 206.29 230.523 206.508 230.2 206.109 229.332 205.028 228.29 204.321 228.143 203.603 228.428 203.1 228.978 202.413 229.187 201.853 228.955 201.651 229.295 201.075 229.227 199.855 228.475 199.021 228.952 197.934 229.088 197.463 227.723 196.749 227.542 196.543 227.719 196.095 227.674 194.916 227.201 194.829 227.968 194.123 227.866 193.537 228.511 192.767 228.486 192.619 228.305 191.823 228.582 191.966 228.918 191.737 228.976 192.092 229.408 192.006 229.684 191.652 229.545 191.496 229.709 190.562 229.666 190.441 229.896 190.188 229.616 189.927 229.922 188.604 229.689 188.425 229.387 187.856 229.253 187.087 229.533 187.013 228.481 186.591 228.306 186.409 228.73 186.172 228.601 185.852 228.802 185.48 228.561 185.51 228.809 184.645 228.935 184.531 229.567 182.271 230.737 181.713 230.834 180.904 230.471 180.846 230.697 180.42 230.75 180.262 230.97 179.982 231.029 179.843 230.631 179.609 230.899 179.45 230.67 178.965 230.668 178.997 230.946 178.797 230.972 177.843 230.834 177.669 230.003 177.365 229.835 177.156 229.205 177.553 228.958 178.626 229.239 179.02 229.103 178.666 228.894 178.669 228.218 178.383 227.441 177.729 226.701 175.874 226.792 175.844 227.197 175.27 227.264 175.101 227.515 174.749 227.165 174.615 227.311 173.777 227.211 172.099 228.493 171.619 228.344 171.437 228.575 171.062 228.528 170.988 229.13 170.744 229.314 171.027 229.658 170.953 229.903 169.388 231.28 169.746 231.833 169.376 232.772 168.043 232.737 167.703 233.587 166.955 233.979 166.027 234 165.835 233.798 164.958 233.903 164.383 233.065 164.901 233.002 164.959 232.818 164.681 232.296 164.826 232.077 164.233 230.873 163.779 231.096 162.959 230.663 162.169 230.604 160.064 230.806 159.432 230.652 158.836 230.889 158.054 230.661 157.368 230.779 157.006 230.566 156.423 230.713 156.4 230.436 155.618 230.486 154.592 229.975 154.029 228.87 152.501 228.184 151.415 228.391 149.139 227.641 149.075 227.259 148.672 227.171 148.598 226.325 148.831 225.257 148.497 224.776 148.058 224.6 148.032 224.017 147.467 224.084 147.137 224.516 146.621 224.639 146.5 224.973 145.627 225.08 145.092 224.78 145.092 224.78 145.168 224.439 144.618 224.134 145.432 223.385 145.176 223.185 144.937 223.267 144.864 222.053 144.403 221.958 144.558 221.729 144.24 221.285 144.366 220.499 144.758 220.379 144.976 220.794 145.533 220.903 145.687 220.421 145.886 220.517 146.189 220.079 146.544 220.138 146.15 219.729 145.666 219.687 145.531 219.257 145.491 219.613 145.239 219.74 145.074 219.48 144.866 219.859 144.673 219.363 144.426 219.386 144.496 218.933 144.081 219.12 144 218.934 144.315 218.485 145.163 218.839 146.261 217.492 147.426 217.506 147.611 216.583 148.355 215.229 148.086 214.536 147.585 214.797 147.209 214.44 147.009 214.104 147.295 213.942 146.824 213.065 146.824 213.065 147.495 212.542 148.682 212.788 149.01 212.329 149.621 212.194 150.22 211.592 150.674 211.664 150.97 211.479 150.971 211.26 150.474 211.363 150.739 211.156 150.533 210.841 149.995 210.973 149.266 210.535 149.085 210.731 148.741 210.239 149.255 209.718 149.287 209.242 149.673 208.829 150.078 208.796 150.529 208.378 150.852 208.412 151.355 207.906 151.531 208.055 151.948 207.841 152.542 207.108 152.872 207.029 152.557 206.47 152.88 205.915 152.538 204.431 152.692 203.771 153.394 202.767 152.298 200.801 152.54 200.584 152.427 200.285 152.186 200.081 151.04 200.06 151.342 199.694 151.375 199.107 152.072 198.08 151.682 198.138 151.668 197.825 151.296 197.908 150.639 197.613 151.079 197.144 150.992 196.691 151.405 196.541 151.34 196.262 151.67 195.887 151.26 195.714 151.496 194.555 152.413 196.062 152.903 196.008 153.092 195.574 153.462 195.492 153.398 195.016 153.662 195.015 153.532 194.55 152.649 194.645 152.076 194.367 151.981 194.586 152.05 193.935 151.734 193.124 151.957 192.631 152.161 193.034 152.333 192.896 152.61 193.126 152.68 193.519 153.888 193.87 154.015 193.626 154.628 193.549 154.597 192.728 155.074 192.444 155.023 191.865 156.851 191.893 156.909 192.084 156.59 192.285 156.771 192.752 156.54 193.427 156.167 192.605 156.074 192.765 156.336 193.182 156.026 193.542 156.514 193.76 156.659 193.571 157.621 193.509 157.552 193.82 156.46 194.364 156.197 193.932 155.692 193.871 155.913 193.478 155.653 193.539 155.504 193.324 155.436 193.601 155.932 194.108 155.486 194.401 155.281 194.851 155.589 195.342 156.083 195.231 157.892 195.655 159.167 195.339 159.475 195.707 160.91 194.886 161.685 195.262 161.571 195.889 161.783 196.087 161.581 196.513 161.681 196.703 161.927 196.518 162.456 196.963 162.35 197.171 162.531 197.372 162.198 197.627 162.401 197.811 162.373 198.2 161.768 198.6 161.218 197.997 160.802 198.498 160.866 198.703 160.588 198.747 160.697 199.361 160.963 199.76 161.415 199.837 161.568 200.448 161.045 200.722 160.751 201.591 161.073 201.598 161.203 201.91 161.656 201.893 161.636 202.278 161.105 202.421 160.933 203.107 160.329 203.415 160.023 202.726 159.685 203.086 159.186 203.171 159.021 202.842 158.505 202.564 158.019 203.291 157.938 203.931 158.958 204.58 159.111 204.777 158.914 204.944 159.173 205.216 159.852 205.2 160.172 205.64 160.202 205.015 160.5 205.017 160.61 204.599 160.306 204.397 160.348 204.11 160.813 204.259 161.08 204.645 161.248 204.427 161.9 204.2 162.076 204.317 163.029 203.801 162.875 202.813 163.726 202.276 164.586 202.066 164.455 200.984 164.78 200.477 164.668 200.032 165.084 199.537 165.287 199.757 165.174 200.037 165.379 200.766 166.037 200.777 166.47 200.371 167.328 200.866 167.418 200.657 167.709 200.766 167.872 200.61 168.475 201.337 168.949 201.152 168.812 200.937 169.121 200.625 169.03 200.415 169.284 200.494 169.307 200.273 170.058 200.034 170.152 200.423 169.874 201.016 170.138 201.251 170.667 201.244 171.119 201.798 171.657 201.598 172.087 201.683 172.246 201.066 172.524 200.878 171.835 200.185 171.502 199.46 171.611 198.062 171.251 197.362 171.757 197.201 171.888 197.459 172.214 197.263 172.232 197.863 172.728 198.15 173.083 197.967 173.382 197.422 173.562 197.446 173.702 196.98 173.651 196.201 173.33 195.466 172.794 195.242 172.595 194.879 172.18 195.08 171.571 195.041 171.123 194.294 171.418 194.075 172.348 193.972 172.567 193.724 172.224 193.562 172.292 193.251 172.002 193.22 171.641 192.244 173.007 191.493 173.826 191.73 174.19 191.61 174.731 191.129 175.639 191.069 176.037 191.45 176.975 191.133 176.898 190.326 177.166 190.273 177.052 189.915 176.496 189.424 176.713 188.9 176.366 188.843 176.611 187.898 176.061 187.644 175.842 187.784 175.227 188.325 175.079 188.995 173.808 188.69 173.305 189.107 172.664 189.149 172.498 189.384 172.021 188.877 171.529 188.789 170.815 188.987 170.782 188.728 169.942 188.627 169.172 188.157 169.039 187.698 168.797 187.58 168.366 186.633 168.273 185.086 167.949 184.845 167.994 184.595 168.467 184.423 168.454 183.729 169.076 182.902 169.408 182.938 169.599 182.526 170.455 182.595 170.739 182.383 170.676 182.169 171.17 182.047 171.502 181.414 171.406 181.215 171.968 180.522 172.931 180.097 173.409 179.558 173.967 179.461 174.284 178.948 175.059 178.954 175.91 178.32 176.349 177.649 177.307 177.564 177.261 177.107 178.194 177.02 179.614 176.001 180.067 176.046 180.365 175.598 181.038 175.494 181.11 175.002 181.689 174.779 181.837 174.321 182.36 174.29 182.795 173.879 183.712 174.093 183.745 173.491 184.009 173.31 183.85 172.847 184.598 172.907 184.449 172.519Z"
            fill="#ffffff" fill-rule="evenodd" />
    </g>
</svg>