<svg width="120" height="120" xmlns="http://www.w3.org/2000/svg" xmlns:xlink="http://www.w3.org/1999/xlink"
    overflow="hidden">
    <defs>
        <clipPath id="clip0">
            <path d="M135 146 256 146 256 267 135 267Z" fill-rule="evenodd" clip-rule="evenodd" />
        </clipPath>
    </defs>
    <g clip-path="url(#clip0)" transform="translate(-135 -146)">
        <path d="M136 147 188.876 147 255 147 225.26 266 188.876 266 136 266Z" fill="#FFA07A" fill-rule="evenodd" />
        <path
            d="M185.829 171 185.833 171.759 185.194 172.524 185.162 173.312 190.741 173.586 190.741 173.586 190.616 173.952 190.871 174.004 191.047 174.383 190.263 175.184 190.323 175.63 190.801 175.658 191.341 175.379 191.508 175.539 191.163 177.477 191.588 177.849 191.273 178.549 190.952 178.468 190.83 178.641 190.849 178.892 191.085 178.957 191.431 179.534 191.422 179.879 191.832 179.849 191.906 179.43 192.852 179.597 193.602 179.106 194.367 179.508 194.597 180.352 194.934 180.456 195.369 180.298 195.708 180.856 195.976 180.914 196.613 180.487 197 180.83 197.851 180.234 197.813 180.82 198.082 180.92 198.195 180.63 198.53 180.556 198.574 181.3 198.223 181.771 198.535 181.916 198.396 182.507 198.837 182.564 198.877 183.054 199.555 183.112 199.603 183.472 199.164 183.972 199.575 184.882 199.444 185.378 199.714 185.758 199.952 187.133 200.506 187.258 200.604 187.828 201.929 188.722 201.859 189.227 202.915 189.369 203.21 189.619 203.497 190.128 204.066 190.507 203.999 190.903 204.371 191.079 204.3 191.295 204.725 191.776 204.477 191.884 204.489 191.649 204.146 191.599 203.332 192.398 203.74 192.532 203.762 192.829 204.039 192.445 204.216 192.595 203.947 192.791 203.989 192.97 203.633 193.028 203.815 193.237 203.512 193.33 203.783 193.495 203.572 193.975 203.353 193.832 203.221 194.014 203.267 194.178 203.699 194.253 203.571 194.702 204.341 194.871 204.682 194.664 205.436 195.277 205.883 194.941 205.615 194.71 205.664 194.357 205.378 194.195 205.494 193.614 205.276 193.35 205.8 193.021 205.475 192.743 206.131 192.626 206.405 192.747 206.54 193.079 206.932 192.977 207.05 192.593 206.542 192.322 207.059 192.046 206.379 191.539 206.884 191.553 207.247 191.949 208.084 191.781 208.323 192.266 207.995 192.213 207.885 192.402 208.321 192.688 207.931 192.84 208.684 192.946 208.682 193.637 209.222 193.241 209.765 193.148 209.686 192.365 210.932 191.755 211.02 191.207 211.456 191.055 212.445 191.889 212.062 193.364 212.066 194.096 212.241 194.155 212.133 195.008 211.93 195.024 211.755 196.047 212.026 196.349 211.727 196.363 211.92 196.773 212.2 196.607 212.523 196.787 212.727 195.938 213.489 195.971 213.383 195.717 212.968 195.572 213.125 195.151 213.909 195.589 214.131 195.434 214.123 195.196 214.39 195.265 214.284 195.504 214.507 195.132 214.844 195.495 215.117 195.191 215.235 195.286 215.235 195.286 215.487 195.473 215.429 196.169 215.775 196.395 215.827 196.829 215.55 197.243 215.896 197.427 215.721 197.65 215.763 198.062 216.183 198.197 216.307 198.586 216.602 198.744 216.474 199.111 216.622 199.373 217.203 199.552 217.89 200.099 218.241 199.932 218.042 200.36 218.509 200.978 218.467 201.194 218.765 201.363 218.601 201.61 218.162 201.681 218.034 202.135 217.213 202.413 217.417 202.693 217.811 202.585 217.738 202.996 218.359 203.209 218.768 202.849 219.036 203.361 219.203 203.36 219.24 203.049 219.494 203.136 219.328 203.481 218.551 203.625 216.538 204.69 216.687 205.167 216.593 205.655 216.91 205.661 216.768 205.888 217.168 205.686 217.058 205.479 217.21 204.88 217.411 205.138 218.156 205.031 219.145 204.547 219.173 204.198 219.479 203.985 220.694 204.466 220.781 204.116 221.154 204.363 221.73 204.255 221.866 204.751 222.095 204.612 222.045 204.207 222.572 204.312 222.66 203.83 223.494 203.973 223.589 203.823 224 204.127 223.683 204.534 223.368 204.475 223.534 204.998 223.534 204.998 223.1 205.088 223.235 205.442 222.557 205.387 222.702 205.809 222.462 205.974 222.432 206.522 221.601 206.327 221.207 206.701 220.733 206.729 220.598 207.146 220.074 207.349 220.008 207.797 219.398 207.892 219.129 208.299 218.718 208.259 217.431 209.186 216.585 209.266 216.627 209.682 215.758 209.759 215.361 210.37 214.589 210.947 213.887 210.941 213.6 211.408 213.094 211.497 212.661 211.988 211.788 212.374 211.278 213.005 211.365 213.186 211.064 213.763 210.616 213.874 210.674 214.068 210.416 214.261 209.641 214.199 209.467 214.574 209.166 214.541 208.603 215.294 208.614 215.926 208.186 216.082 208.144 216.31 208.438 216.529 208.523 217.938 208.914 218.799 209.133 218.907 209.253 219.325 209.951 219.753 210.712 219.844 210.742 220.08 211.39 219.9 211.836 219.98 212.268 220.442 212.418 220.228 213 220.19 213.456 219.81 214.608 220.088 214.742 219.478 215.299 218.985 215.497 218.858 215.996 219.089 215.774 219.949 216.089 220.001 215.892 220.478 216.396 220.925 216.499 221.251 216.257 221.299 216.326 222.035 215.476 222.323 215.115 221.976 214.292 222.03 213.802 222.469 213.471 222.578 212.729 222.362 211.491 223.045 211.818 223.934 212.082 223.962 212.019 224.245 212.331 224.392 212.132 224.618 211.289 224.712 211.022 224.912 211.428 225.592 211.98 225.627 212.356 225.444 212.536 225.775 213.022 225.978 213.313 226.648 213.36 227.357 213.232 227.781 213.069 227.759 212.798 228.256 212.477 228.422 212.026 228.161 212.011 227.615 211.715 227.793 211.596 227.558 211.137 227.705 211.464 228.342 211.365 229.615 211.667 230.274 212.291 230.906 212.04 231.077 211.896 231.638 211.505 231.562 211.018 231.742 210.608 231.239 210.129 231.245 209.89 231.031 210.141 230.491 210.057 230.138 209.376 230.355 209.355 230.556 209.124 230.484 209.207 230.675 208.927 230.959 209.051 231.155 208.621 231.323 208.075 230.661 207.927 230.803 207.663 230.704 207.582 230.895 206.804 230.444 206.412 230.814 205.815 230.803 205.629 230.14 205.732 229.885 205.548 229.685 205.17 230.135 205.272 230.541 204.978 231.002 205.096 231.987 204.317 232.178 203.546 232.668 203.685 233.566 202.821 234.037 202.661 233.93 202.071 234.136 201.918 234.335 201.676 233.984 201.255 233.847 201.217 234.109 201.493 234.293 201.393 234.674 201.122 234.672 201.096 235.241 200.806 234.84 200.19 234.855 199.955 234.607 200.134 234.456 199.995 234.276 199.07 233.685 199.144 233.102 199.584 232.44 200.052 232.693 200.202 232.993 200.654 232.916 200.96 232.588 201.238 233.215 201.785 232.934 201.941 232.31 202.423 232.18 202.441 231.83 202.03 231.845 201.912 231.561 201.62 231.555 201.887 230.764 202.361 230.515 202.222 229.958 201.812 229.888 201.571 229.525 201.473 228.965 201.725 228.926 201.667 228.739 202.044 228.283 202.542 228.831 203.091 228.468 203.116 228.114 202.932 227.946 203.233 227.714 203.07 227.531 203.166 227.342 202.686 226.937 202.463 227.105 202.373 226.932 202.556 226.544 202.364 226.364 202.467 225.793 201.764 225.451 200.464 226.198 200.185 225.863 199.029 226.151 197.389 225.765 196.942 225.866 196.662 225.419 196.848 225.009 197.252 224.743 196.803 224.281 196.864 224.029 196.999 224.225 197.235 224.169 197.035 224.527 197.493 224.582 197.731 224.976 198.72 224.48 198.783 224.198 197.911 224.254 197.78 224.426 197.337 224.228 197.618 223.9 197.381 223.52 197.465 223.375 197.803 224.123 198.013 223.508 197.848 223.082 198.138 222.9 198.085 222.726 196.428 222.7 196.475 223.228 196.042 223.486 196.07 224.234 195.515 224.304 195.4 224.526 194.304 224.207 194.241 223.848 193.99 223.639 193.834 223.764 193.649 223.398 193.447 223.847 193.734 224.585 193.671 225.178 193.757 224.978 194.277 225.232 195.077 225.145 195.194 225.569 194.956 225.569 195.013 226.002 194.678 226.077 194.507 226.472 194.062 226.522 193.231 225.149 193.018 226.205 193.389 226.362 193.09 226.704 193.149 226.957 192.775 227.094 192.853 227.507 192.455 227.933 193.05 228.202 193.387 228.126 193.4 228.411 193.754 228.359 193.122 229.293 193.092 229.828 192.818 230.161 193.856 230.18 194.075 230.366 194.178 230.639 193.958 230.836 194.952 232.625 194.315 233.539 194.176 234.141 194.486 235.491 194.193 235.996 194.479 236.505 194.179 236.577 193.641 237.244 193.263 237.439 193.104 237.303 192.647 237.765 192.355 237.734 191.946 238.114 191.579 238.144 191.229 238.52 191.2 238.954 190.734 239.428 191.046 239.876 191.21 239.698 191.871 240.096 192.359 239.976 192.545 240.262 192.305 240.451 192.755 240.357 192.754 240.557 192.487 240.725 192.074 240.66 191.532 241.207 190.978 241.33 190.681 241.748 189.605 241.524 188.997 242 188.997 242 188.639 241.688 188.689 241.459 188.315 240.787 187.973 240.751 187.755 241.135 187.257 240.878 187.318 240.002 187.032 239.747 186.524 239.744 186.419 239.393 186.047 239.342 185.871 238.959 185.66 238.994 185.586 239.305 185.189 239.347 184.637 238.285 184.201 238.403 184.038 238.171 183.695 238.616 183.5 238.198 183.048 238.346 182.866 238.23 183.094 237.73 182.904 237.303 183.115 236.578 182.373 236.263 181.806 236.637 181.762 235.797 181.502 235.743 180.98 235.06 180.583 235.183 180.466 234.981 180.461 234.258 181.017 233.585 180.842 233.007 180.92 232.417 180.528 232.058 180.562 231.667 180.221 231.794 180.198 232.197 179.829 232.648 179.428 232.81 179.011 232.413 179.232 231.958 178.258 231.565 177.978 231.113 178.531 229.916 178.848 229.977 178.958 229.567 179.119 229.659 179.3 229.362 179.118 229.257 178.754 229.498 177.999 229.071 178.206 228.76 178.082 228.091 177.697 228.379 177.357 228.212 177.246 228.327 176.917 229.175 177.167 229.368 176.567 229.735 176.072 229.35 174.867 229.395 174.52 228.828 174.553 228.458 173.587 228.308 173.197 227.973 172.806 228.525 172.869 228.92 172.487 228.947 172.238 228.425 172.29 227.999 172.29 227.999 171.828 228.052 171.538 227.527 171.538 227.527 170.98 227.665 170.588 227.257 170.839 227.063 171.255 227.192 171.501 226.886 171.158 226.976 170.402 226.742 170.23 226.94 169.828 226.921 169.113 226.547 169.116 226.114 168.824 226.028 167.862 226.801 167.648 226.404 167.261 226.328 167.1 227.022 166.686 226.85 166.572 226.373 165.351 226.738 164.952 226.372 163.812 226.341 162.876 226.851 162.592 226.543 162.118 226.988 160.425 226.274 160.425 226.274 158.988 223.788 158.534 221.733 157.398 220.545 157.2 219.994 156.578 219.321 156.699 218.062 156.505 216.288 156.07 216.195 155.352 216.491 154.139 216.618 153.072 216.248 151.441 213.848 151.321 212.567 152.122 210.871 152.222 208.472 152.078 207.838 151.176 207.354 149.515 207.536 148.947 207.426 148.116 206.812 146.213 205.871 146 205.296 146.262 203.195 146.839 201.711 149.361 199.337 150.021 198.342 150.732 197.802 151.545 195.685 151.982 195.01 153.841 193.257 154.886 192.997 155.586 193.141 156.559 194.203 156.615 194.96 157.319 196.184 158.444 196.373 161.898 194.931 163.113 194.691 165.322 194.659 167.446 193.769 167.765 192.062 168.321 191.254 169.997 189.729 171.041 186.624 171.776 185.62 174.678 183.883 176.726 182.945 177.244 181.723 178.036 180.686 179.654 177.544 180.721 173.642 182.674 172.774 184.238 172.323Z"
            fill="#ffffff" fill-rule="evenodd" />
    </g>
</svg>