<svg width="120" height="120" xmlns="http://www.w3.org/2000/svg" xmlns:xlink="http://www.w3.org/1999/xlink"
    overflow="hidden">
    <defs>
        <clipPath id="clip0">
            <path d="M135 146 256 146 256 267 135 267Z" fill-rule="evenodd" clip-rule="evenodd" />
        </clipPath>
    </defs>
    <g clip-path="url(#clip0)" transform="translate(-135 -146)">
        <path d="M136 147 188.876 147 255 147 225.26 266 188.876 266 136 266Z" fill="#FFA07A" fill-rule="evenodd" />
        <path
            d="M194.243 247.117 194.647 247.5 194.718 248 194.015 247.808 194.243 247.117ZM199.069 247.002 200.054 247.791 199.184 247.82 199.069 247.002ZM197.477 246.706 197.881 247.083 197.653 247.549 197.242 247.203 197.477 246.706ZM194.809 246.521 195.529 247.083 194.992 247.671 194.419 247.079 194.625 246.295 194.809 246.521ZM198.169 246.298 198.543 247.241 197.883 247.471 198.097 247.093 197.744 246.686 198.169 246.298ZM200.944 246.476 201.217 246.785 200.804 246.843 200.745 246.076 200.944 246.476ZM195.608 245.915 195.6 246.836 195.044 246.491 195.608 245.915ZM201.213 245.491 201.304 246.129 201.613 246.386 201.847 247.039 201.435 247.088 201.433 246.686 201.047 246.332 200.731 245.567 201.213 245.49ZM198.641 245.626 198.528 246.266 197.97 245.934 198.641 245.626ZM191.571 245.481 192.073 245.753 192.244 246.384 191.631 246.99 191.571 245.481ZM193.618 245.435 193.856 245.993 193.527 246.715 193.323 245.926 193.618 245.435ZM190.045 245.254 190.218 245.57 190.053 245.851 190.277 246.097 190.32 246.461 190.153 247.088 189.714 245.77 190.045 245.254ZM202.283 245.243 202.795 246.438 202.174 246.844 201.421 245.884 201.575 245.504 202.283 245.243ZM194.978 245.316 195.359 245.231 195.574 245.716 194.914 246.375 194.545 245.526 194.978 245.316ZM199.761 244.883 200.58 245.651 200.302 246.619 199.617 245.663 199.761 244.883ZM193.021 245.098 193.254 245.548 193.005 246.212 193.303 246.694 192.826 247.181 192.555 245.873 192.896 245.322 192.538 245.09 192.774 244.733 193.021 245.098ZM190.232 244.812 190.94 244.93 191.42 246.001 191.218 247.054 191.5 247.416 191.094 247.74 190.606 247.603 190.232 244.812ZM200.487 244.683 201.044 245.3 200.427 245.176 200.487 244.683ZM192.436 244.705 192.347 245.237 192.613 245.531 192.28 245.788 192.126 244.823 192.436 244.705ZM201.628 244.674 202.166 245.089 201.813 245.278 201.628 244.674ZM199.07 244.694 199.507 244.679 199.133 245.471 199.428 246.548 199.205 246.699 198.7 246.518 198.787 245.424 198.211 245.526 198.515 244.886 199.07 244.694ZM195.454 244.383 195.993 245.122 195.812 245.637 195.37 244.733 195.454 244.383ZM201.132 244.308 201.655 245.184 201.496 245.332 200.726 244.523 201.132 244.308ZM195.847 244.191 195.983 244.835 195.731 244.621 195.587 244.291 195.847 244.191ZM193.824 244.212 193.807 245.007 193.336 245.303 193.398 244.534 193.824 244.212ZM197.371 243.928 197.988 244.668 197.894 245.093 198.091 245.186 198.038 245.691 197.555 245.79 197.826 246.218 196.954 245.916 197.067 244.905 197.371 243.928ZM194.914 243.884 195.31 244.23 195.314 245.032 194.555 245.284 194.336 244.49 194.914 243.884ZM193.157 243.872 193.456 244.044 193.159 244.952 192.809 244.287 193.157 243.872ZM201.429 243.863 201.671 243.858 201.763 244.579 201.295 244.194 201.429 243.863ZM198.973 243.98 199.005 244.554 198.44 244.81 198.882 243.69 198.973 243.98ZM200.596 243.316 201.1 243.726 200.929 244.223 200.224 244.502 200.042 243.88 200.596 243.316ZM195.597 243.273 195.808 243.576 195.753 244.056 195.366 243.78 195.597 243.273ZM191.88 243.355 192.2 244.138 192.557 244.238 192.514 244.541 192.027 244.662 191.916 245.211 191.388 245.08 191.116 244.019 191.88 243.355ZM199.375 243.039 199.676 243.248 200.17 245.015 199.198 244.212 199.375 243.039ZM189.078 242.889 189.587 243.858 189.561 244.927 189.171 245.893 189.333 246.346 188.68 246.717 187.715 246.359 187.643 245.963 188.16 244.347 189.078 242.889ZM198.44 243.205 198.932 242.659 199.188 242.937 198.467 243.97 198.354 243.419 198.44 243.205ZM201.135 242.605 201.849 243.03 201.666 243.665 200.809 243.361 201.135 242.605ZM196.018 242.539 196.474 242.997 196.265 244.276 195.715 243.062 196.018 242.539ZM195.169 242.543 195.353 242.838 195.064 243.66 194.829 243.312 195.169 242.543ZM193.51 242.43 194.02 242.693 194.135 243.175 193.533 243.808 192.892 243.785 193.194 242.596 193.51 242.43ZM197.359 242.509 197.831 242.564 198.293 243.128 197.967 244.332 197.091 243.457 197.359 242.509ZM196.281 242.172 196.674 242.326 196.387 242.694 196.281 242.172ZM199.095 242.23 200.22 242.071 200.96 242.487 200.769 242.82 200.064 243.376 199.095 242.23ZM197.478 242.013 198.564 242.201 198.688 242.743 198.425 243.047 198.152 242.487 197.411 242.363 197.478 242.013ZM197.79 241.278 197.865 241.661 198.311 241.749 198.452 241.951 197.745 241.9 197.479 241.37 197.79 241.278ZM196.567 240.671 197.365 240.956 196.827 241.845 196.119 241.612 196.567 240.671ZM189.142 240.56 188.37 242.001 187.793 242.326 188.167 241.039 189.142 240.56ZM198.755 240.667 200.039 240.786 199.957 241.931 199.37 242.07 197.981 241.449 198.178 240.778 198.755 240.667ZM202.025 240.22 202.552 241.167 202.341 241.974 201.903 242.103 201.143 240.646 201.222 240.118 202.025 240.22ZM199.582 239.751 199.818 240.452 198.525 240.26 199.582 239.751ZM199.166 239.372 199.358 239.618 198.45 239.875 198.306 240.222 197.965 240.121 198.339 239.32 198.856 239.125 199.166 239.372ZM199.38 238.022 200.228 239.577 199.606 239.615 199.011 239.01 199.616 238.772 199.135 237.947 199.38 238.022ZM200.796 238.149 201.215 238.675 200.929 239.553 200.355 239.972 200.345 240.593 200.663 240.966 200.501 240.118 200.914 240.089 201.041 241.154 201.741 242.171 201.615 242.473 200.522 241.949 200.185 241.052 200.023 239.96 200.442 239.455 199.915 238.352 200.284 238.484 200.796 238.149ZM201.463 237.898 202.158 238.955 201.974 239.96 200.972 239.852 201.391 238.841 201.044 237.987 201.463 237.898ZM197.051 237.904 198.417 238.356 196.9 239.713 197.655 240.488 197.523 240.826 196.588 240.5 196.198 239.331 197.051 237.904ZM199.314 238.659 198.251 239.253 197.7 240.089 197.467 240.068 197.181 239.753 198.749 238.29 199.049 238.225 199.314 238.659ZM200.683 237.497 200.885 237.929 200.453 238.24 200.352 237.958 200.382 237.627 200.683 237.497ZM198.752 236.601 198.939 237.247 198.549 237.486 198.889 238.086 198.429 238.183 197.837 237.767 197.898 237.402 198.752 236.601ZM199.161 235.64 199.882 235.68 200.162 236.255 200.532 236.358 200.641 237.285 200.053 237.529 200.207 238.268 198.751 237.523 199.071 237.346 198.857 235.976 199.161 235.639ZM201.216 235.072 201.2 235.954 201.769 236.383 201.347 236.559 202.393 237.912 202.418 238.698 202.812 238.58 202.321 238.991 201.717 237.801 201.041 237.736 200.79 236.995 201.035 234.791 201.216 235.072ZM199.914 232.71 199.893 233.793 200.313 234.78 199.832 235.136 199.476 233.171 199.914 232.71ZM200.493 232.339 200.862 232.506 201.415 234.333 200.855 234.638 200.604 236.192 200.108 235.792 200.107 235.151 200.481 234.851 200.085 233.759 200.107 232.484 200.493 232.339ZM187.361 159 188.191 159.29 188.347 160.242 189.074 160.637 189.919 160.326 190.447 160.59 191.477 160.448 191.754 160.828 193.302 161.201 194.705 160.102 194.574 159.653 195.122 159.482 195.981 159.497 196.517 159.905 196.917 159.619 197.491 160.289 197.88 160.133 197.88 160.133 199.573 160.767 199.645 163.285 200.276 162.571 200.772 163.018 200.574 163.432 200.897 163.725 201.793 163.466 202.101 164.053 202.729 164.207 202.896 165.13 203.312 165.582 205.095 165.441 206.835 164.65 207.034 165.056 207.867 165.17 208.011 165.612 209.437 165.463 210.338 166.081 210.666 166.016 210.805 166.295 210.218 166.861 210.487 167.003 210.866 167.015 211.082 166.665 211.835 166.953 212.268 166.728 212.523 167.317 212.993 167.071 213.705 167.25 213.705 167.25 213.983 168.117 213.707 168.534 214 169.16 213.778 169.261 213.644 170.698 213.902 171.143 213.281 172.154 213.561 172.054 213.711 172.345 212.633 172.842 212.616 173.199 212.182 173.349 212.298 173.861 211.714 173.6 211.995 174.152 211.82 174.353 211.528 174.17 211.87 174.674 211.42 175.008 211.917 175.087 211.385 175.456 211.948 175.681 211.728 175.823 211.728 175.823 211.448 175.786 211.121 175.261 211.077 174.986 210.566 174.844 210.896 175.672 210.307 175.633 210.221 176.026 209.952 175.967 210.5 176.573 209.98 176.859 210.214 177.057 210.496 176.763 210.782 177.452 209.763 178.077 209.747 178.967 209.22 178.93 209.203 178.376 207.716 178.326 207.587 177.737 207.142 178.352 206.484 178.295 205.491 177.683 205.52 177.414 205.183 177.446 205.335 177.005 204.733 176.512 203.763 176.256 203.45 175.599 203.541 174.72 202.99 173.972 203.506 173.36 202.743 173.342 202.973 173.07 202.681 172.638 202.777 172.11 202.026 172.131 200.928 171.091 200.743 171.633 200.49 171.519 200.168 171.906 200.291 172.577 200.917 172.643 200.986 172.827 201.315 172.859 201.548 173.234 201.322 173.615 201.916 173.921 202.371 173.787 202.437 174.402 201.015 174.62 200.505 173.877 199.839 173.825 199.551 174.05 199.793 174.664 199.245 174.737 198.85 174.332 198.884 173.679 198.56 173.48 198.025 173.68 197.848 172.842 197.206 173.142 196.883 172.41 197.181 172.281 196.063 171.532 196.009 170.964 195.643 170.952 195.669 171.309 195.098 171.191 195.154 170.679 194.661 170.794 194.08 169.843 193.355 169.756 193.068 168.362 192.526 169.01 191.917 170.859 192.216 171.367 192.384 170.71 194.04 171.123 194.635 172.738 194.094 172.907 193.677 172.516 193.394 173.101 192.948 173.206 193.079 173.437 192.157 173.984 192.168 174.965 190.698 175.453 189.705 176.146 189.426 177.223 189.775 177.341 189.6 177.941 189.801 178.079 189.184 178.274 188.364 179.851 188.673 180.215 188.799 181.689 189.294 182.051 189.79 181.655 190.109 181.866 190.987 181.506 191.013 181.953 192.542 183.021 192.952 183.706 193.662 183.846 193.514 184.851 194.282 185.1 194.232 185.472 195.398 186.299 195.848 186.178 196.426 186.749 197.128 186.86 197.303 186.432 198.134 186.506 198.045 186.048 198.725 186.073 199.136 186.866 198.818 187.837 199.22 188.093 199.202 188.56 199.845 189.19 200.101 188.985 200.374 189.489 201.6 189.665 200.819 190.188 200.85 190.814 200.506 190.838 200.686 191.376 200.337 191.643 199.219 190.947 198.63 191.562 198.189 191.266 197.889 191.475 197.277 190.973 195.957 191.028 195.223 191.477 194.277 190.94 193.506 191.183 193.747 192.039 193.462 192.288 193.607 193.029 193.373 193.487 193.62 193.716 192.813 194.763 192.871 195.132 192.014 195.237 191.794 195.683 192.103 195.974 191.777 196.388 191.094 195.917 190.899 196.237 190.896 195.565 190.386 194.916 189.121 195.283 189.636 196.465 189.235 196.635 189.071 197.341 188.875 197.084 188.639 197.748 188.132 197.905 188.049 198.66 187.273 199.52 189.238 202.047 189.986 202.754 191.062 203.097 191.889 203.968 193.542 204.064 194.691 204.579 195.068 205.326 195.256 204.854 195.515 204.864 196.138 205.176 197.179 205.105 197.64 205.66 197.601 206.878 197.136 207.369 197.29 208.106 197.067 208.192 197.143 208.481 197.51 208.465 197.532 210.051 197.984 209.837 198.16 210.202 197.644 210.306 197.595 211.322 197.173 211.324 196.552 212.024 195.368 212.154 195.737 212.823 195.133 213.315 195.408 213.626 195.163 215.548 195.604 215.634 195.438 216.192 196.356 216.078 196.56 216.94 197.759 218.059 198.555 217.84 198.447 218.673 198.079 218.65 197.967 219.02 198.037 219.91 197.625 220.151 197.805 220.718 197.107 220.926 197.435 221.606 198.529 222.182 198.778 222.167 198.832 221.632 199.331 222.042 200.2 221.959 200.282 222.296 201.363 222.233 201.18 222.714 200.888 222.581 200.305 223.572 199.578 224.038 199.626 225.459 199.244 225.489 199.548 225.688 199.455 226.222 199.94 226.293 200.205 226.788 200.14 227.427 200.665 227.426 200.973 227.965 200.843 228.715 200.282 229.217 200.856 230.316 200.473 231.429 200.832 231.552 200.544 232.184 199.561 232.556 199.187 233.142 199.406 233.555 199.235 234.988 199.666 235.498 198.845 235.37 198.571 236.539 197.738 237.3 197.662 237.797 196.883 237.739 195.987 239.297 196.236 240.275 195.692 241.361 195.806 242.311 195.396 242.669 195.316 242.4 194.859 242.451 194.68 243.232 194.196 242.832 194.643 242.047 193.129 242.409 192.811 242.737 192.713 244.063 192.33 244.081 192.181 243.169 191.611 243.32 190.826 243.931 191.024 244.728 190.229 244.595 189.457 242.827 189.656 242.109 189.319 241.601 190.094 240.626 190.325 239.813 190.026 238.401 189.489 237.909 188.117 237.707 188.622 236.278 187.823 237.583 186.902 237.188 186.527 236.586 186.351 234.713 186.021 234.267 185.454 234.167 186.292 235.326 186.26 236.963 187.243 237.87 189.06 238.128 189.823 239.446 188.01 240.771 187.879 240.814 186.838 243.16 186.106 244.04 185.543 244.148 184.11 245.661 183.588 245.589 182.677 246.238 179.704 246.987 179.704 246.987 179.369 246.43 179.544 245.474 179.144 245.139 179.154 244.649 178.102 244.662 177.844 244.268 176.56 243.835 176.165 241.675 175.201 241.382 175.07 242.042 174.143 242.389 174.158 243.121 173.236 243.045 172.773 242.397 173.295 241.139 173.055 240.337 172.191 239.69 170.397 239.509 169.801 238.603 168.729 238.764 168.834 237.658 168.834 237.658 169.468 237.718 169.597 237.681 169.942 237.683 170.081 237.308 170.11 236.908 170.174 237.133 171.167 237.09 171.174 236.442 170.358 235.972 170.57 234.869 169.4 234.419 169.159 233.641 169.787 233.658 169.921 233.283 169.367 232.146 167.816 232.094 167.332 230.585 166.206 229.854 165.739 230.151 164.443 228.99 164.682 227.69 165.115 227.13 164.682 226.716 165.22 226.313 165.423 226.547 165.907 226.391 166.221 225.726 165.819 226.052 165.606 225.685 164.444 225.609 164.113 225.928 162.756 225.324 161.528 225.654 160.634 224.895 160.441 224.24 159.173 223.844 159.015 223.302 157.269 223.52 156.446 222.514 156.075 222.502 156 221.446 156.739 220.504 156.572 219.864 156.993 219.775 156.523 219.163 156.568 218.226 157.683 218.469 159.162 217.861 158.639 216.958 159.156 216.457 160.558 216.707 160.569 218.181 161.649 218.447 161.904 218.233 161.702 218.763 161.967 219.013 162.473 218.677 162.78 219.006 162.985 218.877 162.783 218.637 163.811 218.031 163.55 217.817 163.611 217.091 163.939 216.448 164.78 216.061 164.783 215.742 166.054 215.752 166.956 215.095 168.419 214.731 168.961 214.742 169.053 214.995 169.826 214.842 170.222 213.693 169.837 212.597 170.237 212.91 170.96 212.397 171.017 212.112 171.3 211.839 171.892 212.386 172.33 212.067 174.581 213.164 174.933 213.174 175.186 212.782 174.678 212.042 175.605 212.241 175.504 212.45 175.933 212.608 176.279 212.679 176.357 211.417 176.675 211.948 177.021 211.549 176.982 210.657 176.547 210.494 176.21 209.321 177.562 209.479 177.319 209.895 177.499 210.027 177.91 209.82 179.361 210.255 179.016 209.834 179.715 209.751 180.113 209.342 179.837 209.151 179.871 208.163 181.054 208.632 180.954 208.297 181.504 207.949 180.957 207.532 182.677 207.623 182.72 207.055 181.935 206.657 181.907 206.173 182.56 206.112 182.975 205.397 183.633 205.216 184.402 203.602 184.04 203.478 184.587 202.225 184.354 201.971 184.19 202.279 184.35 201.429 183.821 200.855 184.949 201.337 185.509 201.154 185.833 200.665 185.3 200.4 185.713 200.371 185.47 200.15 185.883 199.649 185.499 199.406 185.702 198.66 184.828 198.398 184.518 197.962 184.797 197.619 184.764 198.005 185.04 197.988 185.356 197.526 185.228 197.065 185.669 197.041 185.534 196.594 186.742 195.91 186.644 195.388 185.362 193.838 183.924 192.842 184.081 190.804 184.081 190.804 184.784 191.139 184.586 190.586 185.068 189.9 184.029 189.037 184.099 188.408 183.768 188.318 183.673 187.89 183.992 187.264 184.383 187.429 184.743 186.949 185.167 186.936 185.393 186.136 185.676 186.321 186.063 185.816 186.922 185.997 186.931 186.347 187.182 186.483 187.229 186.225 187.516 186.608 188.129 186.697 188.164 186.327 187.633 185.808 187.423 185.013 187.898 184.287 187.63 184.223 187.816 183.372 186.562 182.832 186.152 182.092 185.667 182.117 185.839 181.402 185.451 181.184 185.845 180.816 184.584 180.504 184.311 179.859 184.686 179.488 184.86 177.757 185.874 177.018 186.135 177.368 186.232 177.123 186.665 177.172 186.607 176.049 187.308 176.226 187.657 175.64 188.121 175.672 189.19 174.445 190.189 173.986 191.3 172.836 190.952 172.401 190.523 172.494 190.421 172.198 190.957 171.755 190.4 171.35 190.361 170.886 189.896 170.954 189.684 170.658 190.463 169.991 190.432 169.678 189.53 169.911 189.203 170.332 188.641 169.939 188.641 169.939 188.642 169.933 188.642 169.933 188.63 169.879 188.63 169.879 189.455 168.332 189.848 166.174 189.642 164.673 189.11 164.143 189.249 163.79 188.882 163.314 189.089 162.751 188.481 162.451 188.259 161.953 187.698 161.933 187.461 161.115 187.038 160.828 187.436 159.779 187.361 159Z"
            fill="#ffffff" fill-rule="evenodd" />
    </g>
</svg>